<svg width="240" height="24" viewBox="0 0 240 24" fill="none" xmlns="http://www.w3.org/2000/svg">
<g opacity="0.3">
<circle cx="12" cy="12" r="12" fill="white" fill-opacity="0.05"/>
<path d="M18.5 7.97344C18.0219 8.17969 17.5015 8.32813 16.9656 8.38594C17.5187 8.05625 17.939 7.53594 18.1375 6.91719C17.6265 7.22187 17.0484 7.44531 16.4468 7.56094C15.9593 7.04062 15.2672 6.71875 14.5 6.71875C13.0234 6.71875 11.8359 7.91563 11.8359 9.38438C11.8359 9.59063 11.8609 9.79688 11.9015 9.99531C9.6906 9.87969 7.71873 8.82344 6.40779 7.20625C6.17654 7.60312 6.04529 8.05625 6.04529 8.55156C6.04529 9.47656 6.5156 10.2922 7.23279 10.7719C6.79529 10.7547 6.38279 10.6313 6.0281 10.4328V10.4656C6.0281 11.7609 6.94373 12.8344 8.16404 13.0813C7.9406 13.1391 7.70154 13.1719 7.46248 13.1719C7.28904 13.1719 7.12498 13.1547 6.95935 13.1313C7.29685 14.1875 8.27966 14.9547 9.44998 14.9797C8.53435 15.6969 7.38748 16.1187 6.14216 16.1187C5.91873 16.1187 5.71248 16.1109 5.49841 16.0859C6.67966 16.8438 8.08123 17.2812 9.5906 17.2812C14.4906 17.2812 17.1719 13.2219 17.1719 9.69844C17.1719 9.58281 17.1719 9.46719 17.164 9.35156C17.6828 8.97187 18.1375 8.50156 18.5 7.97344Z" fill="white"/>
</g>
<g opacity="0.3">
<circle cx="52" cy="12" r="12" fill="white" fill-opacity="0.05"/>
<path fill-rule="evenodd" clip-rule="evenodd" d="M58.4995 11.9342C58.4994 12.0393 58.4993 12.1445 58.4993 12.2499C58.4993 12.3677 58.4995 12.4853 58.4997 12.6029C58.5008 13.3465 58.5019 14.0858 58.4587 14.8297C58.4102 15.8303 58.1835 16.7169 57.4502 17.4502C56.7184 18.1819 55.8304 18.4102 54.8297 18.4586C54.0733 18.5012 53.3218 18.5004 52.5656 18.4995C52.4604 18.4994 52.3552 18.4993 52.2499 18.4993C52.1448 18.4993 52.0397 18.4994 51.9348 18.4995C51.1795 18.5004 50.4278 18.5012 49.6701 18.4586C48.6694 18.4102 47.7829 18.1835 47.0496 17.4502C46.3179 16.7184 46.0896 15.8303 46.0411 14.8297C45.9986 14.0733 45.9994 13.3205 46.0002 12.565C46.0003 12.46 46.0005 12.355 46.0005 12.2499C46.0005 12.1447 46.0003 12.0397 46.0002 11.9347C45.9994 11.1795 45.9986 10.4278 46.0411 9.67006C46.0896 8.6694 46.3163 7.78288 47.0496 7.04959C47.7813 6.31786 48.6694 6.08959 49.6701 6.04112C50.4264 5.99856 51.1779 5.9994 51.9342 6.00023C52.0393 6.00035 52.1445 6.00047 52.2499 6.00047C52.355 6.00047 52.46 6.00035 52.565 6.00023C53.3202 5.9994 54.072 5.99856 54.8297 6.04112C55.8304 6.08959 56.7169 6.3163 57.4502 7.04959C58.1819 7.78132 58.4102 8.6694 58.4587 9.67006C58.5012 10.4264 58.5004 11.1779 58.4995 11.9342ZM56.6512 16.6528C56.8717 16.4339 57.0093 16.2212 57.1234 15.9367C57.4044 15.2294 57.3894 13.686 57.3797 12.6879C57.3781 12.5255 57.3767 12.3775 57.3767 12.2499C57.3767 12.1219 57.3781 11.9734 57.3797 11.8103C57.3895 10.8119 57.4045 9.26847 57.125 8.56152C57.0108 8.27696 56.8732 8.06588 56.6528 7.84542C56.4339 7.62497 56.2212 7.48738 55.9367 7.37324C55.2297 7.09369 53.6863 7.10874 52.6879 7.11847C52.5248 7.12006 52.3763 7.12151 52.2483 7.12151C52.1203 7.12151 51.9718 7.12006 51.8087 7.11847C50.8103 7.10874 49.2669 7.09369 48.56 7.37324C48.2754 7.48738 48.0643 7.62653 47.8439 7.84542C47.6234 8.06432 47.4858 8.27696 47.3717 8.56152C47.0921 9.26847 47.1072 10.8119 47.1169 11.8103C47.1185 11.9734 47.12 12.1219 47.12 12.2499C47.12 12.3779 47.1185 12.5264 47.1169 12.6894C47.1072 13.6876 47.0921 15.2299 47.3717 15.9382C47.4858 16.2228 47.6234 16.4339 47.8439 16.6543C48.0628 16.8748 48.2754 17.0124 48.56 17.1265C49.2669 17.4061 50.8103 17.391 51.8087 17.3813C51.9718 17.3797 52.1203 17.3782 52.2483 17.3782C52.3759 17.3782 52.5239 17.3797 52.6863 17.3813C53.6844 17.391 55.2278 17.406 55.9351 17.1249C56.2197 17.0108 56.4308 16.8732 56.6512 16.6528ZM49.0415 12.2499C49.0415 10.4753 50.4737 9.04309 52.2483 9.04309C54.0229 9.04309 55.4551 10.4753 55.4551 12.2499C55.4551 14.0245 54.0229 15.4567 52.2483 15.4567C50.4737 15.4567 49.0415 14.0245 49.0415 12.2499ZM50.1641 12.2499C50.1641 13.3975 51.1007 14.3341 52.2483 14.3341C53.3959 14.3341 54.3325 13.3975 54.3325 12.2499C54.3325 11.1023 53.3959 10.1657 52.2483 10.1657C51.1007 10.1657 50.1641 11.1023 50.1641 12.2499ZM54.8375 8.91332C54.8375 8.49899 55.1721 8.16439 55.5864 8.16439C56.0008 8.16439 56.3338 8.49742 56.3354 8.91332C56.3354 9.32922 56.0008 9.66225 55.5864 9.66225C55.1721 9.66225 54.8375 9.32765 54.8375 8.91332Z" fill="white"/>
</g>
<g opacity="0.3">
<circle cx="92" cy="12" r="12" fill="white" fill-opacity="0.05"/>
<path fill-rule="evenodd" clip-rule="evenodd" d="M99 11.125C99 10.1578 98.2172 9.375 97.25 9.375C96.5922 9.375 96.0203 9.7375 95.7203 10.275C94.8203 9.78281 93.725 9.46563 92.5312 9.39219L93.5766 7.04688L95.575 7.62344C95.7547 8.13281 96.2406 8.5 96.8125 8.5C97.5375 8.5 98.125 7.9125 98.125 7.1875C98.125 6.4625 97.5375 5.875 96.8125 5.875C96.3125 5.875 95.8781 6.15469 95.6562 6.56562L93.4297 5.92188C93.1797 5.85 92.9172 5.97187 92.8109 6.20937L91.3922 9.39531C90.2281 9.47656 89.1594 9.79219 88.2797 10.2734C87.9812 9.7375 87.4078 9.375 86.75 9.375C85.7828 9.375 85 10.1578 85 11.125C85 11.8406 85.4297 12.4547 86.0438 12.7266C85.9328 13.0547 85.875 13.3984 85.875 13.75C85.875 16.1656 88.6172 18.125 92 18.125C95.3828 18.125 98.125 16.1656 98.125 13.75C98.125 13.3969 98.0656 13.0547 97.9563 12.7266C98.5703 12.4547 99 11.8406 99 11.125ZM96.8125 6.69531C97.0844 6.69531 97.3047 6.91562 97.3047 7.1875C97.3047 7.45938 97.0844 7.67969 96.8125 7.67969C96.5406 7.67969 96.3203 7.45938 96.3203 7.1875C96.3203 6.91562 96.5406 6.69531 96.8125 6.69531ZM85.875 11.125C85.875 10.6422 86.2672 10.25 86.75 10.25C87.0984 10.25 87.4 10.4547 87.5406 10.7516C87.0828 11.0984 86.7047 11.4984 86.4234 11.9375C86.1031 11.8078 85.875 11.4922 85.875 11.125ZM92 17.0859C89.1906 17.0859 86.9141 15.5922 86.9141 13.75C86.9141 11.9078 89.1906 10.4141 92 10.4141C94.8094 10.4141 97.0859 11.9078 97.0859 13.75C97.0859 15.5922 94.8094 17.0859 92 17.0859ZM97.575 11.9375C97.2953 11.4984 96.9156 11.0984 96.4578 10.7516C96.5984 10.4563 96.9 10.25 97.2484 10.25C97.7313 10.25 98.1234 10.6422 98.1234 11.125C98.125 11.4922 97.8969 11.8078 97.575 11.9375ZM88.7563 13.4937C88.5922 13.3296 88.5 13.1071 88.5 12.875C88.5 12.6429 88.5922 12.4204 88.7563 12.2563C88.9204 12.0922 89.1429 12 89.375 12C89.6071 12 89.8296 12.0922 89.9937 12.2563C90.1578 12.4204 90.25 12.6429 90.25 12.875C90.25 13.1071 90.1578 13.3296 89.9937 13.4937C89.8296 13.6578 89.6071 13.75 89.375 13.75C89.1429 13.75 88.9204 13.6578 88.7563 13.4937ZM92 15.3359C92.7156 15.3359 93.4313 15.0297 93.7922 14.7453C94.0172 14.5672 94.3453 14.6062 94.5219 14.8312C94.7 15.0562 94.6609 15.3828 94.4359 15.5609C93.8078 16.0562 92.8516 16.375 92 16.375C91.1484 16.375 90.1922 16.0562 89.5641 15.5609C89.3391 15.3828 89.3 15.0562 89.4781 14.8312C89.6562 14.6062 89.9828 14.5687 90.2078 14.7453C90.5687 15.0297 91.2844 15.3359 92 15.3359ZM94.0063 13.4937C93.8422 13.3296 93.75 13.1071 93.75 12.875C93.75 12.6429 93.8422 12.4204 94.0063 12.2563C94.1704 12.0922 94.3929 12 94.625 12C94.8571 12 95.0796 12.0922 95.2437 12.2563C95.4078 12.4204 95.5 12.6429 95.5 12.875C95.5 13.1071 95.4078 13.3296 95.2437 13.4937C95.0796 13.6578 94.8571 13.75 94.625 13.75C94.3929 13.75 94.1704 13.6578 94.0063 13.4937Z" fill="white"/>
</g>
<g opacity="0.3">
<circle cx="132" cy="12" r="12" fill="white" fill-opacity="0.05"/>
<path d="M138.5 7.97344C138.022 8.17969 137.502 8.32813 136.966 8.38594C137.519 8.05625 137.939 7.53594 138.138 6.91719C137.627 7.22187 137.048 7.44531 136.447 7.56094C135.959 7.04062 135.267 6.71875 134.5 6.71875C133.023 6.71875 131.836 7.91563 131.836 9.38438C131.836 9.59063 131.861 9.79688 131.902 9.99531C129.691 9.87969 127.719 8.82344 126.408 7.20625C126.177 7.60312 126.045 8.05625 126.045 8.55156C126.045 9.47656 126.516 10.2922 127.233 10.7719C126.795 10.7547 126.383 10.6313 126.028 10.4328V10.4656C126.028 11.7609 126.944 12.8344 128.164 13.0813C127.941 13.1391 127.702 13.1719 127.463 13.1719C127.289 13.1719 127.125 13.1547 126.959 13.1313C127.297 14.1875 128.28 14.9547 129.45 14.9797C128.534 15.6969 127.388 16.1187 126.142 16.1187C125.919 16.1187 125.713 16.1109 125.498 16.0859C126.68 16.8438 128.081 17.2812 129.591 17.2812C134.491 17.2812 137.172 13.2219 137.172 9.69844C137.172 9.58281 137.172 9.46719 137.164 9.35156C137.683 8.97187 138.138 8.50156 138.5 7.97344Z" fill="white"/>
</g>
<g opacity="0.3">
<circle cx="172" cy="12" r="12" fill="white" fill-opacity="0.05"/>
<path d="M177.75 5.75H166.25C165.973 5.75 165.75 5.97344 165.75 6.25V17.75C165.75 18.0266 165.973 18.25 166.25 18.25H177.75C178.027 18.25 178.25 18.0266 178.25 17.75V6.25C178.25 5.97344 178.027 5.75 177.75 5.75ZM177.25 17.25H174.373V13.4094H175.998L176.242 11.5234H174.373V10.3187C174.373 9.77187 174.525 9.4 175.308 9.4H176.306V7.7125C176.133 7.68906 175.541 7.6375 174.85 7.6375C173.409 7.6375 172.423 8.51719 172.423 10.1312V11.5219H170.795V13.4078H172.425V17.25H166.75V6.75H177.25V17.25Z" fill="white"/>
</g>
</svg>
