<svg width="201" height="20" viewBox="0 0 201 20" fill="none" xmlns="http://www.w3.org/2000/svg">
<path d="M4.80078 2.42285C4.78906 2.51074 4.77734 2.65137 4.76562 2.84473C4.75391 3.03223 4.73633 3.24902 4.71289 3.49512C4.69531 3.74121 4.67773 4.00488 4.66016 4.28613C4.64258 4.56152 4.62207 4.83105 4.59863 5.09473C4.58105 5.35254 4.56055 5.58984 4.53711 5.80664C4.51953 6.02344 4.50488 6.19629 4.49316 6.3252L4.94141 5.86816L6.18945 4.32129C6.3418 4.12793 6.49414 3.94043 6.64648 3.75879C6.79883 3.57129 6.93359 3.4043 7.05078 3.25781C7.17383 3.10547 7.27344 2.97949 7.34961 2.87988C7.42578 2.78027 7.46973 2.72461 7.48145 2.71289L11.3838 2.3877C11.3955 2.38184 11.4219 2.37891 11.4629 2.37891H11.5332C11.668 2.37891 11.7354 2.41406 11.7354 2.48438C11.7354 2.52539 11.7148 2.5752 11.6738 2.63379C11.6387 2.68652 11.583 2.75684 11.5068 2.84473C11.4131 2.95605 11.2754 3.11719 11.0938 3.32812C10.918 3.5332 10.7246 3.76172 10.5137 4.01367C10.3027 4.25977 10.083 4.51758 9.85449 4.78711C9.63184 5.05078 9.42383 5.29688 9.23047 5.52539C9.03711 5.74805 8.87012 5.94141 8.72949 6.10547C8.59473 6.26953 8.50977 6.375 8.47461 6.42188L7.9209 6.94922C7.5459 7.30664 7.06543 7.75195 6.47949 8.28516C6.66113 8.47266 6.85449 8.67773 7.05957 8.90039C7.27051 9.11719 7.46973 9.32812 7.65723 9.5332C7.85059 9.73242 8.02344 9.91406 8.17578 10.0781C8.33398 10.2422 8.45117 10.3652 8.52734 10.4473L11.2432 13.5938C11.2725 13.6289 11.3105 13.6582 11.3574 13.6816C11.4043 13.7051 11.4512 13.7256 11.498 13.7432C11.5449 13.7607 11.583 13.7812 11.6123 13.8047C11.6475 13.8223 11.665 13.8457 11.665 13.875C11.665 13.9102 11.627 13.9658 11.5508 14.042C11.5039 14.0889 11.416 14.1592 11.2871 14.2529C11.1582 14.3408 11.0059 14.4375 10.8301 14.543C10.6602 14.6484 10.4756 14.7568 10.2764 14.8682C10.0771 14.9795 9.88379 15.0791 9.69629 15.167C9.51465 15.2607 9.34473 15.3369 9.18652 15.3955C9.03418 15.4541 8.91699 15.4834 8.83496 15.4834C8.71191 15.4834 8.58301 15.4277 8.44824 15.3164C8.31348 15.2109 8.15234 15.0498 7.96484 14.833C7.77734 14.6104 7.55469 14.3291 7.29688 13.9893C7.03906 13.6494 6.72852 13.251 6.36523 12.7939C6.1543 12.5303 5.94922 12.2725 5.75 12.0205C5.55078 11.7627 5.36328 11.5225 5.1875 11.2998C5.01172 11.0713 4.85059 10.8691 4.7041 10.6934C4.56348 10.5117 4.44629 10.3652 4.35254 10.2539C4.30566 10.3008 4.25586 10.3477 4.20312 10.3945C4.15039 10.4355 4.10059 10.4795 4.05371 10.5264L3.74609 14.2969C3.74023 14.3496 3.72852 14.4023 3.71094 14.4551C3.69922 14.5078 3.66113 14.5459 3.59668 14.5693L1.10938 15.4658C1.04492 15.4893 0.959961 15.5186 0.854492 15.5537C0.749023 15.5889 0.646484 15.6064 0.546875 15.6064C0.458984 15.6064 0.385742 15.583 0.327148 15.5361C0.268555 15.4893 0.239258 15.4043 0.239258 15.2812C0.268555 14.9355 0.303711 14.4873 0.344727 13.9365C0.391602 13.3857 0.438477 12.7588 0.485352 12.0557C0.538086 11.3467 0.59082 10.5762 0.643555 9.74414C0.702148 8.90625 0.763672 8.02734 0.828125 7.10742L1.07422 3.40723C1.08008 3.30176 1.08594 3.21387 1.0918 3.14355C1.09766 3.07324 1.10645 3.01465 1.11816 2.96777C1.12988 2.9209 1.15039 2.88574 1.17969 2.8623C1.20898 2.83887 1.25293 2.82129 1.31152 2.80957L4.35254 2.08008C4.42871 2.05664 4.50781 2.04492 4.58984 2.04492C4.67188 2.04492 4.72754 2.07129 4.75684 2.12402C4.78613 2.1709 4.80078 2.27051 4.80078 2.42285ZM17 5.19141C17.5566 5.19141 18.0605 5.29688 18.5117 5.50781C18.9688 5.71289 19.3584 5.98242 19.6807 6.31641C20.0088 6.64453 20.2607 7.01367 20.4365 7.42383C20.6123 7.83398 20.7002 8.24414 20.7002 8.6543C20.7002 9.01758 20.5889 9.38379 20.3662 9.75293C20.1436 10.1162 19.8301 10.4443 19.4258 10.7373C19.0273 11.0303 18.5469 11.2676 17.9844 11.4492C17.4219 11.6309 16.8037 11.7217 16.1299 11.7217C15.7783 11.7217 15.4092 11.6865 15.0225 11.6162C15.0459 11.8682 15.1191 12.085 15.2422 12.2666C15.3652 12.4482 15.5205 12.5977 15.708 12.7148C15.8955 12.832 16.1064 12.9199 16.3408 12.9785C16.5811 13.0312 16.8271 13.0576 17.0791 13.0576C17.3604 13.0576 17.6299 13.0342 17.8877 12.9873C18.1514 12.9346 18.4033 12.8672 18.6436 12.7852C18.8838 12.7031 19.1152 12.6123 19.3379 12.5127C19.5605 12.4131 19.7715 12.3135 19.9707 12.2139C20.0234 12.2021 20.0674 12.1934 20.1025 12.1875C20.1436 12.1758 20.1816 12.1699 20.2168 12.1699C20.2168 12.1699 20.2139 12.2168 20.208 12.3105C20.208 12.4043 20.208 12.5361 20.208 12.7061C20.208 12.876 20.2051 13.0811 20.1992 13.3213C20.1992 13.5615 20.1963 13.8281 20.1904 14.1211C20.208 14.1504 20.2197 14.1797 20.2256 14.209C20.2314 14.2383 20.2344 14.2617 20.2344 14.2793C20.2344 14.3496 20.1699 14.4258 20.041 14.5078C19.9121 14.5898 19.7422 14.6748 19.5312 14.7627C19.3262 14.8506 19.0889 14.9355 18.8193 15.0176C18.5557 15.0996 18.2861 15.1729 18.0107 15.2373C17.7354 15.3076 17.4688 15.3604 17.2109 15.3955C16.9531 15.4365 16.7275 15.457 16.5342 15.457C15.9014 15.457 15.2861 15.3457 14.6885 15.123C14.0967 14.9062 13.5693 14.5928 13.1064 14.1826C12.6494 13.7725 12.2832 13.2744 12.0078 12.6885C11.7324 12.1025 11.5947 11.4434 11.5947 10.7109C11.5947 9.94336 11.7266 9.22559 11.9902 8.55762C12.2539 7.88379 12.623 7.29785 13.0977 6.7998C13.5781 6.30176 14.1494 5.90918 14.8115 5.62207C15.4736 5.33496 16.2031 5.19141 17 5.19141ZM16.8945 7.5293C16.6543 7.5293 16.4316 7.58203 16.2266 7.6875C16.0273 7.78711 15.8428 7.93359 15.6729 8.12695C15.5088 8.31445 15.3652 8.54297 15.2422 8.8125C15.1191 9.07617 15.0195 9.36914 14.9434 9.69141C15.5469 9.58594 16.0479 9.47461 16.4463 9.35742C16.8447 9.24023 17.1641 9.12305 17.4043 9.00586C17.6445 8.88281 17.8145 8.7627 17.9141 8.64551C18.0137 8.52246 18.0635 8.40527 18.0635 8.29395C18.0635 8.18848 18.0225 8.08887 17.9404 7.99512C17.8643 7.90137 17.7676 7.81934 17.6504 7.74902C17.5332 7.67871 17.4043 7.62598 17.2637 7.59082C17.1289 7.5498 17.0059 7.5293 16.8945 7.5293ZM27.0371 5.19141C27.5938 5.19141 28.0977 5.29688 28.5488 5.50781C29.0059 5.71289 29.3955 5.98242 29.7178 6.31641C30.0459 6.64453 30.2979 7.01367 30.4736 7.42383C30.6494 7.83398 30.7373 8.24414 30.7373 8.6543C30.7373 9.01758 30.626 9.38379 30.4033 9.75293C30.1807 10.1162 29.8672 10.4443 29.4629 10.7373C29.0645 11.0303 28.584 11.2676 28.0215 11.4492C27.459 11.6309 26.8408 11.7217 26.167 11.7217C25.8154 11.7217 25.4463 11.6865 25.0596 11.6162C25.083 11.8682 25.1562 12.085 25.2793 12.2666C25.4023 12.4482 25.5576 12.5977 25.7451 12.7148C25.9326 12.832 26.1436 12.9199 26.3779 12.9785C26.6182 13.0312 26.8643 13.0576 27.1162 13.0576C27.3975 13.0576 27.667 13.0342 27.9248 12.9873C28.1885 12.9346 28.4404 12.8672 28.6807 12.7852C28.9209 12.7031 29.1523 12.6123 29.375 12.5127C29.5977 12.4131 29.8086 12.3135 30.0078 12.2139C30.0605 12.2021 30.1045 12.1934 30.1396 12.1875C30.1807 12.1758 30.2188 12.1699 30.2539 12.1699C30.2539 12.1699 30.251 12.2168 30.2451 12.3105C30.2451 12.4043 30.2451 12.5361 30.2451 12.7061C30.2451 12.876 30.2422 13.0811 30.2363 13.3213C30.2363 13.5615 30.2334 13.8281 30.2275 14.1211C30.2451 14.1504 30.2568 14.1797 30.2627 14.209C30.2686 14.2383 30.2715 14.2617 30.2715 14.2793C30.2715 14.3496 30.207 14.4258 30.0781 14.5078C29.9492 14.5898 29.7793 14.6748 29.5684 14.7627C29.3633 14.8506 29.126 14.9355 28.8564 15.0176C28.5928 15.0996 28.3232 15.1729 28.0479 15.2373C27.7725 15.3076 27.5059 15.3604 27.248 15.3955C26.9902 15.4365 26.7646 15.457 26.5713 15.457C25.9385 15.457 25.3232 15.3457 24.7256 15.123C24.1338 14.9062 23.6064 14.5928 23.1436 14.1826C22.6865 13.7725 22.3203 13.2744 22.0449 12.6885C21.7695 12.1025 21.6318 11.4434 21.6318 10.7109C21.6318 9.94336 21.7637 9.22559 22.0273 8.55762C22.291 7.88379 22.6602 7.29785 23.1348 6.7998C23.6152 6.30176 24.1865 5.90918 24.8486 5.62207C25.5107 5.33496 26.2402 5.19141 27.0371 5.19141ZM26.9316 7.5293C26.6914 7.5293 26.4688 7.58203 26.2637 7.6875C26.0645 7.78711 25.8799 7.93359 25.71 8.12695C25.5459 8.31445 25.4023 8.54297 25.2793 8.8125C25.1562 9.07617 25.0566 9.36914 24.9805 9.69141C25.584 9.58594 26.085 9.47461 26.4834 9.35742C26.8818 9.24023 27.2012 9.12305 27.4414 9.00586C27.6816 8.88281 27.8516 8.7627 27.9512 8.64551C28.0508 8.52246 28.1006 8.40527 28.1006 8.29395C28.1006 8.18848 28.0596 8.08887 27.9775 7.99512C27.9014 7.90137 27.8047 7.81934 27.6875 7.74902C27.5703 7.67871 27.4414 7.62598 27.3008 7.59082C27.166 7.5498 27.043 7.5293 26.9316 7.5293ZM35.7646 8.86523C35.7295 9.42773 35.6973 9.88477 35.668 10.2363C35.6445 10.5879 35.624 10.875 35.6064 11.0977C35.5889 11.3145 35.5742 11.4873 35.5625 11.6162C35.5508 11.7393 35.542 11.8564 35.5361 11.9678C35.6709 12.3193 35.8701 12.6064 36.1338 12.8291C36.3975 13.0459 36.7139 13.1543 37.083 13.1543C37.4053 13.1543 37.6865 13.0547 37.9268 12.8555C38.1729 12.6504 38.375 12.3867 38.5332 12.0645C38.6973 11.7422 38.8203 11.3818 38.9023 10.9834C38.9844 10.585 39.0254 10.1895 39.0254 9.79688C39.0254 9.47461 38.9961 9.17578 38.9375 8.90039C38.8848 8.625 38.8027 8.3877 38.6914 8.18848C38.5801 7.9834 38.4395 7.8252 38.2695 7.71387C38.1055 7.59668 37.9092 7.53809 37.6807 7.53809C37.4932 7.53809 37.3057 7.57617 37.1182 7.65234C36.9365 7.72266 36.7607 7.81641 36.5908 7.93359C36.4209 8.04492 36.2656 8.17383 36.125 8.32031C35.9902 8.46094 35.8789 8.59863 35.791 8.7334L35.7646 8.86523ZM35.9404 6.29004C36.4326 5.95605 36.9482 5.68945 37.4873 5.49023C38.0264 5.29102 38.5889 5.19141 39.1748 5.19141C39.7256 5.19141 40.2002 5.30566 40.5986 5.53418C41.0029 5.75684 41.3369 6.06152 41.6006 6.44824C41.8643 6.8291 42.0576 7.26855 42.1807 7.7666C42.3096 8.26465 42.374 8.78613 42.374 9.33105C42.374 9.80566 42.3271 10.2861 42.2334 10.7725C42.1396 11.2588 42.002 11.7305 41.8203 12.1875C41.6387 12.6387 41.4131 13.0635 41.1436 13.4619C40.874 13.8604 40.5635 14.209 40.2119 14.5078C39.8662 14.8008 39.4795 15.0322 39.0518 15.2021C38.624 15.3721 38.1611 15.457 37.6631 15.457C37.2236 15.457 36.8018 15.3691 36.3975 15.1934C35.999 15.0176 35.624 14.7891 35.2725 14.5078C35.2725 14.5371 35.2637 14.6455 35.2461 14.833C35.2344 15.0146 35.2168 15.2373 35.1934 15.501C35.1699 15.7646 35.1436 16.0459 35.1143 16.3447C35.085 16.6494 35.0586 16.9336 35.0352 17.1973C35.0117 17.4609 34.9912 17.6836 34.9736 17.8652C34.9619 18.0527 34.9561 18.1611 34.9561 18.1904C34.9561 18.2373 34.9561 18.2754 34.9561 18.3047C34.9619 18.3398 34.9648 18.3721 34.9648 18.4014C34.9648 18.4482 34.9414 18.4863 34.8945 18.5156C34.8535 18.5508 34.7568 18.5889 34.6045 18.6299L32.293 19.2188C32.2285 19.2363 32.1436 19.2627 32.0381 19.2979C31.9326 19.3389 31.8301 19.3594 31.7305 19.3594C31.6484 19.3594 31.5752 19.3389 31.5107 19.2979C31.4521 19.2568 31.4229 19.1807 31.4229 19.0693L32.4951 6.20215C32.5127 6.00879 32.5332 5.87695 32.5566 5.80664C32.5859 5.73047 32.6533 5.68066 32.7588 5.65723C33.292 5.55176 33.8398 5.44629 34.4023 5.34082C34.9648 5.22949 35.5127 5.08887 36.0459 4.91895C36.0928 4.91895 36.1191 4.92773 36.125 4.94531C36.1367 4.95703 36.1426 4.97754 36.1426 5.00684C36.1426 5.01855 36.1396 5.03613 36.1338 5.05957C36.1338 5.08301 36.125 5.13574 36.1074 5.21777C36.0957 5.2998 36.0752 5.42578 36.0459 5.5957C36.0225 5.75977 35.9873 5.99121 35.9404 6.29004ZM58.4404 2.43164C58.4287 2.58984 58.4082 2.82422 58.3789 3.13477C58.3496 3.43945 58.3145 3.78809 58.2734 4.18066C58.2383 4.56738 58.2002 4.97461 58.1592 5.40234C58.1182 5.83008 58.0771 6.24023 58.0361 6.63281C58.001 7.01953 57.9688 7.37109 57.9395 7.6875C57.9102 8.00391 57.8896 8.24121 57.8779 8.39941C57.7549 9.64746 57.5439 10.7197 57.2451 11.6162C56.9521 12.5068 56.5654 13.2363 56.085 13.8047C55.6045 14.373 55.0273 14.7891 54.3535 15.0527C53.6855 15.3223 52.9121 15.457 52.0332 15.457C51.4297 15.457 50.8613 15.3457 50.3281 15.123C49.7949 14.9062 49.3291 14.5986 48.9307 14.2002C48.5322 13.8018 48.2158 13.3242 47.9814 12.7676C47.7529 12.2051 47.6387 11.5811 47.6387 10.8955C47.6387 10.8076 47.6445 10.6494 47.6562 10.4209C47.6738 10.1865 47.6943 9.90234 47.7178 9.56836C47.7471 9.23438 47.7764 8.85645 47.8057 8.43457C47.8408 8.00684 47.876 7.55273 47.9111 7.07227L48.0166 5.61328C48.0518 5.08008 48.0781 4.6377 48.0957 4.28613C48.1133 3.92871 48.1309 3.6416 48.1484 3.4248C48.1719 3.20801 48.2041 3.0498 48.2451 2.9502C48.2861 2.85059 48.3506 2.78613 48.4385 2.75684L51.4355 2.08887C51.5117 2.06543 51.5908 2.05371 51.6729 2.05371C51.7666 2.05371 51.8281 2.08008 51.8574 2.13281C51.8926 2.18555 51.9102 2.28516 51.9102 2.43164L51.2422 9.35742C51.2305 9.5625 51.21 9.78516 51.1807 10.0254C51.1514 10.2656 51.1367 10.5117 51.1367 10.7637C51.1367 10.916 51.1543 11.083 51.1895 11.2646C51.2305 11.4463 51.3008 11.6191 51.4004 11.7832C51.5 11.9414 51.6348 12.0762 51.8047 12.1875C51.9805 12.293 52.2061 12.3457 52.4814 12.3457C52.8154 12.3457 53.085 12.2754 53.29 12.1348C53.4951 11.9883 53.6592 11.7979 53.7822 11.5635C53.9053 11.3232 53.9932 11.0537 54.0459 10.7549C54.1045 10.4502 54.1514 10.1396 54.1865 9.82324C54.2158 9.4541 54.251 9.02051 54.292 8.52246C54.333 8.02441 54.374 7.49121 54.415 6.92285L54.6699 3.41602C54.6816 3.31055 54.6875 3.22266 54.6875 3.15234C54.6934 3.08203 54.7021 3.02344 54.7139 2.97656C54.7256 2.92969 54.749 2.89453 54.7842 2.87109C54.8252 2.84766 54.8867 2.83008 54.9688 2.81836L57.9658 2.08887C58.042 2.06543 58.1211 2.05371 58.2031 2.05371C58.2852 2.05371 58.3438 2.08008 58.3789 2.13281C58.4199 2.17969 58.4404 2.2793 58.4404 2.43164ZM63.0811 8.86523C63.0459 9.42773 63.0137 9.88477 62.9844 10.2363C62.9609 10.5879 62.9404 10.875 62.9229 11.0977C62.9053 11.3145 62.8906 11.4873 62.8789 11.6162C62.8672 11.7393 62.8584 11.8564 62.8525 11.9678C62.9873 12.3193 63.1865 12.6064 63.4502 12.8291C63.7139 13.0459 64.0303 13.1543 64.3994 13.1543C64.7217 13.1543 65.0029 13.0547 65.2432 12.8555C65.4893 12.6504 65.6914 12.3867 65.8496 12.0645C66.0137 11.7422 66.1367 11.3818 66.2188 10.9834C66.3008 10.585 66.3418 10.1895 66.3418 9.79688C66.3418 9.47461 66.3125 9.17578 66.2539 8.90039C66.2012 8.625 66.1191 8.3877 66.0078 8.18848C65.8965 7.9834 65.7559 7.8252 65.5859 7.71387C65.4219 7.59668 65.2256 7.53809 64.9971 7.53809C64.8096 7.53809 64.6221 7.57617 64.4346 7.65234C64.2529 7.72266 64.0771 7.81641 63.9072 7.93359C63.7373 8.04492 63.582 8.17383 63.4414 8.32031C63.3066 8.46094 63.1953 8.59863 63.1074 8.7334L63.0811 8.86523ZM63.2568 6.29004C63.749 5.95605 64.2646 5.68945 64.8037 5.49023C65.3428 5.29102 65.9053 5.19141 66.4912 5.19141C67.042 5.19141 67.5166 5.30566 67.915 5.53418C68.3193 5.75684 68.6533 6.06152 68.917 6.44824C69.1807 6.8291 69.374 7.26855 69.4971 7.7666C69.626 8.26465 69.6904 8.78613 69.6904 9.33105C69.6904 9.80566 69.6436 10.2861 69.5498 10.7725C69.4561 11.2588 69.3184 11.7305 69.1367 12.1875C68.9551 12.6387 68.7295 13.0635 68.46 13.4619C68.1904 13.8604 67.8799 14.209 67.5283 14.5078C67.1826 14.8008 66.7959 15.0322 66.3682 15.2021C65.9404 15.3721 65.4775 15.457 64.9795 15.457C64.54 15.457 64.1182 15.3691 63.7139 15.1934C63.3154 15.0176 62.9404 14.7891 62.5889 14.5078C62.5889 14.5371 62.5801 14.6455 62.5625 14.833C62.5508 15.0146 62.5332 15.2373 62.5098 15.501C62.4863 15.7646 62.46 16.0459 62.4307 16.3447C62.4014 16.6494 62.375 16.9336 62.3516 17.1973C62.3281 17.4609 62.3076 17.6836 62.29 17.8652C62.2783 18.0527 62.2725 18.1611 62.2725 18.1904C62.2725 18.2373 62.2725 18.2754 62.2725 18.3047C62.2783 18.3398 62.2812 18.3721 62.2812 18.4014C62.2812 18.4482 62.2578 18.4863 62.2109 18.5156C62.1699 18.5508 62.0732 18.5889 61.9209 18.6299L59.6094 19.2188C59.5449 19.2363 59.46 19.2627 59.3545 19.2979C59.249 19.3389 59.1465 19.3594 59.0469 19.3594C58.9648 19.3594 58.8916 19.3389 58.8271 19.2979C58.7686 19.2568 58.7393 19.1807 58.7393 19.0693L59.8115 6.20215C59.8291 6.00879 59.8496 5.87695 59.873 5.80664C59.9023 5.73047 59.9697 5.68066 60.0752 5.65723C60.6084 5.55176 61.1562 5.44629 61.7188 5.34082C62.2812 5.22949 62.8291 5.08887 63.3623 4.91895C63.4092 4.91895 63.4355 4.92773 63.4414 4.94531C63.4531 4.95703 63.459 4.97754 63.459 5.00684C63.459 5.01855 63.4561 5.03613 63.4502 5.05957C63.4502 5.08301 63.4414 5.13574 63.4238 5.21777C63.4121 5.2998 63.3916 5.42578 63.3623 5.5957C63.3389 5.75977 63.3037 5.99121 63.2568 6.29004ZM77.46 9.99902C77.4775 9.81152 77.4951 9.61523 77.5127 9.41016C77.5361 9.20508 77.5625 8.99121 77.5918 8.76855C77.457 8.41699 77.2666 8.13281 77.0205 7.91602C76.7744 7.69336 76.4668 7.58203 76.0977 7.58203C75.7344 7.58203 75.4268 7.6875 75.1748 7.89844C74.9229 8.10352 74.7207 8.3584 74.5684 8.66309C74.416 8.96777 74.3047 9.29004 74.2344 9.62988C74.1699 9.96387 74.1377 10.2598 74.1377 10.5176C74.1377 10.834 74.1553 11.1475 74.1904 11.458C74.2314 11.7686 74.293 12.0498 74.375 12.3018C74.4629 12.5537 74.5771 12.7588 74.7178 12.917C74.8584 13.0693 75.0342 13.1455 75.2451 13.1455C75.7607 13.1279 76.1797 13.0107 76.502 12.7939C76.8242 12.5771 77.082 12.3135 77.2754 12.0029L77.46 9.99902ZM80.5273 14.1123C80.5273 14.124 80.5244 14.1387 80.5186 14.1562C80.5186 14.168 80.5186 14.1797 80.5186 14.1914C80.5186 14.2207 80.5186 14.2441 80.5186 14.2617C80.5244 14.2793 80.5273 14.2969 80.5273 14.3145C80.5273 14.3672 80.5068 14.4111 80.4658 14.4463C80.4307 14.4756 80.334 14.5107 80.1758 14.5518L77.8203 15.3164C77.7559 15.3398 77.6709 15.3691 77.5654 15.4043C77.46 15.4395 77.3574 15.457 77.2578 15.457C77.1758 15.457 77.1025 15.4365 77.0381 15.3955C76.9795 15.3545 76.9502 15.2783 76.9502 15.167C76.9502 15.0615 76.9502 14.9766 76.9502 14.9121C76.9561 14.8477 76.959 14.7891 76.959 14.7363C76.9648 14.6777 76.9707 14.6162 76.9766 14.5518C76.9883 14.4873 77 14.4023 77.0117 14.2969C76.5723 14.6484 76.1182 14.9297 75.6494 15.1406C75.1865 15.3516 74.6973 15.457 74.1816 15.457C73.6191 15.457 73.1182 15.3223 72.6787 15.0527C72.2451 14.7891 71.8789 14.4346 71.5801 13.9893C71.2812 13.5381 71.0527 13.0254 70.8945 12.4512C70.7422 11.8711 70.666 11.2676 70.666 10.6406C70.666 9.82617 70.7979 9.08496 71.0615 8.41699C71.3311 7.74316 71.6943 7.16895 72.1514 6.69434C72.6084 6.21387 73.1416 5.84473 73.751 5.58691C74.3604 5.32324 75.0078 5.19141 75.6934 5.19141C76.0625 5.19141 76.4141 5.28809 76.748 5.48145C77.0879 5.6748 77.4072 5.92383 77.7061 6.22852C77.7236 5.94141 77.7441 5.63086 77.7676 5.29688C77.791 4.95703 77.8145 4.61426 77.8379 4.26855C77.8613 3.91699 77.8848 3.57129 77.9082 3.23145C77.9316 2.8916 77.9521 2.58105 77.9697 2.2998C77.9697 2.24707 77.9873 2.20605 78.0225 2.17676C78.0635 2.1416 78.1631 2.10352 78.3213 2.0625L80.791 1.47363C80.8555 1.46191 80.9404 1.43555 81.0459 1.39453C81.1514 1.35352 81.2539 1.33301 81.3535 1.33301C81.4297 1.33301 81.5 1.35059 81.5645 1.38574C81.6348 1.4209 81.6699 1.48828 81.6699 1.58789C81.6699 1.59961 81.667 1.62598 81.6611 1.66699C81.6611 1.70215 81.6611 1.72559 81.6611 1.7373L80.5273 14.1123ZM91.4697 13.2334C91.4639 13.2568 91.4609 13.2803 91.4609 13.3037C91.4609 13.3213 91.4609 13.3389 91.4609 13.3564C91.4609 13.5029 91.4844 13.626 91.5312 13.7256C91.5781 13.8193 91.6279 13.8984 91.6807 13.9629C91.7393 14.0215 91.792 14.0713 91.8389 14.1123C91.8857 14.1475 91.9092 14.1797 91.9092 14.209C91.9092 14.291 91.8213 14.3672 91.6455 14.4375L89.2812 15.4482C89.2754 15.4541 89.2549 15.457 89.2197 15.457C89.1729 15.457 89.126 15.416 89.0791 15.334C89.0322 15.252 88.9854 15.1465 88.9385 15.0176C88.8975 14.8945 88.8564 14.7627 88.8154 14.6221C88.7803 14.4756 88.748 14.3408 88.7188 14.2178C88.3496 14.6455 87.9512 14.959 87.5234 15.1582C87.0957 15.3574 86.6709 15.457 86.249 15.457C85.7568 15.457 85.2764 15.3486 84.8076 15.1318C84.3389 14.915 83.9229 14.6074 83.5596 14.209C83.1963 13.8047 82.9033 13.3184 82.6807 12.75C82.4639 12.1816 82.3555 11.543 82.3555 10.834C82.3555 9.99609 82.4756 9.23145 82.7158 8.54004C82.9619 7.84863 83.293 7.25391 83.709 6.75586C84.125 6.25781 84.6084 5.87402 85.1592 5.60449C85.7158 5.3291 86.3047 5.19141 86.9258 5.19141C87.3652 5.19141 87.7812 5.28223 88.1738 5.46387C88.5664 5.63965 88.9385 5.86816 89.29 6.14941C89.3252 5.97363 89.3457 5.83301 89.3516 5.72754C89.3574 5.62207 89.3691 5.54004 89.3867 5.48145C89.4102 5.42285 89.4512 5.38477 89.5098 5.36719C89.5684 5.34375 89.665 5.32617 89.7998 5.31445C90.2217 5.25586 90.6406 5.20312 91.0566 5.15625C91.4785 5.10352 91.918 5.06543 92.375 5.04199L91.4697 13.2334ZM88.8418 9.91992C88.9004 9.58594 88.9385 9.27246 88.9561 8.97949C88.9795 8.68066 88.9971 8.4082 89.0088 8.16211C88.915 8.0918 88.8125 8.01855 88.7012 7.94238C88.5957 7.86621 88.4785 7.7959 88.3496 7.73145C88.2266 7.66113 88.0947 7.60547 87.9541 7.56445C87.8193 7.52344 87.6758 7.50293 87.5234 7.50293C87.207 7.50293 86.9404 7.60547 86.7236 7.81055C86.5127 8.01562 86.3398 8.26758 86.2051 8.56641C86.0762 8.86523 85.9824 9.18164 85.9238 9.51562C85.8711 9.84961 85.8447 10.1455 85.8447 10.4033C85.8447 11.3291 85.9648 12.0088 86.2051 12.4424C86.4512 12.8701 86.791 13.084 87.2246 13.084C87.4004 13.084 87.5967 13.0342 87.8135 12.9346C88.0303 12.835 88.25 12.6973 88.4727 12.5215L88.8418 9.91992ZM98.2021 8.22363C98.1201 8.83887 98.041 9.4541 97.9648 10.0693C97.8945 10.6787 97.8506 11.25 97.833 11.7832C97.833 12.0117 97.8506 12.2021 97.8857 12.3545C97.9209 12.5068 97.9707 12.627 98.0352 12.7148C98.1055 12.8027 98.1875 12.8672 98.2812 12.9082C98.375 12.9434 98.4805 12.9609 98.5977 12.9609C98.7852 12.9609 98.9902 12.9346 99.2129 12.8818C99.4355 12.8232 99.6582 12.75 99.8809 12.6621C99.9512 12.6328 100.01 12.6123 100.057 12.6006C100.109 12.583 100.153 12.5742 100.188 12.5742C100.247 12.5742 100.285 12.6006 100.303 12.6533C100.326 12.7061 100.347 12.7998 100.364 12.9346C100.388 13.0635 100.42 13.2393 100.461 13.4619C100.502 13.6846 100.569 13.9658 100.663 14.3057C100.669 14.335 100.672 14.3613 100.672 14.3848C100.678 14.4023 100.681 14.4199 100.681 14.4375C100.681 14.5195 100.648 14.5781 100.584 14.6133C100.525 14.6484 100.426 14.6895 100.285 14.7363C100.045 14.8184 99.79 14.9033 99.5205 14.9912C99.2568 15.0732 98.9932 15.1494 98.7295 15.2197C98.4717 15.29 98.2227 15.3457 97.9824 15.3867C97.7422 15.4336 97.5312 15.457 97.3496 15.457C96.3711 15.457 95.6562 15.2139 95.2051 14.7275C94.7598 14.2412 94.5371 13.5 94.5371 12.5039C94.5371 12.334 94.543 12.1611 94.5547 11.9854C94.5664 11.8037 94.5811 11.6162 94.5986 11.4229C94.6572 10.8369 94.707 10.2832 94.748 9.76172C94.7949 9.23438 94.8418 8.73047 94.8887 8.25H93.9658C93.6494 8.25 93.4209 8.23828 93.2803 8.21484C93.1396 8.18555 93.0693 8.12988 93.0693 8.04785C93.0693 8.02441 93.0986 7.96289 93.1572 7.86328C93.2158 7.75781 93.2891 7.63477 93.377 7.49414C93.4707 7.34766 93.5703 7.19238 93.6758 7.02832C93.7812 6.86426 93.8809 6.71191 93.9746 6.57129C94.0742 6.4248 94.1592 6.29883 94.2295 6.19336C94.2998 6.08789 94.3438 6.02344 94.3613 6H94.9854C95.0381 5.55469 95.0791 5.18262 95.1084 4.88379C95.1436 4.5791 95.1699 4.32715 95.1875 4.12793C95.2109 3.92871 95.2314 3.77637 95.249 3.6709C95.2666 3.55957 95.2842 3.47754 95.3018 3.4248C95.3252 3.37207 95.3516 3.33984 95.3809 3.32812C95.416 3.31055 95.46 3.2959 95.5127 3.28418C95.7764 3.23145 96.0312 3.18457 96.2773 3.14355C96.5234 3.09668 96.7695 3.0498 97.0156 3.00293C97.2617 2.95605 97.5107 2.90332 97.7627 2.84473C98.0205 2.78027 98.2871 2.70703 98.5625 2.625C98.5801 2.625 98.5918 2.625 98.5977 2.625C98.6035 2.61914 98.6152 2.61621 98.6328 2.61621C98.7031 2.61621 98.7383 2.63965 98.7383 2.68652V2.7041C98.709 3.02637 98.6621 3.47461 98.5977 4.04883C98.5391 4.62305 98.4717 5.27344 98.3955 6H100.751C100.798 6 100.842 6.01758 100.883 6.05273C100.93 6.08203 100.953 6.13477 100.953 6.21094C100.953 6.24023 100.918 6.3457 100.848 6.52734C100.777 6.70898 100.678 6.94629 100.549 7.23926L100.232 7.95117C100.191 8.03906 100.147 8.10352 100.101 8.14453C100.06 8.18555 99.9717 8.21191 99.8369 8.22363H98.2021ZM106.771 5.19141C107.328 5.19141 107.832 5.29688 108.283 5.50781C108.74 5.71289 109.13 5.98242 109.452 6.31641C109.78 6.64453 110.032 7.01367 110.208 7.42383C110.384 7.83398 110.472 8.24414 110.472 8.6543C110.472 9.01758 110.36 9.38379 110.138 9.75293C109.915 10.1162 109.602 10.4443 109.197 10.7373C108.799 11.0303 108.318 11.2676 107.756 11.4492C107.193 11.6309 106.575 11.7217 105.901 11.7217C105.55 11.7217 105.181 11.6865 104.794 11.6162C104.817 11.8682 104.891 12.085 105.014 12.2666C105.137 12.4482 105.292 12.5977 105.479 12.7148C105.667 12.832 105.878 12.9199 106.112 12.9785C106.353 13.0312 106.599 13.0576 106.851 13.0576C107.132 13.0576 107.401 13.0342 107.659 12.9873C107.923 12.9346 108.175 12.8672 108.415 12.7852C108.655 12.7031 108.887 12.6123 109.109 12.5127C109.332 12.4131 109.543 12.3135 109.742 12.2139C109.795 12.2021 109.839 12.1934 109.874 12.1875C109.915 12.1758 109.953 12.1699 109.988 12.1699C109.988 12.1699 109.985 12.2168 109.979 12.3105C109.979 12.4043 109.979 12.5361 109.979 12.7061C109.979 12.876 109.977 13.0811 109.971 13.3213C109.971 13.5615 109.968 13.8281 109.962 14.1211C109.979 14.1504 109.991 14.1797 109.997 14.209C110.003 14.2383 110.006 14.2617 110.006 14.2793C110.006 14.3496 109.941 14.4258 109.812 14.5078C109.684 14.5898 109.514 14.6748 109.303 14.7627C109.098 14.8506 108.86 14.9355 108.591 15.0176C108.327 15.0996 108.058 15.1729 107.782 15.2373C107.507 15.3076 107.24 15.3604 106.982 15.3955C106.725 15.4365 106.499 15.457 106.306 15.457C105.673 15.457 105.058 15.3457 104.46 15.123C103.868 14.9062 103.341 14.5928 102.878 14.1826C102.421 13.7725 102.055 13.2744 101.779 12.6885C101.504 12.1025 101.366 11.4434 101.366 10.7109C101.366 9.94336 101.498 9.22559 101.762 8.55762C102.025 7.88379 102.395 7.29785 102.869 6.7998C103.35 6.30176 103.921 5.90918 104.583 5.62207C105.245 5.33496 105.975 5.19141 106.771 5.19141ZM106.666 7.5293C106.426 7.5293 106.203 7.58203 105.998 7.6875C105.799 7.78711 105.614 7.93359 105.444 8.12695C105.28 8.31445 105.137 8.54297 105.014 8.8125C104.891 9.07617 104.791 9.36914 104.715 9.69141C105.318 9.58594 105.819 9.47461 106.218 9.35742C106.616 9.24023 106.936 9.12305 107.176 9.00586C107.416 8.88281 107.586 8.7627 107.686 8.64551C107.785 8.52246 107.835 8.40527 107.835 8.29395C107.835 8.18848 107.794 8.08887 107.712 7.99512C107.636 7.90137 107.539 7.81934 107.422 7.74902C107.305 7.67871 107.176 7.62598 107.035 7.59082C106.9 7.5498 106.777 7.5293 106.666 7.5293ZM118.224 9.99902C118.241 9.81152 118.259 9.61523 118.276 9.41016C118.3 9.20508 118.326 8.99121 118.355 8.76855C118.221 8.41699 118.03 8.13281 117.784 7.91602C117.538 7.69336 117.23 7.58203 116.861 7.58203C116.498 7.58203 116.19 7.6875 115.938 7.89844C115.687 8.10352 115.484 8.3584 115.332 8.66309C115.18 8.96777 115.068 9.29004 114.998 9.62988C114.934 9.96387 114.901 10.2598 114.901 10.5176C114.901 10.834 114.919 11.1475 114.954 11.458C114.995 11.7686 115.057 12.0498 115.139 12.3018C115.227 12.5537 115.341 12.7588 115.481 12.917C115.622 13.0693 115.798 13.1455 116.009 13.1455C116.524 13.1279 116.943 13.0107 117.266 12.7939C117.588 12.5771 117.846 12.3135 118.039 12.0029L118.224 9.99902ZM121.291 14.1123C121.291 14.124 121.288 14.1387 121.282 14.1562C121.282 14.168 121.282 14.1797 121.282 14.1914C121.282 14.2207 121.282 14.2441 121.282 14.2617C121.288 14.2793 121.291 14.2969 121.291 14.3145C121.291 14.3672 121.271 14.4111 121.229 14.4463C121.194 14.4756 121.098 14.5107 120.939 14.5518L118.584 15.3164C118.52 15.3398 118.435 15.3691 118.329 15.4043C118.224 15.4395 118.121 15.457 118.021 15.457C117.939 15.457 117.866 15.4365 117.802 15.3955C117.743 15.3545 117.714 15.2783 117.714 15.167C117.714 15.0615 117.714 14.9766 117.714 14.9121C117.72 14.8477 117.723 14.7891 117.723 14.7363C117.729 14.6777 117.734 14.6162 117.74 14.5518C117.752 14.4873 117.764 14.4023 117.775 14.2969C117.336 14.6484 116.882 14.9297 116.413 15.1406C115.95 15.3516 115.461 15.457 114.945 15.457C114.383 15.457 113.882 15.3223 113.442 15.0527C113.009 14.7891 112.643 14.4346 112.344 13.9893C112.045 13.5381 111.816 13.0254 111.658 12.4512C111.506 11.8711 111.43 11.2676 111.43 10.6406C111.43 9.82617 111.562 9.08496 111.825 8.41699C112.095 7.74316 112.458 7.16895 112.915 6.69434C113.372 6.21387 113.905 5.84473 114.515 5.58691C115.124 5.32324 115.771 5.19141 116.457 5.19141C116.826 5.19141 117.178 5.28809 117.512 5.48145C117.852 5.6748 118.171 5.92383 118.47 6.22852C118.487 5.94141 118.508 5.63086 118.531 5.29688C118.555 4.95703 118.578 4.61426 118.602 4.26855C118.625 3.91699 118.648 3.57129 118.672 3.23145C118.695 2.8916 118.716 2.58105 118.733 2.2998C118.733 2.24707 118.751 2.20605 118.786 2.17676C118.827 2.1416 118.927 2.10352 119.085 2.0625L121.555 1.47363C121.619 1.46191 121.704 1.43555 121.81 1.39453C121.915 1.35352 122.018 1.33301 122.117 1.33301C122.193 1.33301 122.264 1.35059 122.328 1.38574C122.398 1.4209 122.434 1.48828 122.434 1.58789C122.434 1.59961 122.431 1.62598 122.425 1.66699C122.425 1.70215 122.425 1.72559 122.425 1.7373L121.291 14.1123ZM139.704 3.07324C139.733 2.96777 139.766 2.88281 139.801 2.81836C139.836 2.74805 139.915 2.69824 140.038 2.66895L142.631 2.07129C142.643 2.07129 142.657 2.06836 142.675 2.0625C142.692 2.05664 142.707 2.05371 142.719 2.05371C142.801 2.05371 142.856 2.08887 142.886 2.15918C142.921 2.22949 142.938 2.29688 142.938 2.36133C142.938 2.37305 142.936 2.39648 142.93 2.43164C142.93 2.4668 142.927 2.49023 142.921 2.50195L139.282 13.5586C139.188 13.7988 139.109 13.9951 139.045 14.1475C138.986 14.2939 138.925 14.417 138.86 14.5166C138.802 14.6104 138.731 14.6895 138.649 14.7539C138.573 14.8184 138.468 14.8828 138.333 14.9473C138.204 15.0117 138.04 15.085 137.841 15.167C137.642 15.2549 137.39 15.3721 137.085 15.5186C136.979 15.5713 136.897 15.5977 136.839 15.5977C136.745 15.5977 136.675 15.5625 136.628 15.4922C136.581 15.4219 136.543 15.3428 136.514 15.2549L135.011 9.90234L133.13 13.7783C133.101 13.8486 133.033 13.9424 132.928 14.0596C132.822 14.1768 132.702 14.2969 132.567 14.4199C132.438 14.543 132.307 14.6631 132.172 14.7803C132.043 14.8916 131.938 14.9824 131.855 15.0527C131.779 15.1172 131.697 15.1816 131.609 15.2461C131.527 15.3105 131.442 15.3691 131.354 15.4219C131.267 15.4746 131.182 15.5156 131.1 15.5449C131.023 15.5801 130.95 15.5977 130.88 15.5977C130.728 15.5977 130.628 15.5127 130.581 15.3428L127.171 3.31934C127.159 3.27246 127.145 3.22559 127.127 3.17871C127.115 3.13184 127.109 3.08789 127.109 3.04688C127.109 2.90039 127.145 2.77734 127.215 2.67773C127.285 2.57813 127.408 2.49316 127.584 2.42285C127.76 2.35254 127.994 2.29688 128.287 2.25586C128.58 2.20898 128.952 2.1709 129.403 2.1416C129.614 2.1123 129.79 2.0918 129.931 2.08008C130.077 2.06836 130.2 2.0625 130.3 2.0625C130.47 2.0625 130.581 2.08887 130.634 2.1416C130.687 2.19434 130.733 2.28223 130.774 2.40527L132.585 9.375L134.088 6.79102L133.481 4.14551C133.446 4.00488 133.432 3.89941 133.438 3.8291C133.438 3.69434 133.473 3.58594 133.543 3.50391C133.613 3.42188 133.73 3.35449 133.895 3.30176C134.059 3.24902 134.272 3.20215 134.536 3.16113C134.806 3.12012 135.134 3.07324 135.521 3.02051C135.69 2.99707 135.837 2.97949 135.96 2.96777C136.083 2.95605 136.188 2.9502 136.276 2.9502C136.452 2.9502 136.572 2.97656 136.637 3.0293C136.701 3.08203 136.748 3.16699 136.777 3.28418L137.973 8.69824L139.704 3.07324ZM143.229 11.2734C143.305 10.4707 143.381 9.67676 143.457 8.8916C143.533 8.10645 143.601 7.30078 143.659 6.47461C143.671 6.28125 143.688 6.14941 143.712 6.0791C143.741 6.00293 143.809 5.95312 143.914 5.92969C144.412 5.83008 144.934 5.72754 145.479 5.62207C146.023 5.51074 146.551 5.37012 147.061 5.2002C147.078 5.19434 147.104 5.19141 147.14 5.19141C147.204 5.19141 147.236 5.21484 147.236 5.26172L146.445 13.8223C146.428 14.0156 146.407 14.1504 146.384 14.2266C146.36 14.2969 146.296 14.3438 146.19 14.3672C145.692 14.5195 145.188 14.6895 144.679 14.877C144.169 15.0645 143.63 15.2549 143.062 15.4482C143.044 15.4541 143.018 15.457 142.982 15.457C142.918 15.457 142.886 15.4277 142.886 15.3691C142.886 15.3633 142.892 15.2842 142.903 15.1318C142.915 14.9795 142.93 14.7832 142.947 14.543C142.971 14.3027 142.994 14.0332 143.018 13.7344C143.041 13.4355 143.064 13.1367 143.088 12.8379C143.117 12.5391 143.144 12.252 143.167 11.9766C143.19 11.7012 143.211 11.4668 143.229 11.2734ZM143.888 4.25977C143.905 4.00781 143.917 3.81445 143.923 3.67969C143.935 3.54492 143.943 3.44531 143.949 3.38086C143.955 3.31055 143.958 3.2666 143.958 3.24902C143.958 3.23145 143.958 3.21973 143.958 3.21387C143.964 3.20215 143.967 3.18457 143.967 3.16113C143.973 3.13184 143.979 3.07617 143.984 2.99414C143.99 2.90625 143.999 2.78027 144.011 2.61621C144.022 2.45215 144.04 2.22656 144.063 1.93945C144.075 1.74609 144.093 1.61426 144.116 1.54395C144.146 1.46777 144.213 1.41797 144.318 1.39453C144.816 1.29492 145.338 1.19238 145.883 1.08691C146.428 0.975586 146.955 0.834961 147.465 0.665039C147.482 0.65918 147.509 0.65625 147.544 0.65625C147.562 0.691406 147.585 0.714844 147.614 0.726562L147.641 0.744141L147.447 3.15234C147.43 3.3457 147.406 3.48047 147.377 3.55664C147.354 3.63281 147.292 3.67969 147.192 3.69727C146.694 3.79102 146.19 3.89355 145.681 4.00488C145.171 4.11621 144.632 4.22754 144.063 4.33887C144.046 4.34473 144.02 4.34766 143.984 4.34766C143.92 4.34766 143.888 4.31836 143.888 4.25977ZM153.116 8.22363C153.034 8.83887 152.955 9.4541 152.879 10.0693C152.809 10.6787 152.765 11.25 152.747 11.7832C152.747 12.0117 152.765 12.2021 152.8 12.3545C152.835 12.5068 152.885 12.627 152.949 12.7148C153.02 12.8027 153.102 12.8672 153.195 12.9082C153.289 12.9434 153.395 12.9609 153.512 12.9609C153.699 12.9609 153.904 12.9346 154.127 12.8818C154.35 12.8232 154.572 12.75 154.795 12.6621C154.865 12.6328 154.924 12.6123 154.971 12.6006C155.023 12.583 155.067 12.5742 155.103 12.5742C155.161 12.5742 155.199 12.6006 155.217 12.6533C155.24 12.7061 155.261 12.7998 155.278 12.9346C155.302 13.0635 155.334 13.2393 155.375 13.4619C155.416 13.6846 155.483 13.9658 155.577 14.3057C155.583 14.335 155.586 14.3613 155.586 14.3848C155.592 14.4023 155.595 14.4199 155.595 14.4375C155.595 14.5195 155.562 14.5781 155.498 14.6133C155.439 14.6484 155.34 14.6895 155.199 14.7363C154.959 14.8184 154.704 14.9033 154.435 14.9912C154.171 15.0732 153.907 15.1494 153.644 15.2197C153.386 15.29 153.137 15.3457 152.896 15.3867C152.656 15.4336 152.445 15.457 152.264 15.457C151.285 15.457 150.57 15.2139 150.119 14.7275C149.674 14.2412 149.451 13.5 149.451 12.5039C149.451 12.334 149.457 12.1611 149.469 11.9854C149.48 11.8037 149.495 11.6162 149.513 11.4229C149.571 10.8369 149.621 10.2832 149.662 9.76172C149.709 9.23438 149.756 8.73047 149.803 8.25H148.88C148.563 8.25 148.335 8.23828 148.194 8.21484C148.054 8.18555 147.983 8.12988 147.983 8.04785C147.983 8.02441 148.013 7.96289 148.071 7.86328C148.13 7.75781 148.203 7.63477 148.291 7.49414C148.385 7.34766 148.484 7.19238 148.59 7.02832C148.695 6.86426 148.795 6.71191 148.889 6.57129C148.988 6.4248 149.073 6.29883 149.144 6.19336C149.214 6.08789 149.258 6.02344 149.275 6H149.899C149.952 5.55469 149.993 5.18262 150.022 4.88379C150.058 4.5791 150.084 4.32715 150.102 4.12793C150.125 3.92871 150.146 3.77637 150.163 3.6709C150.181 3.55957 150.198 3.47754 150.216 3.4248C150.239 3.37207 150.266 3.33984 150.295 3.32812C150.33 3.31055 150.374 3.2959 150.427 3.28418C150.69 3.23145 150.945 3.18457 151.191 3.14355C151.438 3.09668 151.684 3.0498 151.93 3.00293C152.176 2.95605 152.425 2.90332 152.677 2.84473C152.935 2.78027 153.201 2.70703 153.477 2.625C153.494 2.625 153.506 2.625 153.512 2.625C153.518 2.61914 153.529 2.61621 153.547 2.61621C153.617 2.61621 153.652 2.63965 153.652 2.68652V2.7041C153.623 3.02637 153.576 3.47461 153.512 4.04883C153.453 4.62305 153.386 5.27344 153.31 6H155.665C155.712 6 155.756 6.01758 155.797 6.05273C155.844 6.08203 155.867 6.13477 155.867 6.21094C155.867 6.24023 155.832 6.3457 155.762 6.52734C155.691 6.70898 155.592 6.94629 155.463 7.23926L155.146 7.95117C155.105 8.03906 155.062 8.10352 155.015 8.14453C154.974 8.18555 154.886 8.21191 154.751 8.22363H153.116ZM157.59 2.2207C157.59 2.18555 157.587 2.15332 157.581 2.12402C157.581 2.09473 157.581 2.06543 157.581 2.03613C157.581 1.9834 157.602 1.93945 157.643 1.9043C157.684 1.86328 157.783 1.82227 157.941 1.78125L160.411 1.19238C160.476 1.18066 160.561 1.1543 160.666 1.11328C160.771 1.07227 160.874 1.05176 160.974 1.05176C161.179 1.05176 161.281 1.14551 161.281 1.33301C161.281 1.34473 161.272 1.46484 161.255 1.69336C161.237 1.92188 161.214 2.20605 161.185 2.5459C161.155 2.88574 161.123 3.25781 161.088 3.66211C161.053 4.06055 161.018 4.44141 160.982 4.80469C160.947 5.16797 160.915 5.4873 160.886 5.7627C160.856 6.03223 160.833 6.20801 160.815 6.29004C161.091 6.1377 161.378 5.99414 161.677 5.85938C161.976 5.72461 162.274 5.60742 162.573 5.50781C162.878 5.4082 163.18 5.33203 163.479 5.2793C163.783 5.2207 164.076 5.19141 164.357 5.19141C164.715 5.19141 165.049 5.24414 165.359 5.34961C165.67 5.44922 165.939 5.61914 166.168 5.85938C166.402 6.09375 166.584 6.4043 166.713 6.79102C166.848 7.17188 166.915 7.64062 166.915 8.19727C166.915 8.33789 166.912 8.48438 166.906 8.63672C166.9 8.7832 166.889 8.93555 166.871 9.09375L166.493 12.6885C166.464 12.9346 166.446 13.1924 166.44 13.4619C166.435 13.7256 166.432 13.998 166.432 14.2793C166.432 14.3262 166.432 14.3672 166.432 14.4023C166.438 14.4316 166.44 14.458 166.44 14.4814C166.44 14.5342 166.417 14.5752 166.37 14.6045C166.329 14.6338 166.232 14.6719 166.08 14.7188L163.927 15.3164C163.862 15.334 163.777 15.3604 163.672 15.3955C163.566 15.4365 163.464 15.457 163.364 15.457C163.265 15.457 163.188 15.4336 163.136 15.3867C163.083 15.3457 163.057 15.2607 163.057 15.1318C163.098 14.6924 163.13 14.3379 163.153 14.0684C163.183 13.7988 163.203 13.585 163.215 13.4268C163.232 13.2627 163.247 13.1396 163.259 13.0576C163.271 12.9697 163.279 12.8936 163.285 12.8291C163.291 12.7588 163.3 12.6826 163.312 12.6006C163.323 12.5127 163.335 12.3867 163.347 12.2227C163.364 12.0586 163.385 11.8418 163.408 11.5723C163.438 11.3027 163.473 10.9482 163.514 10.5088C163.537 10.2744 163.561 10.043 163.584 9.81445C163.613 9.58008 163.628 9.36621 163.628 9.17285C163.628 8.92676 163.613 8.7041 163.584 8.50488C163.561 8.2998 163.514 8.12695 163.443 7.98633C163.379 7.83984 163.288 7.72559 163.171 7.64355C163.054 7.56152 162.904 7.52051 162.723 7.52051C162.588 7.52051 162.403 7.5498 162.169 7.6084C161.94 7.66699 161.709 7.76367 161.475 7.89844C161.246 8.0332 161.041 8.21191 160.859 8.43457C160.684 8.65137 160.584 8.9209 160.561 9.24316C160.514 9.69434 160.476 10.0635 160.446 10.3506C160.423 10.6377 160.402 10.875 160.385 11.0625C160.367 11.25 160.353 11.3994 160.341 11.5107C160.335 11.6221 160.329 11.7246 160.323 11.8184C160.317 11.8477 160.309 11.9209 160.297 12.0381C160.285 12.1494 160.271 12.2842 160.253 12.4424C160.235 12.6006 160.218 12.7705 160.2 12.9521C160.183 13.1279 160.165 13.2949 160.147 13.4531C160.136 13.6113 160.124 13.749 160.112 13.8662C160.106 13.9775 160.104 14.0479 160.104 14.0771C160.104 14.124 160.104 14.165 160.104 14.2002C160.109 14.2295 160.112 14.2588 160.112 14.2881C160.112 14.335 160.089 14.376 160.042 14.4111C160.001 14.4404 159.904 14.4756 159.752 14.5166L157.458 15.3164C157.394 15.3398 157.309 15.3691 157.203 15.4043C157.098 15.4395 156.995 15.457 156.896 15.457C156.808 15.457 156.734 15.4307 156.676 15.3779C156.617 15.3311 156.588 15.249 156.588 15.1318L157.59 2.2207ZM183.21 2.43164C183.198 2.58984 183.178 2.82422 183.148 3.13477C183.119 3.43945 183.084 3.78809 183.043 4.18066C183.008 4.56738 182.97 4.97461 182.929 5.40234C182.888 5.83008 182.847 6.24023 182.806 6.63281C182.771 7.01953 182.738 7.37109 182.709 7.6875C182.68 8.00391 182.659 8.24121 182.647 8.39941C182.524 9.64746 182.313 10.7197 182.015 11.6162C181.722 12.5068 181.335 13.2363 180.854 13.8047C180.374 14.373 179.797 14.7891 179.123 15.0527C178.455 15.3223 177.682 15.457 176.803 15.457C176.199 15.457 175.631 15.3457 175.098 15.123C174.564 14.9062 174.099 14.5986 173.7 14.2002C173.302 13.8018 172.985 13.3242 172.751 12.7676C172.522 12.2051 172.408 11.5811 172.408 10.8955C172.408 10.8076 172.414 10.6494 172.426 10.4209C172.443 10.1865 172.464 9.90234 172.487 9.56836C172.517 9.23438 172.546 8.85645 172.575 8.43457C172.61 8.00684 172.646 7.55273 172.681 7.07227L172.786 5.61328C172.821 5.08008 172.848 4.6377 172.865 4.28613C172.883 3.92871 172.9 3.6416 172.918 3.4248C172.941 3.20801 172.974 3.0498 173.015 2.9502C173.056 2.85059 173.12 2.78613 173.208 2.75684L176.205 2.08887C176.281 2.06543 176.36 2.05371 176.442 2.05371C176.536 2.05371 176.598 2.08008 176.627 2.13281C176.662 2.18555 176.68 2.28516 176.68 2.43164L176.012 9.35742C176 9.5625 175.979 9.78516 175.95 10.0254C175.921 10.2656 175.906 10.5117 175.906 10.7637C175.906 10.916 175.924 11.083 175.959 11.2646C176 11.4463 176.07 11.6191 176.17 11.7832C176.27 11.9414 176.404 12.0762 176.574 12.1875C176.75 12.293 176.976 12.3457 177.251 12.3457C177.585 12.3457 177.854 12.2754 178.06 12.1348C178.265 11.9883 178.429 11.7979 178.552 11.5635C178.675 11.3232 178.763 11.0537 178.815 10.7549C178.874 10.4502 178.921 10.1396 178.956 9.82324C178.985 9.4541 179.021 9.02051 179.062 8.52246C179.103 8.02441 179.144 7.49121 179.185 6.92285L179.439 3.41602C179.451 3.31055 179.457 3.22266 179.457 3.15234C179.463 3.08203 179.472 3.02344 179.483 2.97656C179.495 2.92969 179.519 2.89453 179.554 2.87109C179.595 2.84766 179.656 2.83008 179.738 2.81836L182.735 2.08887C182.812 2.06543 182.891 2.05371 182.973 2.05371C183.055 2.05371 183.113 2.08008 183.148 2.13281C183.189 2.17969 183.21 2.2793 183.21 2.43164ZM184.019 12.5742C184.019 12.5684 184.016 12.5654 184.01 12.5654C184.01 12.5596 184.01 12.5537 184.01 12.5479C184.01 12.4717 184.051 12.4336 184.133 12.4336C184.186 12.4336 184.232 12.4541 184.273 12.4951C184.508 12.7178 184.774 12.8994 185.073 13.04C185.378 13.1807 185.706 13.251 186.058 13.251C186.151 13.251 186.26 13.2422 186.383 13.2246C186.506 13.2012 186.623 13.166 186.734 13.1191C186.846 13.0723 186.937 13.0107 187.007 12.9346C187.083 12.8525 187.121 12.7529 187.121 12.6357C187.121 12.5068 187.089 12.3896 187.024 12.2842C186.96 12.1729 186.875 12.082 186.77 12.0117C186.711 11.9707 186.608 11.9004 186.462 11.8008C186.315 11.6953 186.157 11.584 185.987 11.4668C185.823 11.3496 185.665 11.2383 185.513 11.1328C185.366 11.0273 185.264 10.9512 185.205 10.9043C184.941 10.7051 184.73 10.5029 184.572 10.2979C184.42 10.0928 184.303 9.88184 184.221 9.66504C184.139 9.44238 184.086 9.21094 184.062 8.9707C184.039 8.73047 184.027 8.47559 184.027 8.20605C184.027 7.7959 184.136 7.40918 184.353 7.0459C184.569 6.68262 184.854 6.36328 185.205 6.08789C185.562 5.8125 185.967 5.5957 186.418 5.4375C186.869 5.27344 187.329 5.19141 187.798 5.19141C188.185 5.19141 188.565 5.25 188.94 5.36719C189.315 5.48438 189.664 5.68359 189.986 5.96484C190.016 6.33398 190.036 6.69727 190.048 7.05469C190.06 7.41211 190.077 7.78711 190.101 8.17969C190.101 8.25586 190.083 8.30859 190.048 8.33789C190.013 8.36133 189.972 8.37305 189.925 8.37305C189.884 8.37305 189.849 8.3584 189.819 8.3291C189.685 8.2002 189.547 8.07422 189.406 7.95117C189.266 7.82227 189.116 7.71094 188.958 7.61719C188.806 7.51758 188.642 7.43848 188.466 7.37988C188.29 7.31543 188.103 7.2832 187.903 7.2832C187.78 7.2832 187.657 7.29492 187.534 7.31836C187.411 7.33594 187.3 7.37402 187.2 7.43262C187.101 7.48535 187.019 7.55859 186.954 7.65234C186.896 7.74609 186.866 7.86621 186.866 8.0127C186.866 8.18262 186.887 8.3291 186.928 8.45215C186.969 8.5752 187.065 8.69531 187.218 8.8125L188.853 9.91992C189.151 10.125 189.392 10.3271 189.573 10.5264C189.761 10.7197 189.907 10.9131 190.013 11.1064C190.118 11.2998 190.188 11.4932 190.224 11.6865C190.265 11.874 190.285 12.0615 190.285 12.249C190.285 12.7764 190.162 13.2422 189.916 13.6465C189.676 14.0449 189.362 14.3789 188.976 14.6484C188.589 14.9121 188.149 15.1113 187.657 15.2461C187.171 15.3867 186.682 15.457 186.189 15.457C185.814 15.457 185.451 15.416 185.1 15.334C184.754 15.2578 184.432 15.1377 184.133 14.9736L184.019 12.5742ZM198.902 10.662L198.542 3.678L198.488 1.536H200.486L200.432 3.678L200.072 10.662H198.902ZM199.496 15.09C198.848 15.09 198.326 14.64 198.326 13.92C198.326 13.2 198.848 12.714 199.496 12.714C200.126 12.714 200.648 13.2 200.648 13.92C200.648 14.64 200.126 15.09 199.496 15.09Z" fill="white" fill-opacity="0.5"/>
</svg>
