<svg width="190" height="56" viewBox="0 0 190 56" fill="none" xmlns="http://www.w3.org/2000/svg">
<path fill-rule="evenodd" clip-rule="evenodd" d="M7.51749 0H182.517C186.379 0.0115318 189.506 3.13879 189.517 7V49C189.506 52.8612 186.379 55.9885 182.517 56H7.51749C3.65628 55.9885 0.529018 52.8612 0.517487 49V7C0.529018 3.13879 3.65628 0.0115318 7.51749 0ZM188.397 7C188.397 3.75256 185.765 1.12 182.517 1.12H7.51748C4.27005 1.12 1.63749 3.75256 1.63749 7V49C1.63749 52.2474 4.27005 54.88 7.51748 54.88H182.517C185.765 54.88 188.397 52.2474 188.397 49V7ZM66.9615 13.566H62.6355V14.854H65.6735C65.6244 15.4037 65.3928 15.9212 65.0155 16.324C64.423 16.9168 63.6134 17.2407 62.7755 17.22C60.9971 17.22 59.5555 15.7784 59.5555 14C59.5555 12.2217 60.9971 10.78 62.7755 10.78C63.6131 10.734 64.4231 11.0871 64.9595 11.732L65.0715 11.844L65.9955 10.906L65.9255 10.808C65.5514 10.3815 65.0811 10.0504 64.5535 9.84201C63.9935 9.59563 63.3873 9.47154 62.7755 9.47801C60.2781 9.47801 58.2535 11.5026 58.2535 14C58.2535 16.4974 60.2781 18.522 62.7755 18.522C63.9668 18.5631 65.1204 18.1006 65.9535 17.248C66.7003 16.4675 67.0949 15.4152 67.0455 14.336C67.0423 14.115 67.0188 13.8948 66.9755 13.678L66.9615 13.566ZM73.4995 18.34H68.3055V9.65999H73.4995V10.976H69.6775V13.356H73.1215V14.644H69.6775V17.024H73.4995V18.34ZM74.3401 10.976H76.6921V18.34H78.0501V10.976H80.3881V9.65999H74.3401V10.976ZM85.6515 18.34H84.2935V9.65999H85.6515V18.34ZM86.7295 10.976H89.0815V18.34H90.4395V10.976H92.7775V9.65999H86.7295V10.976ZM97.313 10.794C98.1377 9.92445 99.2929 9.44608 100.491 9.47798C101.688 9.45153 102.841 9.92902 103.669 10.794C105.368 12.5937 105.368 15.4063 103.669 17.206C101.914 18.9606 99.0684 18.9606 97.313 17.206C95.6141 15.4063 95.6141 12.5937 97.313 10.794ZM100.492 17.22C99.6687 17.2335 98.8773 16.9038 98.3075 16.31C97.1129 15.0017 97.1129 12.9983 98.3075 11.69C98.8856 11.1086 99.6717 10.7818 100.492 10.7818C101.311 10.7818 102.097 11.1086 102.676 11.69C103.87 12.9983 103.87 15.0017 102.676 16.31C102.106 16.9038 101.314 17.2335 100.492 17.22ZM111.58 14.714V9.65999H112.938V18.34H111.594L111.552 18.27L107.506 11.788L107.548 12.964V18.34H106.19V9.65999H107.716L111.608 15.904L111.58 14.714ZM95.914 30.45C92.6259 30.4616 89.9691 33.1352 89.9781 36.4233C89.9871 39.7114 92.6586 42.3704 95.9467 42.364C99.2348 42.3575 101.896 39.6881 101.892 36.4C101.915 34.81 101.292 33.2787 100.165 32.1569C99.0382 31.0351 97.5039 30.4191 95.914 30.45ZM92.3999 37.9657C93.0399 39.3046 94.4333 40.1161 95.9135 40.012C96.8424 39.9912 97.7234 39.5958 98.3562 38.9155C98.989 38.2352 99.3199 37.3279 99.2735 36.4C99.2704 34.9161 98.3604 33.5849 96.9789 33.0434C95.5973 32.5018 94.0251 32.8599 93.0144 33.9464C92.0037 35.0329 91.76 36.6269 92.3999 37.9657ZM82.8655 30.45C79.5774 30.4616 76.9205 33.1352 76.9295 36.4233C76.9386 39.7114 79.61 42.3704 82.8982 42.364C86.1863 42.3575 88.8474 39.6881 88.8435 36.4C88.8646 34.8107 88.2406 33.2807 87.1141 32.1595C85.9876 31.0382 84.4547 30.4214 82.8655 30.45ZM79.3515 37.9657C79.9914 39.3046 81.3848 40.1161 82.8651 40.012C83.7939 39.9912 84.6749 39.5958 85.3077 38.9155C85.9406 38.2352 86.2714 37.3279 86.2251 36.4C86.222 34.9161 85.312 33.5849 83.9304 33.0434C82.5489 32.5018 80.9767 32.8599 79.966 33.9464C78.9553 35.0329 78.7116 36.6269 79.3515 37.9657ZM67.3542 32.284V34.804H73.4022C73.3152 35.9875 72.8318 37.1071 72.0302 37.982C70.8034 39.2322 69.1041 39.9037 67.3542 39.83C63.6428 39.83 60.6342 36.8214 60.6342 33.11C60.6342 29.3987 63.6428 26.39 67.3542 26.39C69.0537 26.369 70.6932 27.0177 71.9182 28.196L73.6962 26.418C72.0105 24.7508 69.7247 23.8325 67.3542 23.87C64.0122 23.8119 60.8989 25.5615 59.2108 28.4464C57.5228 31.3314 57.5228 34.9026 59.2108 37.7876C60.8989 40.6725 64.0122 42.4222 67.3542 42.364C69.7766 42.4617 72.1252 41.5191 73.8082 39.774C75.2795 38.1597 76.063 36.0351 75.9922 33.852C75.9972 33.3266 75.955 32.8019 75.8662 32.284H67.3542ZM125.692 30.45C128.02 30.5137 130.059 32.0314 130.788 34.244L131.068 34.916L123.102 38.206C123.597 39.3463 124.743 40.0641 125.986 40.012C127.181 40.0174 128.291 39.3957 128.912 38.374L130.942 39.718C129.491 41.9003 126.78 42.8711 124.274 42.1058C121.767 41.3404 120.061 39.0203 120.078 36.4C119.999 34.8574 120.554 33.3496 121.614 32.2261C122.674 31.1026 124.147 30.461 125.692 30.45ZM122.667 36.232C122.611 35.3536 122.909 34.4892 123.497 33.8335C124.084 33.1778 124.91 32.7859 125.789 32.746C126.712 32.687 127.58 33.1899 127.987 34.02L122.667 36.232ZM118.818 42H116.2V24.5H118.818V42ZM111.916 31.78H111.818C111.013 30.9046 109.87 30.4197 108.682 30.45C105.492 30.5884 102.977 33.2145 102.977 36.407C102.977 39.5996 105.492 42.2257 108.682 42.364C109.876 42.3983 111.025 41.9009 111.818 41.006H111.916V41.86C111.916 44.142 110.698 45.36 108.738 45.36C107.398 45.3317 106.209 44.4964 105.728 43.246L103.46 44.184C104.33 46.3301 106.422 47.7282 108.738 47.712C111.804 47.712 114.394 45.906 114.394 41.51V30.814H111.916V31.78ZM105.605 36.407C105.605 38.2824 107.038 39.8472 108.906 40.012C110.729 39.7902 112.099 38.243 112.099 36.407C112.099 34.571 110.729 33.0238 108.906 32.802C107.038 32.9668 105.605 34.5315 105.605 36.407ZM143.052 24.5H136.78V42H139.398V35.364H143.052C145.064 35.476 146.974 34.4659 148.014 32.739C149.054 31.0122 149.054 28.8518 148.014 27.125C146.974 25.3982 145.064 24.3881 143.052 24.5ZM139.398 32.928H143.108C144.2 32.9614 145.224 32.3977 145.78 31.457C146.335 30.5163 146.335 29.3476 145.78 28.4069C145.224 27.4662 144.2 26.9026 143.108 26.936H139.398V32.928ZM159.264 30.422C157.315 30.3026 155.482 31.3538 154.602 33.096L156.912 34.062C157.388 33.2023 158.326 32.7033 159.306 32.788C160.684 32.6578 161.91 33.6644 162.05 35.042V35.21C161.208 34.7673 160.271 34.5366 159.32 34.538C156.828 34.538 154.28 35.91 154.28 38.486C154.329 39.5804 154.82 40.6079 155.641 41.3335C156.461 42.0592 157.541 42.4209 158.634 42.336C159.974 42.4079 161.249 41.7492 161.966 40.614H162.05V41.972H164.57V35.266C164.57 32.158 162.246 30.422 159.264 30.422ZM156.898 38.528C157.069 39.4919 157.972 40.1476 158.942 40.012C160.526 39.998 161.855 38.8126 162.05 37.24C161.323 36.8346 160.501 36.6315 159.67 36.652C158.382 36.652 156.898 37.17 156.898 38.528ZM173.753 30.8L170.757 38.388H170.673L167.565 30.8H164.751L169.413 41.412L166.753 47.306H169.483L176.665 30.8H173.753ZM152.838 42H150.234V24.5H152.838V42ZM14.475 28.084V13.146C14.4608 12.7162 14.4748 12.2859 14.517 11.858C14.5152 11.3778 14.7648 10.9316 15.175 10.682C15.5513 10.5252 15.756 10.8055 15.952 11.0741L15.952 11.0741C16.0186 11.1653 16.0841 11.2551 16.155 11.326L32.283 27.874C32.5724 28.0449 32.7476 28.3581 32.7418 28.6941C32.736 29.0302 32.5501 29.3372 32.255 29.498C28.9991 32.7626 25.7541 36.0437 22.5099 39.3241L22.5091 39.3249L22.5082 39.3257L22.5074 39.3266C20.5631 41.2925 18.619 43.2582 16.673 45.22C15.721 46.172 14.895 45.962 14.559 44.632C14.4865 44.2114 14.463 43.7839 14.489 43.358C14.475 38.262 14.475 33.18 14.475 28.084ZM17.8635 10.64C17.5179 10.3529 17.0808 10.1989 16.6315 10.206C16.6369 10.27 16.656 10.3321 16.6875 10.388C22.2222 16.1 27.7475 21.812 33.2635 27.524C33.6975 27.986 33.9635 27.776 34.2995 27.44C34.6873 27.0481 35.0714 26.6538 35.455 26.26L35.4551 26.2599L35.4551 26.2599L35.4553 26.2597L35.4555 26.2595C36.3738 25.3168 37.2898 24.3765 38.2475 23.478C38.9755 22.806 38.8355 22.498 38.0375 22.05C33.5962 19.5569 29.167 17.0456 24.7339 14.532C22.4456 13.2345 20.1562 11.9365 17.8635 10.64ZM21.6431 41.8504L21.6557 41.8375L21.6559 41.8373C25.4582 37.9507 29.1893 34.1367 32.8849 30.296C33.5989 29.568 33.9909 29.568 34.6489 30.31C35.5936 31.3878 36.5936 32.4158 37.6449 33.39C38.2749 33.992 38.3169 34.286 37.4629 34.748C33.6323 36.8418 29.8216 38.9622 26.0126 41.0817L26.0078 41.0844C24.2917 42.0393 22.576 42.994 20.8589 43.946C20.2459 44.4215 19.5152 44.7216 18.7449 44.814C19.7159 43.8204 20.6817 42.8331 21.6431 41.8504ZM46.4101 29.694C46.951 29.4094 47.2903 28.8492 47.2921 28.238C47.2386 27.5664 46.8185 26.9794 46.2001 26.712L46.1996 26.7118C44.3378 25.6618 42.4759 24.6119 40.6281 23.52C40.4432 23.3841 40.2114 23.3282 39.9849 23.3651C39.7584 23.402 39.5563 23.5284 39.4241 23.716C37.9494 25.228 36.4654 26.726 34.9721 28.21C34.7877 28.3227 34.6741 28.5221 34.6713 28.7381C34.6684 28.9542 34.7767 29.1566 34.9581 29.274C36.2461 30.562 37.5061 31.878 38.7661 33.194C38.8678 33.3634 39.0328 33.4853 39.2247 33.5326C39.4165 33.5799 39.6193 33.5487 39.7881 33.446C41.0229 32.7382 42.2621 32.0391 43.5033 31.339C44.4714 30.7929 45.4408 30.2462 46.4101 29.694Z" fill="#0C0C0D"/>
</svg>
