<svg width="189" height="56" viewBox="0 0 189 56" fill="none" xmlns="http://www.w3.org/2000/svg">
<path fill-rule="evenodd" clip-rule="evenodd" d="M182 0H7C3.13879 0.0115318 0.0115318 3.13879 0 7V49C0.0115318 52.8612 3.13879 55.9885 7 56H182C185.861 55.9885 188.988 52.8612 189 49V7C188.988 3.13879 185.861 0.0115318 182 0ZM182 1.12C185.247 1.12 187.88 3.75256 187.88 7V49C187.88 52.2474 185.247 54.88 182 54.88H6.99996C3.75253 54.88 1.11996 52.2474 1.11996 49V7C1.11996 3.75256 3.75253 1.12 6.99996 1.12H182ZM46.0046 21.378C43.6326 22.8376 42.1741 25.4111 42.1406 28.196C42.1475 31.3417 44.0319 34.1794 46.9286 35.406C46.3733 37.2173 45.532 38.9282 44.4366 40.474C42.9806 42.672 41.4406 44.814 38.9906 44.856C37.8325 44.8834 37.0501 44.5486 36.2345 44.1995C35.3839 43.8355 34.4972 43.456 33.1106 43.456C31.6387 43.456 30.7106 43.8468 29.8141 44.2242C29.0395 44.5504 28.2885 44.8666 27.2306 44.912C24.9066 44.996 23.1286 42.574 21.6166 40.39C18.5786 35.952 16.2126 27.888 19.3766 22.386C20.8675 19.7119 23.6525 18.0165 26.7126 17.92C28.0416 17.8882 29.3118 18.3992 30.4229 18.8462C31.2664 19.1855 32.0183 19.488 32.6346 19.488C33.1787 19.488 33.9152 19.1962 34.7743 18.8559C36.1257 18.3204 37.7805 17.6648 39.4666 17.836C42.0805 17.9271 44.5006 19.2382 46.0046 21.378ZM37.66 14.924C38.9978 13.3293 39.6564 11.2732 39.494 9.19802C37.4586 9.40362 35.5771 10.3744 34.23 11.914C32.8987 13.4316 32.224 15.4154 32.354 17.43C34.4132 17.4518 36.3687 16.5282 37.66 14.924ZM71.8895 44.604H75.0675L69.0475 25.97H65.3375L59.3455 44.604H62.4395L64.0915 39.13H70.1535L71.8895 44.604ZM69.622 36.834L68.054 31.962C67.886 31.472 67.564 30.296 67.102 28.448H67.046C66.864 29.246 66.57 30.422 66.164 31.962L64.624 36.834H69.622ZM88.6346 43.134C89.9379 41.6398 90.6061 39.6957 90.4966 37.716C90.5807 35.9254 90.0137 34.165 88.9006 32.76C87.8163 31.4809 86.1916 30.7891 84.5181 30.8938C82.8446 30.9986 81.3188 31.8877 80.4026 33.292H80.3466L80.1786 31.164H77.5606C77.6306 32.676 77.6726 34.146 77.6726 35.588V50.078H80.6546V42.994H80.7106C81.5252 44.2895 82.9934 45.0236 84.5186 44.898C86.0806 44.9305 87.5808 44.2875 88.6346 43.134ZM87.4585 37.828C87.5096 36.6823 87.1959 35.55 86.5625 34.594C85.979 33.7419 85.005 33.2417 83.9725 33.264C83.2404 33.2642 82.5317 33.5219 81.9705 33.992C81.3684 34.482 80.9532 35.1641 80.7945 35.924C80.7091 36.2201 80.6621 36.5259 80.6545 36.834V39.074C80.6291 39.9794 80.9495 40.8604 81.5505 41.538C82.1399 42.2067 82.9977 42.5765 83.8885 42.546C84.9231 42.5881 85.9085 42.1033 86.5065 41.258C87.1806 40.245 87.5141 39.0435 87.4585 37.828ZM104.09 43.134C105.383 41.6346 106.045 39.6929 105.938 37.716C106.026 35.9272 105.464 34.1669 104.356 32.76C103.271 31.4809 101.647 30.7891 99.9731 30.8938C98.2995 30.9986 96.7738 31.8877 95.8576 33.292H95.8016L95.6335 31.164H93.0015C93.0855 32.676 93.1135 34.146 93.1135 35.588V50.078H96.1096V42.994H96.1656C96.9802 44.2895 98.4484 45.0236 99.9735 44.898C101.536 44.9305 103.036 44.2875 104.09 43.134ZM102.901 37.828C102.949 36.6846 102.641 35.5543 102.019 34.594C101.432 33.7386 100.452 33.2382 99.4146 33.264C98.6834 33.2689 97.9762 33.526 97.4126 33.992C96.8151 34.4859 96.401 35.1664 96.2366 35.924C96.1617 36.2218 96.1194 36.527 96.1106 36.834V39.074C96.0853 39.9793 96.4056 40.8604 97.0066 41.538C97.5943 42.209 98.4532 42.5793 99.3446 42.546C100.379 42.585 101.363 42.1008 101.963 41.258C102.632 40.2434 102.96 39.0419 102.901 37.828ZM121.562 43.246C122.662 42.2634 123.268 40.842 123.214 39.368C123.259 38.192 122.859 37.0422 122.094 36.148C121.104 35.129 119.892 34.3528 118.552 33.88C117.575 33.5482 116.658 33.0613 115.836 32.438C115.288 31.9937 114.974 31.3233 114.982 30.618C114.972 29.9696 115.249 29.3499 115.738 28.924C116.434 28.3782 117.305 28.1045 118.188 28.154C119.431 28.1307 120.66 28.4246 121.758 29.008L122.5 26.572C121.182 25.9413 119.732 25.6386 118.272 25.69C116.622 25.6071 114.999 26.1299 113.708 27.16C112.595 28.0896 111.966 29.476 112 30.926C112 33.264 113.624 35.056 116.886 36.274C117.833 36.5692 118.71 37.0552 119.462 37.702C119.972 38.208 120.251 38.9019 120.232 39.62C120.261 40.4076 119.912 41.1616 119.294 41.65C118.531 42.2017 117.602 42.4736 116.662 42.42C115.143 42.4256 113.651 42.014 112.35 41.23L111.664 43.708C113.129 44.5501 114.806 44.9535 116.494 44.87C118.327 44.9812 120.135 44.4018 121.562 43.246ZM133.084 33.404H129.794V39.928C129.794 41.58 130.382 42.42 131.544 42.42C131.986 42.4251 132.428 42.3781 132.86 42.28L132.944 44.548C132.197 44.7839 131.416 44.8928 130.634 44.87C129.598 44.9262 128.588 44.5334 127.862 43.792C127.098 42.7455 126.745 41.4555 126.868 40.166V33.404H124.908V31.164H126.868V28.7L129.794 27.818V31.164H133.084V33.404ZM146.16 42.854C147.37 41.4436 148.005 39.6292 147.938 37.772C148.016 35.9737 147.399 34.2143 146.216 32.858C144.997 31.5313 143.256 30.8091 141.456 30.884C139.616 30.8012 137.834 31.5336 136.584 32.886C135.347 34.2934 134.7 36.1237 134.778 37.996C134.715 39.8054 135.341 41.5713 136.528 42.938C137.73 44.262 139.46 44.9807 141.246 44.898C143.106 44.9799 144.907 44.231 146.16 42.854ZM144.83 37.87C144.869 36.7521 144.593 35.6457 144.032 34.678C143.526 33.6698 142.485 33.0431 141.358 33.068C140.211 33.04 139.148 33.6637 138.614 34.678C138.055 35.6673 137.779 36.7907 137.816 37.926C137.784 39.0386 138.06 40.1382 138.614 41.104C139.143 42.1103 140.193 42.733 141.33 42.714C142.459 42.7189 143.495 42.0847 144.004 41.076C144.577 40.1072 144.864 38.9953 144.83 37.87ZM156.688 33.712C157.007 33.7129 157.325 33.7362 157.64 33.782V30.94C157.389 30.9053 157.137 30.8866 156.884 30.884C156.105 30.8853 155.348 31.1409 154.728 31.612C154.039 32.1638 153.524 32.9027 153.244 33.74H153.16L153.048 31.164H150.444C150.528 32.438 150.556 33.852 150.556 35.392L150.528 44.604H153.51V37.548C153.474 36.608 153.738 35.6809 154.266 34.902C154.813 34.1135 155.729 33.6635 156.688 33.712ZM170.981 37.24C170.994 37.6954 170.956 38.1508 170.869 38.598H161.923C161.876 39.7553 162.355 40.8718 163.225 41.636C164.055 42.2924 165.095 42.6256 166.151 42.574C167.389 42.5887 168.618 42.3751 169.777 41.944L170.239 44.016C168.81 44.6012 167.275 44.8825 165.731 44.842C163.913 44.9475 162.134 44.2817 160.831 43.008C159.596 41.6729 158.95 39.8967 159.039 38.08C158.975 36.2464 159.566 34.4498 160.705 33.012C161.84 31.5925 163.579 30.7931 165.395 30.856C167.139 30.7643 168.807 31.5795 169.805 33.012C170.62 34.2682 171.03 35.7436 170.981 37.24ZM167.552 34.174C167.97 34.8648 168.174 35.6635 168.14 36.47H161.924C161.986 35.6262 162.293 34.8187 162.806 34.146C163.342 33.3704 164.229 32.9134 165.172 32.928C166.135 32.8686 167.052 33.3485 167.552 34.174ZM68.6425 14.504C68.7388 15.9062 68.1928 17.2763 67.1585 18.228C66.0336 19.0612 64.6494 19.468 63.2525 19.376C62.5368 19.3867 61.8212 19.3493 61.1105 19.264V10.262C61.949 10.1341 62.7964 10.0733 63.6445 10.08C64.9371 9.99087 66.2201 10.3574 67.2705 11.116C68.2141 11.9815 68.7179 13.2258 68.6425 14.504ZM66.2288 12.0768C66.8791 12.7243 67.1958 13.6347 67.088 14.546C67.1564 15.5428 66.8237 16.5256 66.164 17.276C65.4705 17.9382 64.5307 18.2786 63.574 18.214C63.2421 18.2217 62.9101 18.2076 62.58 18.172V11.326C62.9675 11.2526 63.3617 11.2197 63.756 11.228C64.6669 11.1163 65.5785 11.4293 66.2288 12.0768ZM76.8314 15.946C76.8721 16.8572 76.5614 17.7493 75.9634 18.438C75.3492 19.1136 74.4676 19.4826 73.5554 19.446C72.6753 19.4872 71.8229 19.1329 71.2314 18.48C70.6508 17.8096 70.3457 16.9443 70.3774 16.058C70.3416 15.1366 70.6568 14.236 71.2594 13.538C71.8789 12.8816 72.7514 12.5244 73.6534 12.558C74.537 12.5196 75.3925 12.8731 75.9914 13.524C76.5676 14.1961 76.8677 15.0615 76.8314 15.946ZM74.928 14.42C75.195 14.8988 75.3303 15.4399 75.32 15.988C75.3325 16.5426 75.192 17.09 74.914 17.57C74.6602 18.0623 74.1518 18.3706 73.598 18.368C73.0408 18.3839 72.5238 18.0792 72.268 17.584C71.9885 17.1097 71.8478 16.5664 71.862 16.016C71.8459 15.4566 71.9865 14.9038 72.268 14.42C72.5358 13.9364 73.0451 13.6363 73.598 13.6363C74.1508 13.6363 74.6601 13.9364 74.928 14.42ZM87.8359 12.698L85.7779 19.292H84.4339L83.5659 16.436C83.3537 15.7322 83.1808 15.017 83.0479 14.294H83.0199C82.8922 15.0194 82.7145 15.7351 82.4879 16.436L81.5779 19.292H80.2199L78.2739 12.698H79.7859L80.5279 15.834C80.7099 16.576 80.8639 17.29 80.9759 17.948H81.0039C81.1159 17.402 81.2979 16.702 81.5499 15.848L82.4879 12.698H83.6779L84.5739 15.778C84.7979 16.534 84.9659 17.262 85.1059 17.962H85.1479C85.2584 17.2266 85.4079 16.4975 85.5959 15.778L86.3939 12.698H87.8359ZM93.982 19.292H95.438V15.344C95.4979 14.5429 95.2243 13.7526 94.682 13.16C94.2733 12.756 93.7163 12.5383 93.142 12.558C92.6718 12.5556 92.2106 12.6867 91.812 12.936C91.4924 13.1286 91.2311 13.4044 91.056 13.734H91.014L90.944 12.698H89.656C89.698 13.37 89.712 14 89.712 14.588V19.292H91.182V15.386C91.1773 14.9716 91.3213 14.5692 91.588 14.252C91.8475 13.934 92.242 13.7575 92.652 13.776C93.534 13.776 93.982 14.35 93.982 15.512V19.292ZM99.4834 19.292H98.0274V9.67402H99.4834V19.292ZM107.254 18.438C107.852 17.7493 108.163 16.8572 108.122 15.946C108.158 15.0615 107.858 14.1961 107.282 13.524C106.683 12.8731 105.828 12.5196 104.944 12.558C104.042 12.5244 103.169 12.8816 102.55 13.538C101.947 14.236 101.632 15.1366 101.668 16.058C101.636 16.9443 101.941 17.8096 102.522 18.48C103.114 19.1329 103.966 19.4872 104.846 19.446C105.758 19.4826 106.64 19.1136 107.254 18.438ZM106.597 15.988C106.614 15.4391 106.478 14.8963 106.205 14.42C105.956 13.9312 105.451 13.6269 104.903 13.636C104.338 13.6183 103.812 13.922 103.545 14.42C103.274 14.9076 103.139 15.4586 103.153 16.016C103.14 16.5643 103.276 17.1059 103.545 17.584C103.809 18.0778 104.329 18.381 104.889 18.368C105.44 18.3738 105.946 18.0638 106.191 17.57C106.475 17.0926 106.616 16.5434 106.597 15.988ZM113.905 19.292H115.235C115.158 18.773 115.125 18.2485 115.137 17.724V15.288C115.259 14.5584 115.032 13.8135 114.523 13.2768C114.013 12.7401 113.282 12.4739 112.547 12.558C111.752 12.534 110.966 12.7328 110.279 13.132L110.573 14.098C111.087 13.7707 111.685 13.6004 112.295 13.608C112.662 13.5443 113.037 13.6579 113.308 13.9144C113.578 14.1709 113.711 14.54 113.667 14.91V15.036C112.678 14.967 111.691 15.1858 110.825 15.666C110.176 16.045 109.789 16.7497 109.817 17.5C109.798 17.9974 109.98 18.4814 110.321 18.844C110.717 19.2496 111.266 19.4683 111.833 19.446C112.588 19.4838 113.313 19.1425 113.765 18.536H113.807L113.905 19.292ZM113.708 17.024V16.016C112.084 15.988 111.272 16.422 111.272 17.346C111.253 17.6306 111.355 17.9101 111.552 18.116C111.755 18.2874 112.014 18.3772 112.28 18.368C112.602 18.3672 112.916 18.2642 113.176 18.074C113.438 17.8867 113.618 17.6062 113.68 17.29C113.699 17.2026 113.708 17.1134 113.708 17.024ZM122.262 19.292H123.564C123.522 18.76 123.508 18.158 123.508 17.514V9.67402H122.038V13.454H122.01C121.609 12.8342 120.897 12.4888 120.162 12.558C119.377 12.5477 118.629 12.8862 118.118 13.482C117.523 14.2154 117.219 15.1425 117.264 16.086C117.226 16.9613 117.504 17.821 118.048 18.508C118.529 19.1127 119.264 19.4594 120.036 19.446C120.919 19.5099 121.754 19.0345 122.15 18.242H122.192L122.262 19.292ZM122.038 16.52V15.414C122.038 15.2596 122.029 15.1053 122.01 14.952C121.928 14.6099 121.743 14.3017 121.478 14.07C121.211 13.8267 120.859 13.6962 120.498 13.706C119.983 13.685 119.492 13.9277 119.196 14.35C118.871 14.8485 118.71 15.4356 118.734 16.03C118.705 16.5923 118.862 17.1485 119.182 17.612C119.473 18.0348 119.957 18.2823 120.47 18.27C120.918 18.2822 121.345 18.0793 121.618 17.724C121.904 17.3894 122.054 16.9597 122.038 16.52ZM135.241 18.438C135.839 17.7493 136.149 16.8572 136.109 15.946C136.145 15.0615 135.845 14.1961 135.269 13.524C134.67 12.8731 133.814 12.5196 132.931 12.558C132.029 12.5244 131.156 12.8816 130.537 13.538C129.934 14.236 129.619 15.1366 129.655 16.058C129.623 16.9443 129.928 17.8096 130.509 18.48C131.1 19.1329 131.952 19.4872 132.833 19.446C133.745 19.4826 134.626 19.1136 135.241 18.438ZM134.595 15.988C134.606 15.4399 134.471 14.8988 134.203 14.42C133.946 13.9327 133.438 13.6301 132.887 13.636C132.324 13.6251 131.802 13.927 131.529 14.42C131.259 14.9077 131.124 15.4586 131.137 16.016C131.125 16.5644 131.261 17.1059 131.529 17.584C131.797 18.0703 132.309 18.3712 132.864 18.3683C133.419 18.3654 133.927 18.0591 134.189 17.57C134.468 17.09 134.608 16.5426 134.595 15.988ZM142.535 19.292H144.005V15.344C144.065 14.5429 143.791 13.7526 143.249 13.16C142.839 12.7583 142.282 12.5409 141.709 12.558C141.238 12.5518 140.776 12.6832 140.379 12.936C140.059 13.1286 139.798 13.4044 139.623 13.734H139.581L139.511 12.698H138.223C138.251 13.37 138.265 14 138.265 14.588V19.292H139.735V15.386C139.73 14.9716 139.874 14.5692 140.141 14.252C140.404 13.9388 140.796 13.7634 141.205 13.776C142.101 13.776 142.535 14.35 142.535 15.512V19.292ZM153.874 13.804H152.264V17.01C152.264 17.822 152.544 18.228 153.118 18.228C153.339 18.2301 153.56 18.2066 153.776 18.158L153.804 19.264C153.439 19.3883 153.055 19.4452 152.67 19.432C152.16 19.4674 151.662 19.2721 151.312 18.9C150.937 18.3873 150.762 17.7547 150.822 17.122V13.804H149.856V12.698H150.822V11.494L152.264 11.06V12.698H153.874V13.804ZM160.174 19.292H161.644V15.372C161.701 14.5653 161.434 13.7691 160.902 13.16C160.499 12.7643 159.954 12.5473 159.39 12.558C158.578 12.5324 157.816 12.9508 157.402 13.65H157.374V9.67402H155.918V19.292H157.374V15.33C157.372 15.1503 157.395 14.9711 157.444 14.798C157.618 14.1747 158.197 13.7521 158.844 13.776C159.726 13.776 160.174 14.364 160.174 15.54V19.292ZM169.652 15.68C169.658 15.9054 169.639 16.1307 169.596 16.352H165.2C165.176 16.9233 165.413 17.4747 165.844 17.85C166.248 18.1718 166.756 18.3359 167.272 18.312C167.884 18.3172 168.492 18.208 169.064 17.99L169.288 19.012C168.588 19.3017 167.834 19.44 167.076 19.418C166.183 19.4714 165.309 19.1461 164.668 18.522C164.06 17.8661 163.742 16.9931 163.786 16.1C163.751 15.1991 164.039 14.3153 164.598 13.608C165.16 12.9135 166.016 12.5244 166.908 12.558C167.76 12.51 168.576 12.9075 169.064 13.608C169.47 14.2209 169.676 14.9451 169.652 15.68ZM167.972 14.182C168.177 14.5182 168.275 14.9089 168.252 15.302H165.2C165.238 14.8913 165.388 14.4989 165.634 14.168C165.898 13.7798 166.341 13.5529 166.81 13.566C167.281 13.542 167.727 13.7786 167.972 14.182Z" fill="#0C0C0D"/>
</svg>
