<svg width="160" height="160" viewBox="0 0 160 160" fill="none" xmlns="http://www.w3.org/2000/svg">
<g clip-path="url(#clip0_1_685)">
<rect width="160" height="160" rx="20" fill="#F0EDFC"/>
<rect x="16.7033" y="43.1628" width="143.297" height="116.837" fill="#EEF7F7"/>
<g filter="url(#filter0_d_1_685)">
<g clip-path="url(#clip1_1_685)">
<rect x="3.99985" y="14.4338" width="124.317" height="81.0159" rx="10" fill="url(#paint0_linear_1_685)"/>
<path d="M270.5 14.9338L0.499847 189.434H270.5V14.9338Z" fill="#F2A829"/>
<rect x="14" y="21" width="27" height="27" rx="10" fill="#F2A829"/>
<rect x="21.0714" y="28.0714" width="12.8571" height="12.8571" rx="4" fill="url(#paint1_linear_1_685)"/>
<path d="M30.7143 38.7857V33.4285" stroke="#F9F8FE" stroke-width="1.66667" stroke-linecap="round" stroke-linejoin="round"/>
<path d="M27.5 38.7857V30.2143" stroke="#F9F8FE" stroke-width="1.66667" stroke-linecap="round" stroke-linejoin="round"/>
<path d="M24.2857 38.7857V35.5714" stroke="#F9F8FE" stroke-width="1.66667" stroke-linecap="round" stroke-linejoin="round"/>
<path d="M14.7383 65.7705H18.4297C19.5957 65.7705 20.4775 65.8613 21.0752 66.043C21.6787 66.2246 22.165 66.5938 22.5342 67.1504C22.9033 67.7012 23.0879 68.5918 23.0879 69.8223C23.0879 70.6543 22.9561 71.2344 22.6924 71.5625C22.4346 71.8906 21.9219 72.1426 21.1543 72.3184C22.0098 72.5117 22.5898 72.834 22.8945 73.2852C23.1992 73.7305 23.3516 74.416 23.3516 75.3418V76.6602C23.3516 77.6211 23.2402 78.333 23.0176 78.7959C22.8008 79.2588 22.4521 79.5752 21.9717 79.7451C21.4912 79.915 20.5068 80 19.0186 80H14.7383V65.7705ZM18.4385 68.2051V71.3691C18.5967 71.3633 18.7197 71.3604 18.8076 71.3604C19.1709 71.3604 19.4023 71.2725 19.502 71.0967C19.6016 70.915 19.6514 70.4023 19.6514 69.5586C19.6514 69.1133 19.6104 68.8027 19.5283 68.627C19.4463 68.4453 19.3379 68.3311 19.2031 68.2842C19.0742 68.2373 18.8193 68.2109 18.4385 68.2051ZM18.4385 73.584V77.5654C18.96 77.5479 19.291 77.4658 19.4316 77.3193C19.5781 77.1729 19.6514 76.8125 19.6514 76.2383V74.9111C19.6514 74.3018 19.5869 73.9326 19.458 73.8037C19.3291 73.6748 18.9893 73.6016 18.4385 73.584ZM28.2383 65.7705V67.625H24.582V65.7705H28.2383ZM28.2383 68.3369V80H24.582V68.3369H28.2383ZM33.2656 66.7812V68.6182H34.2236V70.4639H33.2656V76.7041C33.2656 77.4717 33.3037 77.8994 33.3799 77.9873C33.4619 78.0752 33.793 78.1191 34.373 78.1191V80H32.9404C32.1318 80 31.5547 79.9678 31.209 79.9033C30.8633 79.833 30.5586 79.6777 30.2949 79.4375C30.0312 79.1914 29.8672 78.9131 29.8027 78.6025C29.7383 78.2861 29.7061 77.5479 29.7061 76.3877V70.4639H28.9414V68.6182H29.7061V66.7812H33.2656ZM49.0332 65.7705L47.3896 80H42.7666C42.3447 77.8145 41.9727 75.3301 41.6504 72.5469C41.5039 73.7363 41.1611 76.2207 40.6221 80H36.0254L34.373 65.7705H37.9678L38.3457 70.7363L38.7324 75.5264C38.8672 73.0479 39.207 69.7959 39.752 65.7705H43.6016C43.6543 66.1865 43.7891 67.751 44.0059 70.4639L44.4102 75.8691C44.6152 72.4297 44.958 69.0635 45.4385 65.7705H49.0332ZM53.3223 65.7705V67.625H49.666V65.7705H53.3223ZM53.3223 68.3369V80H49.666V68.3369H53.3223ZM58.2178 68.3369L58.1562 69.4092C58.4141 68.9814 58.7275 68.6621 59.0967 68.4512C59.4717 68.2344 59.9023 68.126 60.3887 68.126C60.998 68.126 61.4961 68.2695 61.8828 68.5566C62.2695 68.8438 62.5186 69.207 62.6299 69.6465C62.7412 70.0801 62.7969 70.8066 62.7969 71.8262V80H59.2461V71.9229C59.2461 71.1201 59.2197 70.6309 59.167 70.4551C59.1143 70.2793 58.9678 70.1914 58.7275 70.1914C58.4756 70.1914 58.3174 70.2939 58.2529 70.499C58.1885 70.6982 58.1562 71.2373 58.1562 72.1162V80H54.6055V68.3369H58.2178ZM67.3145 65.7705H73.5811V68.6182H71.0146V71.3164H73.2998V74.0234H71.0146V80H67.3145V65.7705ZM82.5107 68.3369V80H78.8984L78.96 79.0332C78.7139 79.4258 78.4092 79.7217 78.0459 79.9209C77.6885 80.1143 77.2754 80.2109 76.8066 80.2109C76.2734 80.2109 75.8311 80.1172 75.4795 79.9297C75.1279 79.7422 74.8672 79.4932 74.6973 79.1826C74.5332 78.8721 74.4307 78.5498 74.3896 78.2158C74.3486 77.876 74.3281 77.2051 74.3281 76.2031V68.3369H77.8789V76.2734C77.8789 77.1816 77.9053 77.7207 77.958 77.8906C78.0166 78.0605 78.1689 78.1455 78.415 78.1455C78.6787 78.1455 78.834 78.0576 78.8809 77.8818C78.9336 77.7061 78.96 77.1406 78.96 76.1855V68.3369H82.5107ZM87.3975 68.3369L87.3359 69.4092C87.5938 68.9814 87.9072 68.6621 88.2764 68.4512C88.6514 68.2344 89.082 68.126 89.5684 68.126C90.1777 68.126 90.6758 68.2695 91.0625 68.5566C91.4492 68.8438 91.6982 69.207 91.8096 69.6465C91.9209 70.0801 91.9766 70.8066 91.9766 71.8262V80H88.4258V71.9229C88.4258 71.1201 88.3994 70.6309 88.3467 70.4551C88.2939 70.2793 88.1475 70.1914 87.9072 70.1914C87.6553 70.1914 87.4971 70.2939 87.4326 70.499C87.3682 70.6982 87.3359 71.2373 87.3359 72.1162V80H83.7852V68.3369H87.3975ZM101.284 65.7705V80H97.7334V79.1562C97.3936 79.5078 97.0361 79.7715 96.6611 79.9473C96.2861 80.123 95.8936 80.2109 95.4834 80.2109C94.9326 80.2109 94.4551 80.0674 94.0508 79.7803C93.6465 79.4873 93.3857 79.1504 93.2686 78.7695C93.1572 78.3887 93.1016 77.7676 93.1016 76.9062V71.4482C93.1016 70.5518 93.1572 69.916 93.2686 69.541C93.3857 69.166 93.6494 68.8379 94.0596 68.5566C94.4697 68.2695 94.959 68.126 95.5273 68.126C95.9668 68.126 96.3682 68.2051 96.7314 68.3633C97.1006 68.5215 97.4346 68.7588 97.7334 69.0752V65.7705H101.284ZM97.7334 71.2725C97.7334 70.8447 97.6953 70.5576 97.6191 70.4111C97.5488 70.2646 97.4053 70.1914 97.1885 70.1914C96.9775 70.1914 96.834 70.2588 96.7578 70.3936C96.6875 70.5225 96.6523 70.8154 96.6523 71.2725V76.9854C96.6523 77.46 96.6875 77.7734 96.7578 77.9258C96.8281 78.0723 96.9629 78.1455 97.1621 78.1455C97.3906 78.1455 97.543 78.0635 97.6191 77.8994C97.6953 77.7295 97.7334 77.3193 97.7334 76.6689V71.2725Z" fill="white"/>
</g>
</g>
<g filter="url(#filter1_d_1_685)">
<rect x="105.502" width="30.7302" height="30.7302" rx="10" fill="white"/>
</g>
<rect x="110.667" y="2.66669" width="5.52701" height="5.48889" fill="#F2A829"/>
<path fill-rule="evenodd" clip-rule="evenodd" d="M110.667 11.042C110.667 9.44789 111.959 8.15558 113.553 8.15558H115.467C112.816 8.15558 110.667 10.3046 110.667 12.9556V11.042ZM110.667 13.2222V17.7963C110.667 23.4317 115.323 28 120.958 28C126.497 28 131.074 23.5099 131.074 17.9711C131.074 12.5501 126.679 8.15558 121.258 8.15558H116.194V13.2222H115.981V13.2222H110.667ZM115.981 13.2222V18.0441C115.981 20.7443 118.17 22.9333 120.87 22.9333C123.571 22.9333 125.76 20.7067 125.76 18.0064C125.76 15.3844 123.634 13.2222 121.012 13.2222H116.194V13.2222H115.981Z" fill="#F2A829"/>
<rect x="137.629" y="38.1799" width="13.037" height="67.0476" rx="6.51852" fill="#F2A829"/>
<path d="M41.7141 121.291H139.725" stroke="#E7ECF3" stroke-width="2" stroke-dasharray="12 12"/>
<path d="M41.7141 139.217H139.725" stroke="#E7ECF3" stroke-width="2" stroke-dasharray="12 12"/>
<path d="M41.7141 157.143H139.725" stroke="#E7ECF3" stroke-width="2" stroke-dasharray="12 12"/>
<rect x="21.2618" y="109.918" width="122.852" height="61.3915" rx="8.5" stroke="#E7ECF3"/>
<rect x="44.9735" y="134.095" width="8.38095" height="29.7989" rx="4.19048" fill="url(#paint2_linear_1_685)"/>
<rect x="65.9258" y="119.196" width="8.38095" height="29.7989" rx="4.19048" fill="url(#paint3_linear_1_685)"/>
<rect x="86.8782" y="125.714" width="8.38095" height="29.7989" rx="4.19048" fill="url(#paint4_linear_1_685)"/>
<rect x="107.83" y="134.095" width="8.38095" height="29.7989" rx="4.19048" fill="url(#paint5_linear_1_685)"/>
<rect x="128.783" y="121.524" width="8.38095" height="29.7989" rx="4.19048" fill="url(#paint6_linear_1_685)"/>
</g>
<defs>
<filter id="filter0_d_1_685" x="-40.0002" y="-15.5662" width="212.317" height="169.016" filterUnits="userSpaceOnUse" color-interpolation-filters="sRGB">
<feFlood flood-opacity="0" result="BackgroundImageFix"/>
<feColorMatrix in="SourceAlpha" type="matrix" values="0 0 0 0 0 0 0 0 0 0 0 0 0 0 0 0 0 0 127 0" result="hardAlpha"/>
<feOffset dy="14"/>
<feGaussianBlur stdDeviation="22"/>
<feComposite in2="hardAlpha" operator="out"/>
<feColorMatrix type="matrix" values="0 0 0 0 0 0 0 0 0 0 0 0 0 0 0 0 0 0 0.15 0"/>
<feBlend mode="normal" in2="BackgroundImageFix" result="effect1_dropShadow_1_685"/>
<feBlend mode="normal" in="SourceGraphic" in2="effect1_dropShadow_1_685" result="shape"/>
</filter>
<filter id="filter1_d_1_685" x="96.5025" y="-5" width="48.7302" height="48.7302" filterUnits="userSpaceOnUse" color-interpolation-filters="sRGB">
<feFlood flood-opacity="0" result="BackgroundImageFix"/>
<feColorMatrix in="SourceAlpha" type="matrix" values="0 0 0 0 0 0 0 0 0 0 0 0 0 0 0 0 0 0 127 0" result="hardAlpha"/>
<feOffset dy="4"/>
<feGaussianBlur stdDeviation="4.5"/>
<feComposite in2="hardAlpha" operator="out"/>
<feColorMatrix type="matrix" values="0 0 0 0 0 0 0 0 0 0 0 0 0 0 0 0 0 0 0.05 0"/>
<feBlend mode="normal" in2="BackgroundImageFix" result="effect1_dropShadow_1_685"/>
<feBlend mode="normal" in="SourceGraphic" in2="effect1_dropShadow_1_685" result="shape"/>
</filter>
<linearGradient id="paint0_linear_1_685" x1="45.1628" y1="1.77038" x2="15.5293" y2="76.6209" gradientUnits="userSpaceOnUse">
<stop stop-color="#86979C"/>
<stop offset="1" stop-color="#737F8C"/>
</linearGradient>
<linearGradient id="paint1_linear_1_685" x1="25.3286" y1="26.0617" x2="19.2314" y2="36.0982" gradientUnits="userSpaceOnUse">
<stop stop-color="#86979C"/>
<stop offset="1" stop-color="#737F8C"/>
</linearGradient>
<linearGradient id="paint2_linear_1_685" x1="47.7485" y1="129.437" x2="35.6072" y2="135.058" gradientUnits="userSpaceOnUse">
<stop stop-color="#86979C"/>
<stop offset="1" stop-color="#737F8C"/>
</linearGradient>
<linearGradient id="paint3_linear_1_685" x1="68.7008" y1="114.538" x2="56.5595" y2="120.159" gradientUnits="userSpaceOnUse">
<stop stop-color="#86979C"/>
<stop offset="1" stop-color="#737F8C"/>
</linearGradient>
<linearGradient id="paint4_linear_1_685" x1="89.6532" y1="121.056" x2="77.5119" y2="126.677" gradientUnits="userSpaceOnUse">
<stop stop-color="#86979C"/>
<stop offset="1" stop-color="#737F8C"/>
</linearGradient>
<linearGradient id="paint5_linear_1_685" x1="110.606" y1="129.437" x2="98.4642" y2="135.058" gradientUnits="userSpaceOnUse">
<stop stop-color="#86979C"/>
<stop offset="1" stop-color="#737F8C"/>
</linearGradient>
<linearGradient id="paint6_linear_1_685" x1="131.558" y1="116.866" x2="119.417" y2="122.487" gradientUnits="userSpaceOnUse">
<stop stop-color="#86979C"/>
<stop offset="1" stop-color="#737F8C"/>
</linearGradient>
<clipPath id="clip0_1_685">
<rect width="160" height="160" rx="20" fill="white"/>
</clipPath>
<clipPath id="clip1_1_685">
<rect x="3.99985" y="14.4338" width="124.317" height="81.0159" rx="10" fill="white"/>
</clipPath>
</defs>
</svg>
