<svg width="563" height="400" viewBox="0 0 563 400" fill="none" xmlns="http://www.w3.org/2000/svg">
<g opacity="0.05">
<path d="M346.617 112.608C445.877 -321.865 244.478 -347.471 229.481 -348.77C228.853 -348.824 228.314 -348.672 227.762 -348.367L-142.504 -144.04C-251.792 -83.7308 -294.037 53.4257 -212.23 147.706C-119.222 254.895 20.616 363.927 191.11 335.508C354.933 308.201 338.666 147.41 346.617 112.608Z" fill="white" fill-opacity="0.6"/>
</g>
<g opacity="0.91" filter="url(#filter0_d_2_325)">
<path d="M317.788 424.867C196.465 318.574 114.184 294.574 61.4203 298.374C8.69217 302.171 -14.8312 333.753 -18.5999 339.342C-18.8829 339.762 -18.9951 340.204 -18.9894 340.81L-17.0821 545.99C-16.3894 620.5 15.1832 689.943 63.5789 733.244C111.946 776.519 177.093 793.679 245.14 763.763C315.219 732.955 379.206 682.872 407.059 601.518C416.852 572.915 417.387 548.696 412.423 528.19C407.457 507.678 396.972 490.815 384.625 476.958C372.274 463.096 358.076 452.258 345.711 443.798C340.866 440.483 336.312 437.54 332.257 434.919C331.136 434.194 330.052 433.494 329.011 432.817C324.232 429.71 320.31 427.076 317.788 424.867Z" stroke="#4F4F4F" stroke-width="2"/>
</g>
<mask id="mask0_2_325" style="mask-type:alpha" maskUnits="userSpaceOnUse" x="-20" y="238" width="362" height="390">
<path opacity="0.69" d="M260.682 343.312C60.4857 168.095 -12.2673 262.01 -19.407 272.441C-19.834 273.065 -19.9963 273.746 -19.9893 274.502L-18.8363 398.403C-17.4447 547.951 113.604 683.175 240.673 604.308C282.152 578.564 317.283 542.121 334.955 490.556C367.623 395.233 276.99 357.585 260.682 343.312Z" fill="#25356A" fill-opacity="0.35"/>
</mask>
<g mask="url(#mask0_2_325)">
<circle cx="-0.953357" cy="233.072" r="5.07203" fill="#25356A" fill-opacity="0.35"/>
<circle cx="15.9534" cy="233.072" r="5.07203" fill="#25356A" fill-opacity="0.35"/>
<circle cx="32.8602" cy="233.072" r="5.07203" fill="#25356A" fill-opacity="0.35"/>
<circle cx="49.767" cy="233.072" r="5.07203" fill="#25356A" fill-opacity="0.35"/>
<circle cx="66.6737" cy="233.072" r="5.07203" fill="#25356A" fill-opacity="0.35"/>
<circle cx="83.5805" cy="233.072" r="5.07203" fill="#25356A" fill-opacity="0.35"/>
<circle cx="100.487" cy="233.072" r="5.07203" fill="#25356A" fill-opacity="0.35"/>
<circle cx="117.394" cy="233.072" r="5.07203" fill="#25356A" fill-opacity="0.35"/>
<circle cx="134.301" cy="233.072" r="5.07203" fill="#25356A" fill-opacity="0.35"/>
<circle cx="151.208" cy="233.072" r="5.07203" fill="#25356A" fill-opacity="0.35"/>
<circle cx="168.114" cy="233.072" r="5.07203" fill="#25356A" fill-opacity="0.35"/>
<circle cx="185.021" cy="233.072" r="5.07203" fill="#25356A" fill-opacity="0.35"/>
<circle cx="201.928" cy="233.072" r="5.07203" fill="#25356A" fill-opacity="0.35"/>
<circle cx="218.835" cy="233.072" r="5.07203" fill="#25356A" fill-opacity="0.35"/>
<circle cx="235.742" cy="233.072" r="5.07203" fill="#25356A" fill-opacity="0.35"/>
<circle cx="252.648" cy="233.072" r="5.07203" fill="#25356A" fill-opacity="0.35"/>
<circle cx="269.555" cy="233.072" r="5.07203" fill="#25356A" fill-opacity="0.35"/>
<circle cx="286.462" cy="233.072" r="5.07203" fill="#25356A" fill-opacity="0.35"/>
<circle cx="303.369" cy="233.072" r="5.07203" fill="#25356A" fill-opacity="0.35"/>
<circle cx="320.275" cy="233.072" r="5.07203" fill="#25356A" fill-opacity="0.35"/>
<circle cx="337.182" cy="233.072" r="5.07203" fill="#25356A" fill-opacity="0.35"/>
<circle cx="15.9534" cy="249.979" r="5.07203" fill="#25356A" fill-opacity="0.35"/>
<circle cx="32.8602" cy="249.979" r="5.07203" fill="#25356A" fill-opacity="0.35"/>
<circle cx="49.767" cy="249.979" r="5.07203" fill="#25356A" fill-opacity="0.35"/>
<circle cx="66.6737" cy="249.979" r="5.07203" fill="#25356A" fill-opacity="0.35"/>
<circle cx="83.5805" cy="249.979" r="5.07203" fill="#25356A" fill-opacity="0.35"/>
<circle cx="134.301" cy="249.979" r="5.07203" fill="#25356A" fill-opacity="0.35"/>
<circle cx="151.208" cy="249.979" r="5.07203" fill="#25356A" fill-opacity="0.35"/>
<circle cx="168.114" cy="249.979" r="5.07203" fill="#25356A" fill-opacity="0.35"/>
<circle cx="185.021" cy="249.979" r="5.07203" fill="#25356A" fill-opacity="0.35"/>
<circle cx="201.928" cy="249.979" r="5.07203" fill="#25356A" fill-opacity="0.35"/>
<circle cx="218.835" cy="249.979" r="5.07203" fill="#25356A" fill-opacity="0.35"/>
<circle cx="235.742" cy="249.979" r="5.07203" fill="#25356A" fill-opacity="0.35"/>
<circle cx="252.648" cy="249.979" r="5.07203" fill="#25356A" fill-opacity="0.35"/>
<circle cx="269.555" cy="249.979" r="5.07203" fill="#25356A" fill-opacity="0.35"/>
<circle cx="286.462" cy="249.979" r="5.07203" fill="#25356A" fill-opacity="0.35"/>
<circle cx="303.369" cy="249.979" r="5.07203" fill="#25356A" fill-opacity="0.35"/>
<circle cx="320.275" cy="249.979" r="5.07203" fill="#25356A" fill-opacity="0.35"/>
<circle cx="337.182" cy="249.979" r="5.07203" fill="#25356A" fill-opacity="0.35"/>
<circle cx="-0.953357" cy="266.886" r="5.07203" fill="#25356A" fill-opacity="0.35"/>
<circle cx="15.9534" cy="266.886" r="5.07203" fill="#25356A" fill-opacity="0.35"/>
<circle cx="32.8602" cy="266.886" r="5.07203" fill="#25356A" fill-opacity="0.35"/>
<circle cx="49.767" cy="266.886" r="5.07203" fill="#25356A" fill-opacity="0.35"/>
<circle cx="66.6737" cy="266.886" r="5.07203" fill="#25356A" fill-opacity="0.35"/>
<circle cx="83.5805" cy="266.886" r="5.07203" fill="#25356A" fill-opacity="0.35"/>
<circle cx="100.487" cy="266.886" r="5.07203" fill="#25356A" fill-opacity="0.35"/>
<circle cx="117.394" cy="266.886" r="5.07203" fill="#25356A" fill-opacity="0.35"/>
<circle cx="134.301" cy="266.886" r="5.07203" fill="#25356A" fill-opacity="0.35"/>
<circle cx="168.114" cy="266.886" r="5.07203" fill="#25356A" fill-opacity="0.35"/>
<circle cx="185.021" cy="266.886" r="5.07203" fill="#25356A" fill-opacity="0.35"/>
<circle cx="201.928" cy="266.886" r="5.07203" fill="#25356A" fill-opacity="0.35"/>
<circle cx="218.835" cy="266.886" r="5.07203" fill="#25356A" fill-opacity="0.35"/>
<circle cx="235.742" cy="266.886" r="5.07203" fill="#25356A" fill-opacity="0.35"/>
<circle cx="252.648" cy="266.886" r="5.07203" fill="#25356A" fill-opacity="0.35"/>
<circle cx="269.555" cy="266.886" r="5.07203" fill="#25356A" fill-opacity="0.35"/>
<circle cx="286.462" cy="266.886" r="5.07203" fill="#25356A" fill-opacity="0.35"/>
<circle cx="303.369" cy="266.886" r="5.07203" fill="#25356A" fill-opacity="0.35"/>
<circle cx="320.275" cy="266.886" r="5.07203" fill="#25356A" fill-opacity="0.35"/>
<circle cx="337.182" cy="266.886" r="5.07203" fill="#25356A" fill-opacity="0.35"/>
<circle cx="-0.953357" cy="283.792" r="5.07203" fill="#25356A" fill-opacity="0.35"/>
<circle cx="15.9534" cy="283.792" r="5.07203" fill="#25356A" fill-opacity="0.35"/>
<circle cx="32.8602" cy="283.792" r="5.07203" fill="#25356A" fill-opacity="0.35"/>
<circle cx="49.767" cy="283.792" r="5.07203" fill="#25356A" fill-opacity="0.35"/>
<circle cx="66.6737" cy="283.792" r="5.07203" fill="#25356A" fill-opacity="0.35"/>
<circle cx="83.5805" cy="283.792" r="5.07203" fill="#25356A" fill-opacity="0.35"/>
<circle cx="100.487" cy="283.792" r="5.07203" fill="#25356A" fill-opacity="0.35"/>
<circle cx="117.394" cy="283.792" r="5.07203" fill="#25356A" fill-opacity="0.35"/>
<circle cx="134.301" cy="283.792" r="5.07203" fill="#25356A" fill-opacity="0.35"/>
<circle cx="151.208" cy="283.792" r="5.07203" fill="#25356A" fill-opacity="0.35"/>
<circle cx="168.114" cy="283.792" r="5.07203" fill="#25356A" fill-opacity="0.35"/>
<circle cx="201.928" cy="283.792" r="5.07203" fill="#25356A" fill-opacity="0.35"/>
<circle cx="218.835" cy="283.792" r="5.07203" fill="#25356A" fill-opacity="0.35"/>
<circle cx="235.742" cy="283.792" r="5.07203" fill="#25356A" fill-opacity="0.35"/>
<circle cx="252.648" cy="283.792" r="5.07203" fill="#25356A" fill-opacity="0.35"/>
<circle cx="269.555" cy="283.792" r="5.07203" fill="#25356A" fill-opacity="0.35"/>
<circle cx="286.462" cy="283.792" r="5.07203" fill="#25356A" fill-opacity="0.35"/>
<circle cx="303.369" cy="283.792" r="5.07203" fill="#25356A" fill-opacity="0.35"/>
<circle cx="320.275" cy="283.792" r="5.07203" fill="#25356A" fill-opacity="0.35"/>
<circle cx="337.182" cy="283.792" r="5.07203" fill="#25356A" fill-opacity="0.35"/>
<circle cx="-0.953357" cy="300.699" r="5.07203" fill="#25356A" fill-opacity="0.35"/>
<circle cx="15.9534" cy="300.699" r="5.07203" fill="#25356A" fill-opacity="0.35"/>
<circle cx="32.8602" cy="300.699" r="5.07203" fill="#25356A" fill-opacity="0.35"/>
<circle cx="49.767" cy="300.699" r="5.07203" fill="#25356A" fill-opacity="0.35"/>
<circle cx="66.6737" cy="300.699" r="5.07203" fill="#25356A" fill-opacity="0.35"/>
<circle cx="83.5805" cy="300.699" r="5.07203" fill="#25356A" fill-opacity="0.35"/>
<circle cx="100.487" cy="300.699" r="5.07203" fill="#25356A" fill-opacity="0.35"/>
<circle cx="117.394" cy="300.699" r="5.07203" fill="#25356A" fill-opacity="0.35"/>
<circle cx="134.301" cy="300.699" r="5.07203" fill="#25356A" fill-opacity="0.35"/>
<circle cx="151.208" cy="300.699" r="5.07203" fill="#25356A" fill-opacity="0.35"/>
<circle cx="168.114" cy="300.699" r="5.07203" fill="#25356A" fill-opacity="0.35"/>
<circle cx="185.021" cy="300.699" r="5.07203" fill="#25356A" fill-opacity="0.35"/>
<circle cx="218.835" cy="300.699" r="5.07203" fill="#25356A" fill-opacity="0.35"/>
<circle cx="235.742" cy="300.699" r="5.07203" fill="#25356A" fill-opacity="0.35"/>
<circle cx="252.648" cy="300.699" r="5.07203" fill="#25356A" fill-opacity="0.35"/>
<circle cx="269.555" cy="300.699" r="5.07203" fill="#25356A" fill-opacity="0.35"/>
<circle cx="286.462" cy="300.699" r="5.07203" fill="#25356A" fill-opacity="0.35"/>
<circle cx="303.369" cy="300.699" r="5.07203" fill="#25356A" fill-opacity="0.35"/>
<circle cx="320.275" cy="300.699" r="5.07203" fill="#25356A" fill-opacity="0.35"/>
<circle cx="337.182" cy="300.699" r="5.07203" fill="#25356A" fill-opacity="0.35"/>
<circle cx="-0.953357" cy="317.606" r="5.07203" fill="#25356A" fill-opacity="0.35"/>
<circle cx="15.9534" cy="317.606" r="5.07203" fill="#25356A" fill-opacity="0.35"/>
<circle cx="32.8602" cy="317.606" r="5.07203" fill="#25356A" fill-opacity="0.35"/>
<circle cx="49.767" cy="317.606" r="5.07203" fill="#25356A" fill-opacity="0.35"/>
<circle cx="66.6737" cy="317.606" r="5.07203" fill="#25356A" fill-opacity="0.35"/>
<circle cx="83.5805" cy="317.606" r="5.07203" fill="#25356A" fill-opacity="0.35"/>
<circle cx="100.487" cy="317.606" r="5.07203" fill="#25356A" fill-opacity="0.35"/>
<circle cx="117.394" cy="317.606" r="5.07203" fill="#25356A" fill-opacity="0.35"/>
<circle cx="134.301" cy="317.606" r="5.07203" fill="#25356A" fill-opacity="0.35"/>
<circle cx="151.208" cy="317.606" r="5.07203" fill="#25356A" fill-opacity="0.35"/>
<circle cx="168.114" cy="317.606" r="5.07203" fill="#25356A" fill-opacity="0.35"/>
<circle cx="185.021" cy="317.606" r="5.07203" fill="#25356A" fill-opacity="0.35"/>
<circle cx="201.928" cy="317.606" r="5.07203" fill="#25356A" fill-opacity="0.35"/>
<circle cx="218.835" cy="317.606" r="5.07203" fill="#25356A" fill-opacity="0.35"/>
<circle cx="252.648" cy="317.606" r="5.07203" fill="#25356A" fill-opacity="0.35"/>
<circle cx="269.555" cy="317.606" r="5.07203" fill="#25356A" fill-opacity="0.35"/>
<circle cx="286.462" cy="317.606" r="5.07203" fill="#25356A" fill-opacity="0.35"/>
<circle cx="303.369" cy="317.606" r="5.07203" fill="#25356A" fill-opacity="0.35"/>
<circle cx="320.275" cy="317.606" r="5.07203" fill="#25356A" fill-opacity="0.35"/>
<circle cx="337.182" cy="317.606" r="5.07203" fill="#25356A" fill-opacity="0.35"/>
<circle cx="-0.953357" cy="334.513" r="5.07203" fill="#25356A" fill-opacity="0.35"/>
<circle cx="15.9534" cy="334.513" r="5.07203" fill="#25356A" fill-opacity="0.35"/>
<circle cx="32.8602" cy="334.513" r="5.07203" fill="#25356A" fill-opacity="0.35"/>
<circle cx="49.767" cy="334.513" r="5.07203" fill="#25356A" fill-opacity="0.35"/>
<circle cx="66.6737" cy="334.513" r="5.07203" fill="#25356A" fill-opacity="0.35"/>
<circle cx="83.5805" cy="334.513" r="5.07203" fill="#25356A" fill-opacity="0.35"/>
<circle cx="100.487" cy="334.513" r="5.07203" fill="#25356A" fill-opacity="0.35"/>
<circle cx="117.394" cy="334.513" r="5.07203" fill="#25356A" fill-opacity="0.35"/>
<circle cx="134.301" cy="334.513" r="5.07203" fill="#25356A" fill-opacity="0.35"/>
<circle cx="151.208" cy="334.513" r="5.07203" fill="#25356A" fill-opacity="0.35"/>
<circle cx="168.114" cy="334.513" r="5.07203" fill="#25356A" fill-opacity="0.35"/>
<circle cx="185.021" cy="334.513" r="5.07203" fill="#25356A" fill-opacity="0.35"/>
<circle cx="201.928" cy="334.513" r="5.07203" fill="#25356A" fill-opacity="0.35"/>
<circle cx="218.835" cy="334.513" r="5.07203" fill="#25356A" fill-opacity="0.35"/>
<circle cx="235.742" cy="334.513" r="5.07203" fill="#25356A" fill-opacity="0.35"/>
<circle cx="269.555" cy="334.513" r="5.07203" fill="#25356A" fill-opacity="0.35"/>
<circle cx="286.462" cy="334.513" r="5.07203" fill="#25356A" fill-opacity="0.35"/>
<circle cx="303.369" cy="334.513" r="5.07203" fill="#25356A" fill-opacity="0.35"/>
<circle cx="320.275" cy="334.513" r="5.07203" fill="#25356A" fill-opacity="0.35"/>
<circle cx="337.182" cy="334.513" r="5.07203" fill="#25356A" fill-opacity="0.35"/>
<circle cx="-0.953357" cy="351.42" r="5.07203" fill="#25356A" fill-opacity="0.35"/>
<circle cx="15.9534" cy="351.42" r="5.07203" fill="#25356A" fill-opacity="0.35"/>
<circle cx="32.8602" cy="351.42" r="5.07203" fill="#25356A" fill-opacity="0.35"/>
<circle cx="49.767" cy="351.42" r="5.07203" fill="#25356A" fill-opacity="0.35"/>
<circle cx="66.6737" cy="351.42" r="5.07203" fill="#25356A" fill-opacity="0.35"/>
<circle cx="83.5805" cy="351.42" r="5.07203" fill="#25356A" fill-opacity="0.35"/>
<circle cx="100.487" cy="351.42" r="5.07203" fill="#25356A" fill-opacity="0.35"/>
<circle cx="117.394" cy="351.42" r="5.07203" fill="#25356A" fill-opacity="0.35"/>
<circle cx="134.301" cy="351.42" r="5.07203" fill="#25356A" fill-opacity="0.35"/>
<circle cx="151.208" cy="351.42" r="5.07203" fill="#25356A" fill-opacity="0.35"/>
<circle cx="168.114" cy="351.42" r="5.07203" fill="#25356A" fill-opacity="0.35"/>
<circle cx="185.021" cy="351.42" r="5.07203" fill="#25356A" fill-opacity="0.35"/>
<circle cx="201.928" cy="351.42" r="5.07203" fill="#25356A" fill-opacity="0.35"/>
<circle cx="218.835" cy="351.42" r="5.07203" fill="#25356A" fill-opacity="0.35"/>
<circle cx="235.742" cy="351.42" r="5.07203" fill="#25356A" fill-opacity="0.35"/>
<circle cx="252.648" cy="351.42" r="5.07203" fill="#25356A" fill-opacity="0.35"/>
<circle cx="286.462" cy="351.42" r="5.07203" fill="#25356A" fill-opacity="0.35"/>
<circle cx="303.369" cy="351.42" r="5.07203" fill="#25356A" fill-opacity="0.35"/>
<circle cx="320.275" cy="351.42" r="5.07203" fill="#25356A" fill-opacity="0.35"/>
<circle cx="337.182" cy="351.42" r="5.07203" fill="#25356A" fill-opacity="0.35"/>
<circle cx="-0.953357" cy="368.326" r="5.07203" fill="#25356A" fill-opacity="0.35"/>
<circle cx="15.9534" cy="368.326" r="5.07203" fill="#25356A" fill-opacity="0.35"/>
<circle cx="32.8602" cy="368.326" r="5.07203" fill="#25356A" fill-opacity="0.35"/>
<circle cx="49.767" cy="368.326" r="5.07203" fill="#25356A" fill-opacity="0.35"/>
<circle cx="66.6737" cy="368.326" r="5.07203" fill="#25356A" fill-opacity="0.35"/>
<circle cx="83.5805" cy="368.326" r="5.07203" fill="#25356A" fill-opacity="0.35"/>
<circle cx="100.487" cy="368.326" r="5.07203" fill="#25356A" fill-opacity="0.35"/>
<circle cx="117.394" cy="368.326" r="5.07203" fill="#25356A" fill-opacity="0.35"/>
<circle cx="134.301" cy="368.326" r="5.07203" fill="#25356A" fill-opacity="0.35"/>
<circle cx="151.208" cy="368.326" r="5.07203" fill="#25356A" fill-opacity="0.35"/>
<circle cx="168.114" cy="368.326" r="5.07203" fill="#25356A" fill-opacity="0.35"/>
<circle cx="185.021" cy="368.326" r="5.07203" fill="#25356A" fill-opacity="0.35"/>
<circle cx="201.928" cy="368.326" r="5.07203" fill="#25356A" fill-opacity="0.35"/>
<circle cx="218.835" cy="368.326" r="5.07203" fill="#25356A" fill-opacity="0.35"/>
<circle cx="235.742" cy="368.326" r="5.07203" fill="#25356A" fill-opacity="0.35"/>
<circle cx="252.648" cy="368.326" r="5.07203" fill="#25356A" fill-opacity="0.35"/>
<circle cx="269.555" cy="368.326" r="5.07203" fill="#25356A" fill-opacity="0.35"/>
<circle cx="286.462" cy="368.326" r="5.07203" fill="#25356A" fill-opacity="0.35"/>
<circle cx="320.275" cy="368.326" r="5.07203" fill="#25356A" fill-opacity="0.35"/>
<circle cx="337.182" cy="368.326" r="5.07203" fill="#25356A" fill-opacity="0.35"/>
<circle cx="-0.953357" cy="385.233" r="5.07203" fill="#25356A" fill-opacity="0.35"/>
<circle cx="15.9534" cy="385.233" r="5.07203" fill="#25356A" fill-opacity="0.35"/>
<circle cx="32.8602" cy="385.233" r="5.07203" fill="#25356A" fill-opacity="0.35"/>
<circle cx="49.767" cy="385.233" r="5.07203" fill="#25356A" fill-opacity="0.35"/>
<circle cx="66.6737" cy="385.233" r="5.07203" fill="#25356A" fill-opacity="0.35"/>
<circle cx="83.5805" cy="385.233" r="5.07203" fill="#25356A" fill-opacity="0.35"/>
<circle cx="100.487" cy="385.233" r="5.07203" fill="#25356A" fill-opacity="0.35"/>
<circle cx="117.394" cy="385.233" r="5.07203" fill="#25356A" fill-opacity="0.35"/>
<circle cx="134.301" cy="385.233" r="5.07203" fill="#25356A" fill-opacity="0.35"/>
<circle cx="151.208" cy="385.233" r="5.07203" fill="#25356A" fill-opacity="0.35"/>
<circle cx="168.114" cy="385.233" r="5.07203" fill="#25356A" fill-opacity="0.35"/>
<circle cx="185.021" cy="385.233" r="5.07203" fill="#25356A" fill-opacity="0.35"/>
<circle cx="201.928" cy="385.233" r="5.07203" fill="#25356A" fill-opacity="0.35"/>
<circle cx="218.835" cy="385.233" r="5.07203" fill="#25356A" fill-opacity="0.35"/>
<circle cx="235.742" cy="385.233" r="5.07203" fill="#25356A" fill-opacity="0.35"/>
<circle cx="252.648" cy="385.233" r="5.07203" fill="#25356A" fill-opacity="0.35"/>
<circle cx="269.555" cy="385.233" r="5.07203" fill="#25356A" fill-opacity="0.35"/>
<circle cx="286.462" cy="385.233" r="5.07203" fill="#25356A" fill-opacity="0.35"/>
<circle cx="303.369" cy="385.233" r="5.07203" fill="#25356A" fill-opacity="0.35"/>
<circle cx="337.182" cy="385.233" r="5.07203" fill="#25356A" fill-opacity="0.35"/>
<circle cx="-0.953357" cy="402.14" r="5.07203" fill="#25356A" fill-opacity="0.35"/>
<circle cx="15.9534" cy="402.14" r="5.07203" fill="#25356A" fill-opacity="0.35"/>
<circle cx="32.8602" cy="402.14" r="5.07203" fill="#25356A" fill-opacity="0.35"/>
<circle cx="49.767" cy="402.14" r="5.07203" fill="#25356A" fill-opacity="0.35"/>
<circle cx="66.6737" cy="402.14" r="5.07203" fill="#25356A" fill-opacity="0.35"/>
<circle cx="83.5805" cy="402.14" r="5.07203" fill="#25356A" fill-opacity="0.35"/>
<circle cx="100.487" cy="402.14" r="5.07203" fill="#25356A" fill-opacity="0.35"/>
<circle cx="117.394" cy="402.14" r="5.07203" fill="#25356A" fill-opacity="0.35"/>
<circle cx="134.301" cy="402.14" r="5.07203" fill="#25356A" fill-opacity="0.35"/>
<circle cx="151.208" cy="402.14" r="5.07203" fill="#25356A" fill-opacity="0.35"/>
<circle cx="168.114" cy="402.14" r="5.07203" fill="#25356A" fill-opacity="0.35"/>
<circle cx="185.021" cy="402.14" r="5.07203" fill="#25356A" fill-opacity="0.35"/>
<circle cx="201.928" cy="402.14" r="5.07203" fill="#25356A" fill-opacity="0.35"/>
<circle cx="218.835" cy="402.14" r="5.07203" fill="#25356A" fill-opacity="0.35"/>
<circle cx="235.742" cy="402.14" r="5.07203" fill="#25356A" fill-opacity="0.35"/>
<circle cx="252.648" cy="402.14" r="5.07203" fill="#25356A" fill-opacity="0.35"/>
<circle cx="269.555" cy="402.14" r="5.07203" fill="#25356A" fill-opacity="0.35"/>
<circle cx="286.462" cy="402.14" r="5.07203" fill="#25356A" fill-opacity="0.35"/>
<circle cx="303.369" cy="402.14" r="5.07203" fill="#25356A" fill-opacity="0.35"/>
<circle cx="320.275" cy="402.14" r="5.07203" fill="#25356A" fill-opacity="0.35"/>
<circle cx="337.182" cy="402.14" r="5.07203" fill="#25356A" fill-opacity="0.35"/>
</g>
<g opacity="0.91" filter="url(#filter1_d_2_325)">
<path d="M298.447 424.115C32.3255 178.529 -88.8175 405.769 -97.4958 423.087C-97.864 423.821 -97.9304 424.549 -97.8004 425.36L-72.0025 586.333C-50.8589 718.264 64.4885 822.282 190.673 778.348C273.739 749.427 355.447 696.941 388.005 601.842C427.397 486.785 317.659 441.844 298.447 424.115Z" fill="url(#paint0_linear_2_325)"/>
</g>
<defs>
<filter id="filter0_d_2_325" x="-55.9559" y="261.034" width="549.293" height="595.581" filterUnits="userSpaceOnUse" color-interpolation-filters="sRGB">
<feFlood flood-opacity="0" result="BackgroundImageFix"/>
<feColorMatrix in="SourceAlpha" type="matrix" values="0 0 0 0 0 0 0 0 0 0 0 0 0 0 0 0 0 0 127 0" result="hardAlpha"/>
<feOffset dx="20.4354" dy="20.4354"/>
<feGaussianBlur stdDeviation="28.2009"/>
<feColorMatrix type="matrix" values="0 0 0 0 0 0 0 0 0 0 0 0 0 0 0 0 0 0 0.04 0"/>
<feBlend mode="normal" in2="BackgroundImageFix" result="effect1_dropShadow_2_325"/>
<feBlend mode="normal" in="SourceGraphic" in2="effect1_dropShadow_2_325" result="shape"/>
</filter>
<filter id="filter1_d_2_325" x="-133.828" y="274.764" width="607.139" height="590.639" filterUnits="userSpaceOnUse" color-interpolation-filters="sRGB">
<feFlood flood-opacity="0" result="BackgroundImageFix"/>
<feColorMatrix in="SourceAlpha" type="matrix" values="0 0 0 0 0 0 0 0 0 0 0 0 0 0 0 0 0 0 127 0" result="hardAlpha"/>
<feOffset dx="20.4354" dy="20.4354"/>
<feGaussianBlur stdDeviation="28.2009"/>
<feColorMatrix type="matrix" values="0 0 0 0 0 0 0 0 0 0 0 0 0 0 0 0 0 0 0.04 0"/>
<feBlend mode="normal" in2="BackgroundImageFix" result="effect1_dropShadow_2_325"/>
<feBlend mode="normal" in="SourceGraphic" in2="effect1_dropShadow_2_325" result="shape"/>
</filter>
<linearGradient id="paint0_linear_2_325" x1="232.748" y1="232.127" x2="473.058" y2="621.086" gradientUnits="userSpaceOnUse">
<stop stop-color="#F2C229"/>
<stop offset="1" stop-color="#F27129"/>
</linearGradient>
</defs>
</svg>
