<svg width="720" height="400" viewBox="0 0 720 400" fill="none" xmlns="http://www.w3.org/2000/svg">
<mask id="mask0_2_293" style="mask-type:alpha" maskUnits="userSpaceOnUse" x="274" y="-269" width="787" height="708">
<path d="M634.592 431.196C812.432 478.005 970.131 290.421 1026.75 190.778C1037.72 173.812 1059.87 124.232 1060.74 61.6377C1061.83 -16.6051 902.833 -15.2373 848.666 -53.7386C794.5 -92.2398 756.29 -171.34 677.506 -238.457C598.721 -305.574 507.427 -251.073 481.817 -159.783C456.208 -68.4918 303.696 -161.866 277.173 43.0271C250.65 247.92 412.293 372.686 634.592 431.196Z" fill="white"/>
</mask>
<g mask="url(#mask0_2_293)">
<rect x="321.307" y="-503.32" width="1256.55" height="8.35841" transform="rotate(36.8196 321.307 -503.32)" fill="white" fill-opacity="0.05"/>
<rect x="307.948" y="-485.478" width="1256.55" height="8.35841" transform="rotate(36.8196 307.948 -485.478)" fill="white" fill-opacity="0.05"/>
<rect x="294.591" y="-467.635" width="1256.55" height="8.35841" transform="rotate(36.8196 294.591 -467.635)" fill="white" fill-opacity="0.05"/>
<rect x="281.232" y="-449.792" width="1256.55" height="8.35841" transform="rotate(36.8196 281.232 -449.792)" fill="white" fill-opacity="0.05"/>
<rect x="267.875" y="-431.948" width="1256.55" height="8.35841" transform="rotate(36.8196 267.875 -431.948)" fill="white" fill-opacity="0.05"/>
<rect x="254.517" y="-414.105" width="1256.55" height="8.35841" transform="rotate(36.8196 254.517 -414.105)" fill="white" fill-opacity="0.05"/>
<rect x="241.159" y="-396.262" width="1256.55" height="8.35841" transform="rotate(36.8196 241.159 -396.262)" fill="white" fill-opacity="0.05"/>
<rect x="227.802" y="-378.419" width="1256.55" height="8.35841" transform="rotate(36.8196 227.802 -378.419)" fill="white" fill-opacity="0.05"/>
<rect x="214.444" y="-360.576" width="1256.55" height="8.35841" transform="rotate(36.8196 214.444 -360.576)" fill="white" fill-opacity="0.05"/>
<rect x="201.086" y="-342.733" width="1256.55" height="8.35841" transform="rotate(36.8196 201.086 -342.733)" fill="white" fill-opacity="0.05"/>
<rect x="187.728" y="-324.89" width="1256.55" height="8.35841" transform="rotate(36.8196 187.728 -324.89)" fill="white" fill-opacity="0.05"/>
<rect x="174.37" y="-307.047" width="1256.55" height="8.35841" transform="rotate(36.8196 174.37 -307.047)" fill="white" fill-opacity="0.05"/>
<rect x="161.012" y="-289.204" width="1256.55" height="8.35841" transform="rotate(36.8196 161.012 -289.204)" fill="white" fill-opacity="0.05"/>
<rect x="147.655" y="-271.361" width="1256.55" height="8.35841" transform="rotate(36.8196 147.655 -271.361)" fill="white" fill-opacity="0.05"/>
<rect x="134.297" y="-253.518" width="1256.55" height="8.35841" transform="rotate(36.8196 134.297 -253.518)" fill="white" fill-opacity="0.05"/>
<rect x="120.939" y="-235.675" width="1256.55" height="8.35841" transform="rotate(36.8196 120.939 -235.675)" fill="white" fill-opacity="0.05"/>
<rect x="107.581" y="-217.832" width="1256.55" height="8.35841" transform="rotate(36.8196 107.581 -217.832)" fill="white" fill-opacity="0.05"/>
<rect x="94.2236" y="-199.989" width="1256.55" height="8.35841" transform="rotate(36.8196 94.2236 -199.989)" fill="white" fill-opacity="0.05"/>
<rect x="80.8659" y="-182.146" width="1256.55" height="8.35841" transform="rotate(36.8196 80.8659 -182.146)" fill="white" fill-opacity="0.05"/>
<rect x="67.5081" y="-164.303" width="1256.55" height="8.35841" transform="rotate(36.8196 67.5081 -164.303)" fill="white" fill-opacity="0.05"/>
<rect x="54.1503" y="-146.46" width="1256.55" height="8.35841" transform="rotate(36.8196 54.1503 -146.46)" fill="white" fill-opacity="0.05"/>
<rect x="39.1228" y="-126.387" width="1256.55" height="8.35841" transform="rotate(36.8196 39.1228 -126.387)" fill="white" fill-opacity="0.05"/>
<rect x="24.0952" y="-106.313" width="1256.55" height="8.35841" transform="rotate(36.8196 24.0952 -106.313)" fill="white" fill-opacity="0.05"/>
<rect x="9.06762" y="-86.2402" width="1256.55" height="8.35841" transform="rotate(36.8196 9.06762 -86.2402)" fill="white" fill-opacity="0.05"/>
<rect x="-5.95992" y="-66.1667" width="1256.55" height="8.35841" transform="rotate(36.8196 -5.95992 -66.1667)" fill="white" fill-opacity="0.05"/>
<rect x="-20.9869" y="-46.0934" width="1256.55" height="8.35841" transform="rotate(36.8196 -20.9869 -46.0934)" fill="white" fill-opacity="0.05"/>
<rect x="-36.0145" y="-26.0199" width="1256.55" height="8.35841" transform="rotate(36.8196 -36.0145 -26.0199)" fill="white" fill-opacity="0.05"/>
</g>
</svg>
