<svg width="677" height="400" viewBox="0 0 677 400" fill="none" xmlns="http://www.w3.org/2000/svg">
<path d="M491.086 19.8512C466.866 33.704 449.783 57.0029 429.082 75.7064C403.333 98.8784 371.995 114.946 338.15 122.326C310.4 128.332 281.407 128.42 254.667 137.866C202.497 156.17 166.766 210.494 165.867 265.727C164.968 320.961 196.392 374.507 242.579 404.788C258.309 415.106 275.53 422.949 293.639 428.043C327.605 437.6 363.625 437.178 398.723 433.526C459.351 427.21 522.91 392.778 561.127 344.238C578.163 322.543 592.561 298.9 604.018 273.808C622.945 232.549 633.696 188.012 635.675 142.662C637.284 103.812 635.675 60.7436 604.85 32.4275C574.025 4.11145 527.217 -0.82805 491.086 19.8512Z" fill="#F9F9F9" fill-opacity="0.02"/>
<path d="M552 353H57.4345L2 403" stroke="#F2A829" stroke-width="2.10526" stroke-linecap="round" stroke-linejoin="round"/>
<path d="M58 319V223" stroke="#F2A829" stroke-width="2.10526" stroke-linecap="round" stroke-linejoin="round"/>
<path d="M58 348V329" stroke="#F2A829" stroke-width="2.10526" stroke-linecap="round" stroke-linejoin="round"/>
<path d="M302.956 114.606H68.9345C63.4478 114.606 59 119.054 59 124.54V255.731C59 261.218 63.4478 265.666 68.9345 265.666H302.956C308.442 265.666 312.89 261.218 312.89 255.731V124.54C312.89 119.054 308.442 114.606 302.956 114.606Z" fill="white"/>
<path d="M312.89 124.54V128.47H59V124.54C58.9999 121.9 60.0448 119.368 61.9063 117.496C63.7678 115.624 66.2946 114.565 68.9345 114.55H303C304.306 114.555 305.598 114.817 306.803 115.321C308.007 115.826 309.1 116.564 310.019 117.492C310.938 118.42 311.665 119.52 312.157 120.73C312.65 121.939 312.899 123.234 312.89 124.54Z" fill="#F2A829"/>
<path d="M302.956 114.606H68.9345C63.4478 114.606 59 119.054 59 124.54V255.731C59 261.218 63.4478 265.666 68.9345 265.666H302.956C308.442 265.666 312.89 261.218 312.89 255.731V124.54C312.89 119.054 308.442 114.606 302.956 114.606Z" stroke="#0C0C0D" stroke-width="1.52" stroke-linecap="round" stroke-linejoin="round"/>
<path d="M312.89 124.54V128.47H59V124.54C58.9999 121.9 60.0448 119.368 61.9063 117.496C63.7678 115.624 66.2946 114.565 68.9345 114.55H303C304.306 114.555 305.598 114.817 306.803 115.321C308.007 115.826 309.1 116.564 310.019 117.492C310.938 118.42 311.665 119.52 312.157 120.73C312.65 121.939 312.899 123.234 312.89 124.54V124.54Z" stroke="#0C0C0D" stroke-width="1.52" stroke-linecap="round" stroke-linejoin="round"/>
<path d="M87.5155 121.532C87.5177 122.035 87.3705 122.528 87.0926 122.947C86.8146 123.367 86.4184 123.694 85.9541 123.888C85.4898 124.083 84.9784 124.134 84.4846 124.038C83.9908 123.941 83.5368 123.7 83.1802 123.345C82.8236 122.99 82.5804 122.537 82.4814 122.043C82.3824 121.55 82.4321 121.038 82.6242 120.573C82.8162 120.108 83.142 119.71 83.5603 119.431C83.9785 119.151 84.4704 119.001 84.9736 119.001C85.6459 119.001 86.2907 119.268 86.7671 119.742C87.2435 120.216 87.5126 120.86 87.5155 121.532Z" fill="#0C0C0D"/>
<path d="M100.78 121.532C100.783 122.035 100.635 122.528 100.357 122.947C100.08 123.367 99.6833 123.694 99.219 123.888C98.7548 124.083 98.2433 124.134 97.7495 124.038C97.2557 123.941 96.8017 123.7 96.4451 123.345C96.0885 122.99 95.8453 122.537 95.7463 122.043C95.6474 121.55 95.6971 121.038 95.8891 120.573C96.0812 120.108 96.407 119.71 96.8252 119.431C97.2435 119.151 97.7354 119.001 98.2386 119.001C98.9108 119.001 99.5557 119.268 100.032 119.742C100.508 120.216 100.778 120.86 100.78 121.532Z" fill="#0C0C0D"/>
<path d="M111.502 124.074C112.906 124.074 114.044 122.936 114.044 121.532C114.044 120.128 112.906 118.99 111.502 118.99C110.099 118.99 108.96 120.128 108.96 121.532C108.96 122.936 110.099 124.074 111.502 124.074Z" fill="#0C0C0D"/>
<path d="M149.931 139.47H78.1474C75.8853 139.47 74.0515 141.304 74.0515 143.566V178.098C74.0515 180.36 75.8853 182.194 78.1474 182.194H149.931C152.193 182.194 154.027 180.36 154.027 178.098V143.566C154.027 141.304 152.193 139.47 149.931 139.47Z" stroke="#0C0C0D" stroke-width="1.52" stroke-linecap="round" stroke-linejoin="round"/>
<path d="M78.7579 176.821H148.1" stroke="#0C0C0D" stroke-width="1.52" stroke-linecap="round" stroke-linejoin="round"/>
<path d="M91.9559 168.663H83.9084V176.71H91.9559V168.663Z" fill="#F2A829" stroke="#0C0C0D" stroke-width="1.52" stroke-miterlimit="10"/>
<path d="M103.733 158.084H95.6854V176.821H103.733V158.084Z" fill="#F2A829" stroke="#0C0C0D" stroke-width="1.52" stroke-miterlimit="10"/>
<path d="M116.997 161.303H108.95V177.01H116.997V161.303Z" fill="#F2A829" stroke="#0C0C0D" stroke-width="1.52" stroke-miterlimit="10"/>
<path d="M130.939 145.663H122.892V176.466H130.939V145.663Z" fill="#F2A829" stroke="#0C0C0D" stroke-width="1.52" stroke-miterlimit="10"/>
<path d="M144.869 145.908H136.822V176.71H144.869V145.908Z" fill="#F2A829" stroke="#0C0C0D" stroke-width="1.52" stroke-miterlimit="10"/>
<path d="M236.5 182.999C248.926 182.999 258.999 172.926 258.999 160.5C258.999 148.073 248.926 138 236.5 138C224.073 138 214 148.073 214 160.5C214 172.926 224.073 182.999 236.5 182.999Z" fill="#F2A829" stroke="#0C0C0D" stroke-width="1.52" stroke-miterlimit="10"/>
<g filter="url(#filter0_b_2_1330)">
<path d="M233.687 152.633V147H228V152.633H233.687ZM233.687 152.633V157.833H238.752C241.391 157.833 243.531 159.967 243.531 162.6V162.817C243.531 165.569 241.26 167.8 238.5 167.8C235.74 167.8 233.469 165.569 233.469 162.817V157.833H228V162.817C228 168.441 232.571 173 238.21 173H238.79C244.429 173 249 168.441 249 162.817V162.6C249 157.096 244.526 152.633 239.007 152.633H233.687Z" stroke="#0C0C0D" stroke-width="2"/>
</g>
<path d="M72.1864 204.016H78.7577" stroke="#0C0C0D" stroke-width="1.52" stroke-linecap="round" stroke-linejoin="round"/>
<path d="M72.1864 216.715H78.7577" stroke="#0C0C0D" stroke-width="1.52" stroke-linecap="round" stroke-linejoin="round"/>
<path d="M72.1864 229.424H78.7577" stroke="#0C0C0D" stroke-width="1.52" stroke-linecap="round" stroke-linejoin="round"/>
<path d="M72.1864 242.122H78.7577" stroke="#0C0C0D" stroke-width="1.52" stroke-linecap="round" stroke-linejoin="round"/>
<path d="M93.2438 251.713V246.607" stroke="#0C0C0D" stroke-width="1.52" stroke-linecap="round" stroke-linejoin="round"/>
<path d="M103.655 251.713V246.607" stroke="#0C0C0D" stroke-width="1.52" stroke-linecap="round" stroke-linejoin="round"/>
<path d="M114.067 251.713V246.607" stroke="#0C0C0D" stroke-width="1.52" stroke-linecap="round" stroke-linejoin="round"/>
<path d="M124.49 251.713V246.607" stroke="#0C0C0D" stroke-width="1.52" stroke-linecap="round" stroke-linejoin="round"/>
<path d="M134.902 251.713V246.607" stroke="#0C0C0D" stroke-width="1.52" stroke-linecap="round" stroke-linejoin="round"/>
<path d="M145.313 251.713V246.607" stroke="#0C0C0D" stroke-width="1.52" stroke-linecap="round" stroke-linejoin="round"/>
<path d="M155.726 251.713V246.607" stroke="#0C0C0D" stroke-width="1.52" stroke-linecap="round" stroke-linejoin="round"/>
<path d="M166.148 251.713V246.607" stroke="#0C0C0D" stroke-width="1.52" stroke-linecap="round" stroke-linejoin="round"/>
<path d="M176.56 251.713V246.607" stroke="#0C0C0D" stroke-width="1.52" stroke-linecap="round" stroke-linejoin="round"/>
<path d="M186.972 251.713V246.607" stroke="#0C0C0D" stroke-width="1.52" stroke-linecap="round" stroke-linejoin="round"/>
<path d="M197.384 251.713V246.607" stroke="#0C0C0D" stroke-width="1.52" stroke-linecap="round" stroke-linejoin="round"/>
<path d="M207.807 251.713V246.607" stroke="#0C0C0D" stroke-width="1.52" stroke-linecap="round" stroke-linejoin="round"/>
<path d="M218.218 251.713V246.607" stroke="#0C0C0D" stroke-width="1.52" stroke-linecap="round" stroke-linejoin="round"/>
<path d="M228.63 251.713V246.607" stroke="#0C0C0D" stroke-width="1.52" stroke-linecap="round" stroke-linejoin="round"/>
<path d="M239.042 251.713V246.607" stroke="#0C0C0D" stroke-width="1.52" stroke-linecap="round" stroke-linejoin="round"/>
<path d="M249.065 251.713V246.607" stroke="#0C0C0D" stroke-width="1.52" stroke-linecap="round" stroke-linejoin="round"/>
<path d="M259.089 251.713V246.607" stroke="#0C0C0D" stroke-width="1.52" stroke-linecap="round" stroke-linejoin="round"/>
<path d="M269.101 251.713V246.607" stroke="#0C0C0D" stroke-width="1.52" stroke-linecap="round" stroke-linejoin="round"/>
<path d="M295.607 196.246V245.597C295.607 248.982 292.166 251.713 287.926 251.713H79.89C78.6233 251.758 77.3633 251.51 76.2081 250.988C75.053 250.466 74.0338 249.685 73.23 248.705C72.5356 247.815 72.1463 246.725 72.12 245.597V196.246C72.12 192.916 75.561 190.13 79.8012 190.13H287.926C292.166 190.13 295.607 192.861 295.607 196.246Z" stroke="#F2A829" stroke-width="1.52" stroke-linecap="round" stroke-linejoin="round"/>
<path d="M232.293 100.664L165.882 190.13L140.485 224.34L112.735 206.669L78.7799 251.713H78.2915C77.2268 251.714 76.1804 251.437 75.2557 250.909C74.331 250.382 73.56 249.622 73.019 248.705L111.17 198.078L138.92 215.716L157.912 190.186L227.165 96.9456L232.293 100.664Z" fill="#F2A829"/>
<path d="M215.444 101.796L239.852 87L233.104 112.597L228.797 100.753L215.444 101.796Z" fill="#F2A829"/>
<path d="M599.835 161.023C599.835 161.023 599.835 156.45 593.43 150.057C587.025 143.663 582.918 140 582.918 140C582.918 140 579.71 150.512 585.66 156.916C590.03 161.428 594.772 165.564 599.835 169.282V161.023Z" fill="#F2A829"/>
<path d="M590.544 189.584C590.544 189.584 590.544 185.01 584.139 178.606C577.734 172.201 573.627 168.549 573.627 168.549C573.627 168.549 570.43 179.061 576.369 185.466C580.744 189.975 585.485 194.115 590.544 197.842V189.584Z" fill="#F2A829"/>
<path d="M599.424 168.816C599.424 168.816 599.912 164.265 606.949 158.57C613.987 152.876 618.471 149.69 618.471 149.69C618.471 149.69 620.536 160.513 613.954 166.218C609.131 170.233 603.981 173.839 598.558 176.996L599.424 168.816Z" fill="#F2A829"/>
<path d="M588.201 202.537C588.201 202.537 589.167 198.097 596.76 193.147C604.352 188.196 609.136 185.51 609.136 185.51C609.136 185.51 610.057 196.466 602.942 201.483C597.727 204.969 592.228 208.01 586.503 210.574L588.201 202.537Z" fill="#F2A829"/>
<path d="M590.321 239.29C590.321 239.29 590.321 234.716 596.715 228.323C603.109 221.929 607.227 218.266 607.227 218.266C607.227 218.266 610.435 228.789 604.485 235.183C600.122 239.7 595.384 243.841 590.321 247.559V239.29Z" fill="#F2A829"/>
<path d="M590.211 248.269C590.211 248.269 590.854 243.741 585.426 236.503C579.999 229.266 576.458 225.048 576.458 225.048C576.458 225.048 571.818 235.038 576.78 242.187C580.468 247.264 584.575 252.024 589.056 256.417L590.211 248.269Z" fill="#F2A829"/>
<path d="M583.895 274.854C583.895 274.854 583.895 270.292 590.3 263.887C596.705 257.482 600.812 253.897 600.812 253.897C600.812 253.897 604.019 264.409 598.07 270.802C593.7 275.318 588.959 279.458 583.895 283.179V274.854Z" fill="#F2A829"/>
<path d="M588.168 298.974C588.168 298.974 587.058 294.534 591.598 286.764C596.138 278.994 599.224 274.388 599.224 274.388C599.224 274.388 604.973 283.756 600.855 291.448C597.766 296.915 594.224 302.113 590.266 306.988L588.168 298.974Z" fill="#F2A829"/>
<path d="M600.412 159.891C600.088 164.648 599.503 169.384 598.658 174.077C596.127 187.153 589.778 195.589 587.269 207.377C584.761 219.165 592.009 234.406 590.066 249.557C588.124 264.709 582.208 273.156 583.873 283.279C585.538 293.402 594.418 320.797 594.418 320.797" stroke="#0C0C0D" stroke-width="1.78978" stroke-linecap="round" stroke-linejoin="round"/>
<path d="M599.369 171.857L606.262 166.551" stroke="#0C0C0D" stroke-width="1.78978" stroke-linecap="round" stroke-linejoin="round"/>
<path d="M599.679 165.763L596.804 160.624" stroke="#0C0C0D" stroke-width="1.78978" stroke-linecap="round" stroke-linejoin="round"/>
<path d="M587.658 206.844C587.658 206.844 593.43 202.504 599.368 198.175" stroke="#0C0C0D" stroke-width="1.78978" stroke-linecap="round" stroke-linejoin="round"/>
<path d="M590.544 197.787C590.544 197.787 585.726 188.352 580.276 182.091" stroke="#0C0C0D" stroke-width="1.78978" stroke-linecap="round" stroke-linejoin="round"/>
<path d="M590.544 245.794C593.851 239.72 598.02 234.157 602.92 229.277" stroke="#0C0C0D" stroke-width="1.78978" stroke-linecap="round" stroke-linejoin="round"/>
<path d="M589.422 252.21C587.652 248.08 585.543 244.104 583.118 240.322C579.788 235.349 579.255 234.705 579.255 234.705" stroke="#0C0C0D" stroke-width="1.78978" stroke-linecap="round" stroke-linejoin="round"/>
<path d="M583.895 283.268C585.361 279.633 587.101 276.115 589.101 272.745C591.098 269.607 593.348 266.637 595.828 263.865" stroke="#0C0C0D" stroke-width="1.78978" stroke-linecap="round" stroke-linejoin="round"/>
<path d="M590.255 306.933C589.92 303.465 590.518 299.97 591.986 296.81C594.395 292.159 597.115 286.054 598.247 283.656" stroke="#0C0C0D" stroke-width="1.78978" stroke-linecap="round" stroke-linejoin="round"/>
<path d="M557.921 222.096C557.921 222.096 557.421 219.243 560.74 214.525C564.059 209.808 566.29 207.066 566.29 207.066C566.29 207.066 569.432 213.304 566.401 217.966C564.15 221.266 561.625 224.37 558.853 227.246L557.921 222.096Z" fill="#F2A829"/>
<path d="M566.845 239.034C566.845 239.034 566.346 236.159 569.665 231.453C572.984 226.746 575.215 224.005 575.215 224.005C575.215 224.005 578.356 230.254 575.326 234.905C573.077 238.206 570.552 241.311 567.778 244.185L566.845 239.034Z" fill="#F2A829"/>
<path d="M559.02 226.935C559.02 226.935 558.243 224.138 553.192 221.385C548.142 218.632 545 217.056 545 217.056C545 217.056 544.878 224.016 549.64 226.935C553.099 228.93 556.719 230.631 560.463 232.019L559.02 226.935Z" fill="#F2A829"/>
<path d="M569.72 246.86C569.72 246.86 568.61 244.162 563.327 241.909C558.043 239.656 554.724 238.468 554.724 238.468C554.724 238.468 555.335 245.428 560.363 247.803C564.014 249.422 567.793 250.733 571.663 251.722L569.72 246.86Z" fill="#F2A829"/>
<path d="M572.384 270.114C572.384 270.114 571.885 267.25 567.178 263.931C562.472 260.613 559.486 258.759 559.486 258.759C559.486 258.759 558.62 265.719 563.049 269.071C566.277 271.416 569.697 273.484 573.272 275.254L572.384 270.114Z" fill="#F2A829"/>
<path d="M573.416 275.764C573.416 275.764 572.517 273 575.137 267.872C577.756 262.744 579.577 259.714 579.577 259.714C579.577 259.714 583.573 265.441 581.242 270.492C579.464 274.076 577.393 277.506 575.048 280.748L573.416 275.764Z" fill="#F2A829"/>
<path d="M581.453 298.885C581.453 298.885 581.786 295.999 586.292 292.414C590.799 288.829 593.674 286.864 593.674 286.864C593.674 286.864 594.939 293.746 590.71 297.365C587.621 299.891 584.328 302.155 580.864 304.136L581.453 298.885Z" fill="#F2A829"/>
<path d="M580.265 291.759C580.265 291.759 579.766 288.884 575.059 285.565C570.353 282.247 567.378 280.404 567.378 280.404C567.378 280.404 566.512 287.364 570.93 290.716C574.163 293.059 577.586 295.127 581.164 296.899L580.265 291.759Z" fill="#F2A829"/>
<path d="M580.198 307.344C580.198 307.344 580.454 304.435 576.735 300.04C573.017 295.644 570.608 293.08 570.608 293.08C570.608 293.08 568.011 299.574 571.44 303.958C573.974 307.05 576.758 309.927 579.765 312.561L580.198 307.344Z" fill="#F2A829"/>
<path d="M557.422 221.43C558.144 224.381 559.03 227.29 560.075 230.143C563.072 238.057 567.956 242.664 570.819 249.79C573.683 256.916 570.819 267.25 573.65 276.541C576.48 285.832 581.142 290.46 581.176 297.021C581.209 303.581 578.678 321.707 578.678 321.707" stroke="#0C0C0D" stroke-width="1.78978" stroke-linecap="round" stroke-linejoin="round"/>
<path d="M559.386 228.833L554.491 226.269" stroke="#0C0C0D" stroke-width="1.78978" stroke-linecap="round" stroke-linejoin="round"/>
<path d="M558.52 225.048L559.774 221.518" stroke="#0C0C0D" stroke-width="1.78978" stroke-linecap="round" stroke-linejoin="round"/>
<path d="M570.531 249.49C570.531 249.49 566.435 247.404 562.25 245.328" stroke="#0C0C0D" stroke-width="1.78978" stroke-linecap="round" stroke-linejoin="round"/>
<path d="M567.733 244.185C568.937 240.385 570.525 236.718 572.473 233.24" stroke="#0C0C0D" stroke-width="1.78978" stroke-linecap="round" stroke-linejoin="round"/>
<path d="M572.95 274.243C570.218 270.795 567.003 267.759 563.404 265.23" stroke="#0C0C0D" stroke-width="1.78978" stroke-linecap="round" stroke-linejoin="round"/>
<path d="M574.349 278.151C574.997 275.377 575.877 272.663 576.98 270.037C578.523 266.54 578.789 266.085 578.789 266.085" stroke="#0C0C0D" stroke-width="1.78978" stroke-linecap="round" stroke-linejoin="round"/>
<path d="M580.965 301.971C582.553 299.998 584.314 298.171 586.226 296.51C587.444 295.608 588.587 294.609 589.645 293.524" stroke="#0C0C0D" stroke-width="1.78978" stroke-linecap="round" stroke-linejoin="round"/>
<path d="M581.175 297.021C579.849 294.903 578.365 292.888 576.735 290.993C575.141 289.253 573.408 287.645 571.552 286.187" stroke="#0C0C0D" stroke-width="1.78978" stroke-linecap="round" stroke-linejoin="round"/>
<path d="M579.788 312.561C579.611 310.339 578.845 308.205 577.568 306.378C575.548 303.714 573.128 300.184 572.218 298.797" stroke="#0C0C0D" stroke-width="1.78978" stroke-linecap="round" stroke-linejoin="round"/>
<path d="M601.078 352.965H571.929C571.35 352.965 570.793 352.738 570.379 352.334C569.964 351.93 569.724 351.379 569.709 350.8L565.525 318.543H607.394L603.209 350.8C603.195 351.364 602.967 351.902 602.572 352.304C602.176 352.706 601.642 352.942 601.078 352.965Z" fill="#0C0C0D"/>
<path d="M607.06 323.994H565.568C564.705 323.997 563.875 323.657 563.262 323.05C562.648 322.442 562.3 321.616 562.294 320.752C562.308 319.89 562.656 319.067 563.265 318.457C563.874 317.846 564.695 317.495 565.557 317.478H607.06C607.49 317.476 607.915 317.56 608.313 317.723C608.71 317.886 609.071 318.127 609.375 318.43C609.679 318.733 609.921 319.093 610.085 319.49C610.25 319.887 610.335 320.312 610.335 320.741C610.333 321.17 610.247 321.594 610.082 321.989C609.917 322.385 609.675 322.744 609.371 323.046C609.067 323.348 608.706 323.587 608.31 323.749C607.913 323.912 607.489 323.995 607.06 323.994Z" fill="#0C0C0D"/>
<path d="M485.303 143.594C485.301 152.704 482.213 161.544 476.543 168.674C470.873 175.804 462.954 180.803 454.079 182.855H453.956C452.902 183.088 451.847 183.299 450.76 183.454C448.851 183.726 446.926 183.863 444.999 183.865C434.463 183.827 424.361 179.666 416.857 172.272C409.352 164.877 405.04 154.839 404.846 144.305C404.651 133.771 408.589 123.58 415.816 115.914C423.043 108.248 432.984 103.717 443.511 103.29C443.878 103.29 444.266 103.29 444.621 103.29C444.739 103.279 444.858 103.279 444.977 103.29C445.113 103.279 445.251 103.279 445.387 103.29C450.825 103.325 456.198 104.477 461.171 106.676C468.346 109.819 474.45 114.984 478.735 121.541C483.021 128.098 485.303 135.761 485.303 143.594Z" fill="#F2A829"/>
<g filter="url(#filter1_b_2_1330)">
<path d="M456.009 115.924L456.059 114.983L455.226 114.67L455.044 115.4L456.009 115.924ZM460.272 117.525L461.237 118.049L461.492 117.023L460.322 116.584L460.272 117.525ZM453.948 124.185L453.899 125.127L454.731 125.438L454.913 124.709L453.948 124.185ZM450.805 123.009L449.84 122.485L449.584 123.512L450.756 123.95L450.805 123.009ZM452.866 114.748L453.831 115.272L454.086 114.246L452.916 113.807L452.866 114.748ZM448.571 113.136L448.621 112.195L447.788 111.883L447.607 112.612L448.571 113.136ZM446.536 121.299L446.504 122.246L447.322 122.539L447.501 121.823L446.536 121.299ZM438.224 118.324L438.256 117.377L437.438 117.084L437.259 117.8L438.224 118.324ZM436.872 123.746L435.907 123.222L435.651 124.248L436.822 124.687L436.872 123.746ZM440.524 125.115L440.574 124.174L440.574 124.174L440.524 125.115ZM441.56 126.137L440.68 126.288L440.68 126.288L441.56 126.137ZM441.699 127.72L440.735 127.195L440.735 127.196L441.699 127.72ZM436.23 149.651L437.194 150.175L437.194 150.175L436.23 149.651ZM434.305 150.854L434.255 151.795L434.256 151.795L434.305 150.854ZM431.31 149.73L431.36 148.789L430.626 148.514L430.379 149.104L431.31 149.73ZM429.035 155.168L428.104 154.542L427.657 155.611L428.985 156.109L429.035 155.168ZM437.374 158.298L438.339 158.823L438.595 157.797L437.424 157.358L437.374 158.298ZM435.35 166.412L434.385 165.888L434.13 166.913L435.3 167.353L435.35 166.412ZM439.583 168L439.533 168.941L440.366 169.253L440.548 168.524L439.583 168ZM441.607 159.887L441.657 158.946L440.824 158.633L440.642 159.363L441.607 159.887ZM444.75 161.066L445.715 161.591L445.971 160.565L444.8 160.126L444.75 161.066ZM442.726 169.18L441.761 168.656L441.505 169.681L442.676 170.121L442.726 169.18ZM446.989 170.78L446.939 171.72L447.772 172.033L447.954 171.304L446.989 170.78ZM449.004 162.702L449.048 161.759L448.22 161.453L448.039 162.178L449.004 162.702ZM464.273 156.172L463.309 155.648L463.309 155.648L464.273 156.172ZM461.306 145.255L461.768 144.558L461.768 144.558L461.306 145.255ZM460.687 144.722L460.145 143.744L458.826 144.15L460.178 145.378L460.687 144.722ZM465.951 138.822L464.987 138.298L464.987 138.298L465.951 138.822ZM458.203 125.822L457.239 125.298L456.983 126.323L458.153 126.763L458.203 125.822ZM443.305 154.054L442.339 153.535L442.093 154.549L443.246 154.992L443.305 154.054ZM456.317 152.911L457.282 153.43L457.283 153.43L456.317 152.911ZM446.036 142.817L446.094 141.879L445.25 141.555L445.07 142.297L446.036 142.817ZM459.364 137.671L460.329 138.192L460.349 138.109L460.352 138.019L459.364 137.671ZM447.704 139.47L446.738 138.949L446.489 139.967L447.648 140.409L447.704 139.47ZM459.364 137.67L458.398 137.149L458.378 137.232L458.376 137.322L459.364 137.67ZM450.332 128.738L450.388 127.8L449.547 127.479L449.366 128.217L450.332 128.738ZM455.959 116.865L460.222 118.466L460.322 116.584L456.059 114.983L455.959 116.865ZM454.913 124.709L456.974 116.448L455.044 115.4L452.983 123.661L454.913 124.709ZM450.756 123.95L453.899 125.127L453.997 123.244L450.854 122.068L450.756 123.95ZM451.901 114.224L449.84 122.485L451.77 123.533L453.831 115.272L451.901 114.224ZM448.522 114.077L452.816 115.689L452.916 113.807L448.621 112.195L448.522 114.077ZM447.501 121.823L449.536 113.66L447.607 112.612L445.571 120.775L447.501 121.823ZM438.192 119.272L446.504 122.246L446.568 120.352L438.256 117.377L438.192 119.272ZM437.837 124.27L439.189 118.849L437.259 117.8L435.907 123.222L437.837 124.27ZM440.574 124.174L436.921 122.805L436.822 124.687L440.475 126.056L440.574 124.174ZM442.439 125.987C442.075 125.18 441.406 124.486 440.574 124.174L440.475 126.056C440.528 126.076 440.603 126.118 440.68 126.288L442.439 125.987ZM442.664 128.244C442.833 127.568 442.789 126.762 442.439 125.987L440.68 126.288C440.772 126.49 440.828 126.823 440.735 127.195L442.664 128.244ZM437.194 150.175L442.664 128.244L440.735 127.196L435.265 149.127L437.194 150.175ZM434.256 151.795C435.024 152.083 435.699 151.941 436.177 151.642C436.664 151.338 437.032 150.824 437.194 150.175L435.265 149.127C435.184 149.449 435.001 149.691 434.792 149.822C434.572 149.959 434.406 149.933 434.354 149.913L434.256 151.795ZM431.26 150.671L434.255 151.795L434.355 149.913L431.36 148.789L431.26 150.671ZM429.966 155.794L432.241 150.356L430.379 149.104L428.104 154.542L429.966 155.794ZM437.424 157.358L429.085 154.227L428.985 156.109L437.325 159.239L437.424 157.358ZM436.315 166.936L438.339 158.823L436.41 157.774L434.385 165.888L436.315 166.936ZM439.633 167.059L435.4 165.471L435.3 167.353L439.533 168.941L439.633 167.059ZM440.642 159.363L438.618 167.476L440.548 168.524L442.572 160.411L440.642 159.363ZM444.8 160.126L441.657 158.946L441.557 160.828L444.7 162.007L444.8 160.126ZM443.691 169.704L445.715 161.591L443.785 160.542L441.761 168.656L443.691 169.704ZM447.039 169.839L442.776 168.239L442.676 170.121L446.939 171.72L447.039 169.839ZM448.039 162.178L446.024 170.255L447.954 171.304L449.969 163.226L448.039 162.178ZM463.309 155.648C462.362 159.445 460.486 161.566 458.065 162.459C455.636 163.356 452.549 163.054 449.048 161.759L448.959 163.645C452.778 165.058 456.337 165.456 459.218 164.393C462.108 163.327 464.207 160.829 465.238 156.696L463.309 155.648ZM460.845 145.952C461.798 146.751 462.703 147.528 463.27 148.832C463.847 150.161 464.156 152.25 463.309 155.648L465.238 156.696C466.13 153.122 465.908 150.552 465.044 148.566C464.169 146.553 462.721 145.357 461.768 144.558L460.845 145.952ZM460.178 145.378C460.394 145.575 460.629 145.771 460.845 145.952L461.768 144.558C461.541 144.368 461.357 144.213 461.195 144.067L460.178 145.378ZM464.987 138.298C464.515 140.191 463.905 141.344 463.144 142.121C462.383 142.898 461.425 143.349 460.145 143.744L461.228 145.701C462.603 145.277 463.786 144.748 464.749 143.765C465.711 142.782 466.406 141.394 466.916 139.346L464.987 138.298ZM458.153 126.763C459.943 127.434 462.071 128.709 463.523 130.559C464.913 132.331 465.848 134.845 464.987 138.298L466.916 139.346C467.894 135.426 466.884 132.163 464.905 129.64C462.987 127.196 460.322 125.657 458.253 124.881L458.153 126.763ZM459.307 117.001L457.239 125.298L459.168 126.346L461.237 118.049L459.307 117.001ZM443.246 154.992C446.499 156.241 449.624 157.25 452.112 157.265C453.375 157.272 454.508 157.025 455.412 156.399C456.32 155.771 456.952 154.792 457.282 153.43L455.351 152.391C455.087 153.476 454.608 154.176 453.98 154.61C453.348 155.047 452.521 155.248 451.492 155.242C449.396 155.23 446.609 154.364 443.364 153.117L443.246 154.992ZM445.07 142.297L442.339 153.535L444.271 154.574L447.002 143.336L445.07 142.297ZM457.283 153.43C457.611 152.076 457.616 150.801 457.205 149.581C456.785 148.331 455.972 147.271 454.912 146.362C453.875 145.473 452.583 144.711 451.128 144.002C449.665 143.29 447.97 142.599 446.094 141.879L445.977 143.754C447.837 144.469 449.448 145.127 450.804 145.788C452.169 146.452 453.209 147.088 453.962 147.733C454.691 148.358 455.124 148.968 455.349 149.635C455.584 150.332 455.634 151.223 455.351 152.391L457.283 153.43ZM458.398 137.15C457.985 138.834 457.262 139.822 455.827 140.137C454.316 140.47 451.861 140.095 447.76 138.531L447.648 140.409C451.854 142.012 454.781 142.568 456.798 142.124C458.893 141.663 459.845 140.167 460.329 138.192L458.398 137.15ZM458.376 137.322L458.376 137.323L460.352 138.019L460.352 138.018L458.376 137.322ZM450.275 129.677C453.255 130.814 455.57 131.852 457.009 133.057C457.69 133.627 458.11 134.183 458.335 134.77C458.565 135.369 458.645 136.14 458.398 137.149L460.329 138.19C460.633 136.949 460.594 135.759 460.155 134.613C459.71 133.454 458.908 132.481 457.93 131.662C456.052 130.089 453.3 128.912 450.388 127.8L450.275 129.677ZM448.67 139.991L451.297 129.259L449.366 128.217L446.738 138.949L448.67 139.991Z" fill="#0C0C0D"/>
</g>
<path opacity="0.4" d="M461.194 106.687C414.651 104.267 414.429 155.937 414.429 155.937C414.429 155.937 407.325 139.076 418.925 120.417C425.407 109.972 436.685 105.366 445.41 103.323C450.846 103.351 456.218 104.496 461.194 106.687Z" fill="white"/>
<path d="M485.303 143.594C485.302 152.726 482.201 161.588 476.506 168.726C470.811 175.865 462.86 180.859 453.956 182.888C451.019 183.564 448.013 183.903 444.999 183.898C434.309 184.095 423.98 180.038 416.282 172.619C408.584 165.2 404.148 155.027 403.951 144.338C403.754 133.649 407.811 123.319 415.23 115.621C422.649 107.923 432.822 103.487 443.511 103.29C444 103.29 444.499 103.29 444.999 103.29C455.687 103.293 465.937 107.54 473.495 115.098C481.053 122.656 485.3 132.906 485.303 143.594V143.594Z" stroke="#0C0C0D" stroke-width="1.52" stroke-linecap="round" stroke-linejoin="round"/>
<path d="M485.303 143.594C485.303 152.726 482.201 161.588 476.506 168.726C470.811 175.865 462.861 180.859 453.957 182.888C453.468 182.888 452.969 182.888 452.469 182.888C442.576 182.862 433.038 179.199 425.67 172.596C418.303 165.994 413.62 156.913 412.514 147.082C411.407 137.25 413.954 127.356 419.67 119.281C425.386 111.206 433.872 105.514 443.512 103.29C444 103.29 444.5 103.29 444.999 103.29C455.688 103.293 465.937 107.54 473.495 115.098C481.053 122.656 485.3 132.906 485.303 143.594V143.594Z" stroke="#0C0C0D" stroke-width="1.52" stroke-linecap="round" stroke-linejoin="round"/>
<path d="M424.398 178.248L432.911 177.86" stroke="#0C0C0D" stroke-width="1.52" stroke-linecap="round" stroke-linejoin="round"/>
<path d="M420.301 175.418L427.727 174.785" stroke="#0C0C0D" stroke-width="1.52" stroke-linecap="round" stroke-linejoin="round"/>
<path d="M416.971 172.432L424.397 171.799" stroke="#0C0C0D" stroke-width="1.52" stroke-linecap="round" stroke-linejoin="round"/>
<path d="M415.95 115.644H422.31" stroke="#0C0C0D" stroke-width="1.52" stroke-linecap="round" stroke-linejoin="round"/>
<path d="M419.091 112.714L425.429 112.425" stroke="#0C0C0D" stroke-width="1.52" stroke-linecap="round" stroke-linejoin="round"/>
<path d="M423.065 109.772L429.747 109.14" stroke="#0C0C0D" stroke-width="1.52" stroke-linecap="round" stroke-linejoin="round"/>
<path opacity="0.3" d="M454.079 182.855H453.956C451.019 183.531 448.013 183.87 444.999 183.865C434.463 183.827 424.361 179.666 416.857 172.272C409.352 164.878 405.04 154.839 404.846 144.305C404.651 133.771 408.589 123.58 415.816 115.914C423.043 108.248 432.984 103.717 443.511 103.29C443.878 103.29 444.266 103.29 444.621 103.29C434.798 106.387 418.314 114.301 413.908 130.807C407.681 154.261 421.7 180.89 454.079 182.855Z" fill="black"/>
<path opacity="0.1" d="M485.303 143.594C485.302 152.704 482.214 161.544 476.543 168.674C470.873 175.804 462.954 180.803 454.079 182.855H453.957C452.902 183.088 451.848 183.299 450.76 183.454L461.194 106.653C468.368 109.801 474.469 114.972 478.751 121.533C483.033 128.093 485.31 135.76 485.303 143.594Z" fill="black"/>
<path d="M508.169 80.1465C504.977 84.6544 500.352 87.9472 495.048 89.4874C489.744 91.0277 484.074 90.7243 478.965 88.6269L478.82 88.5603C478.063 88.2271 477.322 87.8567 476.6 87.4503C475.786 87.0123 475 86.523 474.247 85.9851C469.33 82.23 466.022 76.7484 464.99 70.648C463.959 64.5476 465.282 58.2831 468.691 53.1203C472.101 47.9575 477.343 44.2814 483.358 42.8345C489.374 41.3877 495.714 42.2781 501.098 45.3258L501.642 45.6699C501.897 45.8142 502.142 45.9918 502.397 46.1694C502.652 46.347 503.141 46.7133 503.507 47.0019C508.359 50.8937 511.543 56.4904 512.409 62.6499C513.276 68.8093 511.759 75.0672 508.169 80.1465Z" fill="#F2A829"/>
<path opacity="0.4" d="M471.383 80.4795C471.383 80.4795 467.399 68.7468 472.693 60.111C479.353 49.2885 489.554 44.349 503.44 47.013C503.44 47.013 495.914 41.9292 483.316 45.5367C470.717 49.1442 463.958 66.4824 471.383 80.4795Z" fill="white"/>
<path d="M508.169 80.1576C504.974 84.6616 500.348 87.9499 495.044 89.4861C489.74 91.0222 484.072 90.7154 478.965 88.6158C477.279 87.9271 475.678 87.0482 474.192 85.9962C469.244 82.2006 465.936 76.656 464.945 70.4992C463.955 64.3425 465.357 58.04 468.865 52.8842C472.373 47.7283 477.72 44.1098 483.81 42.7704C489.901 41.4311 496.273 42.4724 501.62 45.681C501.864 45.8253 502.12 45.9918 502.364 46.1694C507.632 49.9132 511.202 55.5929 512.29 61.9638C513.378 68.3348 511.896 74.8773 508.169 80.1576Z" stroke="#0C0C0D" stroke-width="1.52" stroke-linecap="round" stroke-linejoin="round"/>
<path d="M508.169 80.1576C504.974 84.6616 500.347 87.95 495.043 89.4861C489.74 91.0223 484.072 90.7155 478.964 88.6158L478.221 88.1274C473.398 84.6319 470.02 79.4945 468.721 73.6819C467.422 67.8693 468.292 61.7823 471.167 56.5664C474.042 51.3504 478.725 47.3651 484.333 45.3603C489.942 43.3556 496.089 43.4696 501.62 45.681C501.864 45.8253 502.119 45.9918 502.363 46.1694C507.632 49.9132 511.201 55.593 512.289 61.9639C513.378 68.3348 511.896 74.8773 508.169 80.1576Z" stroke="#0C0C0D" stroke-width="1.52" stroke-linecap="round" stroke-linejoin="round"/>
<path d="M486.313 83.3988L485.348 85.863L481.307 84.2757L482.273 81.8004C480.774 80.7449 479.688 79.201 479.202 77.4332C478.716 75.6654 478.86 73.7836 479.609 72.1101L480.053 71.0001L484.826 72.2988L484.371 73.4754C483.472 75.762 484.082 77.6046 485.969 78.3483C486.361 78.5432 486.79 78.6507 487.228 78.6632C487.665 78.6758 488.1 78.5932 488.502 78.4211C488.904 78.249 489.264 77.9916 489.557 77.6666C489.85 77.3416 490.069 76.9569 490.198 76.539C491.064 74.319 489.743 71.6439 488.111 68.6802C486.18 65.1726 484.426 61.221 485.991 57.225C487.557 53.229 490.509 51.2754 494.094 51.7638L495.071 49.2996L499.101 50.8869L498.135 53.34C501.154 55.4046 501.987 58.89 500.421 62.9415L500.1 63.7407L495.326 62.442L495.682 61.5429C496.636 59.1231 496.192 57.4914 494.572 56.8365C492.951 56.1816 491.564 56.8365 490.787 58.8234C489.921 61.0434 491.308 63.6852 492.873 66.6822C494.749 70.2231 496.57 74.1525 495.005 78.1374C494.411 79.8999 493.213 81.3953 491.622 82.3584C490.031 83.3215 488.15 83.6901 486.313 83.3988V83.3988Z" stroke="#0C0C0D" stroke-width="1.52" stroke-miterlimit="10"/>
<path opacity="0.3" d="M486.313 83.3988L485.348 85.863L481.307 84.2757L482.273 81.8004C480.774 80.7449 479.688 79.201 479.202 77.4332C478.716 75.6654 478.86 73.7836 479.609 72.1101L480.053 71.0001L484.826 72.2988L484.371 73.4754C483.472 75.762 484.082 77.6046 485.969 78.3483C486.361 78.5432 486.79 78.6507 487.228 78.6632C487.665 78.6758 488.1 78.5932 488.502 78.4211C488.904 78.249 489.264 77.9916 489.557 77.6666C489.85 77.3416 490.069 76.9569 490.198 76.539C491.064 74.319 489.743 71.6439 488.111 68.6802C486.18 65.1726 484.426 61.221 485.991 57.225C487.557 53.229 490.509 51.2754 494.094 51.7638L495.071 49.2996L499.101 50.8869L498.135 53.34C501.154 55.4046 501.987 58.89 500.421 62.9415L500.1 63.7407L495.326 62.442L495.682 61.5429C496.636 59.1231 496.192 57.4914 494.572 56.8365C492.951 56.1816 491.564 56.8365 490.787 58.8234C489.921 61.0434 491.308 63.6852 492.873 66.6822C494.749 70.2231 496.57 74.1525 495.005 78.1374C494.411 79.8999 493.213 81.3953 491.622 82.3584C490.031 83.3215 488.15 83.6901 486.313 83.3988Z" fill="black"/>
<path opacity="0.3" d="M501.043 45.3369C494.383 44.1492 485.947 43.4943 481.396 46.4469C473.037 51.8082 467.831 58.5681 467.909 69.5238C467.987 80.4795 478.221 88.1607 478.221 88.1607L478.82 88.5936C477.188 87.9118 475.636 87.0519 474.192 86.0295C469.275 82.2744 465.966 76.7929 464.935 70.6924C463.904 64.592 465.226 58.3276 468.636 53.1648C472.045 48.002 477.287 44.3258 483.303 42.8789C489.318 41.4321 495.658 42.3225 501.043 45.3702V45.3369Z" fill="black"/>
<path opacity="0.1" d="M508.169 80.1466C504.977 84.6544 500.352 87.9473 495.048 89.4875C489.744 91.0277 484.074 90.7244 478.965 88.627L478.82 88.5604C478.063 88.2272 477.322 87.8567 476.6 87.4504L503.44 47.0131C508.3 50.8951 511.495 56.4851 512.373 62.6423C513.252 68.7996 511.748 75.0602 508.169 80.1466Z" fill="black"/>
<path d="M157.771 298.994C161.472 303.965 163.38 310.043 163.184 316.238C162.988 322.432 160.699 328.377 156.691 333.104L156.624 333.153C156.143 333.709 155.654 334.253 155.123 334.78C154.193 335.703 153.198 336.561 152.147 337.345C146.384 341.606 139.181 343.441 132.082 342.456C124.982 341.472 118.55 337.747 114.163 332.079C109.776 326.411 107.783 319.25 108.611 312.131C109.439 305.011 113.021 298.499 118.591 293.988C118.791 293.839 119.003 293.681 119.197 293.537C119.257 293.483 119.321 293.435 119.39 293.393C119.46 293.331 119.535 293.275 119.614 293.226C122.596 291.035 125.995 289.481 129.602 288.658C134.794 287.458 140.223 287.796 145.226 289.631C150.229 291.467 154.588 294.721 157.771 298.994Z" fill="#F2A829"/>
<g filter="url(#filter2_b_2_1330)">
<path d="M130.544 295.802L130.022 295.018L129.167 295.265L129.457 295.958L130.544 295.802ZM133.52 294.943L134.607 294.787L134.199 293.812L132.998 294.159L133.52 294.943ZM132.777 301.147L133.3 301.931L134.153 301.684L133.864 300.991L132.777 301.147ZM130.584 301.783L129.497 301.939L129.905 302.915L131.107 302.567L130.584 301.783ZM128.351 296.438L129.438 296.282L129.03 295.307L127.829 295.654L128.351 296.438ZM125.353 297.304L124.831 296.52L123.976 296.766L124.266 297.46L125.353 297.304ZM127.56 302.585L128.1 303.364L128.931 303.11L128.647 302.428L127.56 302.585ZM121.816 304.34L121.276 303.561L120.445 303.815L120.729 304.496L121.816 304.34ZM123.281 307.847L122.195 308.003L122.602 308.979L123.804 308.631L123.281 307.847ZM125.831 307.11L125.308 306.326L125.308 306.326L125.831 307.11ZM126.811 307.247L126.196 307.893L126.196 307.893L126.811 307.247ZM127.53 308.053L126.443 308.209L126.444 308.209L127.53 308.053ZM133.458 322.241L134.545 322.085L134.545 322.085L133.458 322.241ZM132.898 323.68L133.42 324.465L133.42 324.464L132.898 323.68ZM130.807 324.284L130.284 323.5L129.531 323.717L129.686 324.338L130.807 324.284ZM131.776 328.176L130.655 328.23L130.935 329.353L132.298 328.96L131.776 328.176ZM137.597 326.494L138.684 326.338L138.277 325.363L137.075 325.71L137.597 326.494ZM139.79 331.744L138.703 331.9L139.111 332.875L140.312 332.528L139.79 331.744ZM142.745 330.89L143.267 331.674L144.122 331.428L143.832 330.734L142.745 330.89ZM140.552 325.641L140.03 324.856L139.176 325.103L139.466 325.797L140.552 325.641ZM142.746 325.007L143.833 324.851L143.426 323.876L142.224 324.223L142.746 325.007ZM144.939 330.256L143.852 330.412L144.26 331.388L145.461 331.041L144.939 330.256ZM147.915 329.397L148.437 330.181L149.292 329.934L149.002 329.241L147.915 329.397ZM145.732 324.171L145.204 323.388L144.357 323.637L144.645 324.327L145.732 324.171ZM151.409 314.403L150.322 314.559L150.322 314.559L151.409 314.403ZM145.354 309.652L145.308 308.818L145.308 308.818L145.354 309.652ZM144.799 309.614L143.78 309.152L142.966 310.266L144.783 310.443L144.799 309.614ZM145.274 304.255L144.187 304.411L144.187 304.411L145.274 304.255ZM135.763 300.311L134.677 300.467L135.084 301.442L136.286 301.095L135.763 300.311ZM139.108 321.769L138.023 321.929L138.431 322.889L139.621 322.556L139.108 321.769ZM145.743 315.857L146.828 315.697L146.828 315.697L145.743 315.857ZM136.031 314.528L135.518 313.741L134.648 313.985L134.946 314.688L136.031 314.528ZM141.212 306.304L142.297 306.145L142.265 306.069L142.215 305.996L141.212 306.304ZM135.581 312.024L134.496 312.183L134.904 313.148L136.097 312.81L135.581 312.024ZM141.212 306.303L140.126 306.463L140.158 306.539L140.209 306.611L141.212 306.303ZM132.654 305.101L132.139 304.315L131.272 304.56L131.568 305.26L132.654 305.101ZM131.066 296.587L134.042 295.728L132.998 294.159L130.022 295.018L131.066 296.587ZM133.864 300.991L131.631 295.646L129.457 295.958L131.69 301.303L133.864 300.991ZM131.107 302.567L133.3 301.931L132.254 300.363L130.061 300.999L131.107 302.567ZM127.264 296.594L129.497 301.939L131.671 301.627L129.438 296.282L127.264 296.594ZM125.875 298.088L128.873 297.222L127.829 295.654L124.831 296.52L125.875 298.088ZM128.647 302.428L126.44 297.148L124.266 297.46L126.473 302.741L128.647 302.428ZM122.356 305.119L128.1 303.364L127.02 301.806L121.276 303.561L122.356 305.119ZM124.368 307.691L122.903 304.184L120.729 304.496L122.195 308.003L124.368 307.691ZM125.308 306.326L122.759 307.063L123.804 308.631L126.353 307.894L125.308 306.326ZM127.427 306.601C126.803 306.254 126.017 306.121 125.308 306.326L126.353 307.894C126.324 307.903 126.28 307.907 126.235 307.9C126.193 307.895 126.18 307.884 126.196 307.893L127.427 306.601ZM128.617 307.897C128.415 307.414 128.02 306.93 127.427 306.601L126.196 307.893C126.24 307.917 126.362 308.014 126.443 308.209L128.617 307.897ZM134.545 322.085L128.617 307.897L126.444 308.209L132.372 322.397L134.545 322.085ZM133.42 324.464C134.074 324.275 134.433 323.853 134.59 323.451C134.751 323.038 134.742 322.555 134.545 322.085L132.372 322.397C132.438 322.556 132.434 322.711 132.392 322.819C132.346 322.937 132.294 322.92 132.375 322.896L133.42 324.464ZM131.329 325.069L133.42 324.465L132.375 322.896L130.284 323.5L131.329 325.069ZM132.896 328.121L131.927 324.23L129.686 324.338L130.655 328.23L132.896 328.121ZM137.075 325.71L131.254 327.391L132.298 328.96L138.12 327.279L137.075 325.71ZM140.877 331.587L138.684 326.338L136.511 326.65L138.703 331.9L140.877 331.587ZM142.223 330.106L139.268 330.959L140.312 332.528L143.267 331.674L142.223 330.106ZM139.466 325.797L141.658 331.046L143.832 330.734L141.639 325.485L139.466 325.797ZM142.224 324.223L140.03 324.856L141.074 326.425L143.269 325.792L142.224 324.223ZM146.026 330.1L143.833 324.851L141.66 325.163L143.852 330.412L146.026 330.1ZM147.393 328.612L144.417 329.472L145.461 331.041L148.437 330.181L147.393 328.612ZM144.645 324.327L146.828 329.553L149.002 329.241L146.819 324.015L144.645 324.327ZM150.322 314.559C151.327 316.964 151.159 318.814 150.245 320.218C149.325 321.63 147.589 322.687 145.204 323.388L146.26 324.954C148.969 324.158 151.142 322.896 152.324 321.081C153.511 319.257 153.634 316.972 152.496 314.247L150.322 314.559ZM145.4 310.487C146.245 310.536 146.945 310.59 147.676 311.009C148.432 311.443 149.415 312.387 150.322 314.559L152.496 314.247C151.519 311.908 150.319 310.526 148.941 309.736C147.538 308.932 146.152 308.866 145.308 308.818L145.4 310.487ZM144.783 310.443C144.993 310.464 145.211 310.476 145.4 310.487L145.308 308.818C145.104 308.806 144.951 308.797 144.816 308.784L144.783 310.443ZM144.187 304.411C144.689 305.612 144.813 306.451 144.72 307.139C144.627 307.826 144.309 308.43 143.78 309.152L145.818 310.075C146.405 309.272 146.857 308.471 146.989 307.498C147.121 306.525 146.924 305.447 146.361 304.099L144.187 304.411ZM136.286 301.095C137.489 300.748 139.074 300.596 140.501 300.984C141.833 301.346 143.283 302.248 144.187 304.411L146.361 304.099C145.271 301.492 143.313 300.033 141.061 299.421C138.905 298.835 136.731 299.096 135.241 299.526L136.286 301.095ZM132.433 295.1L134.677 300.467L136.85 300.155L134.607 294.787L132.433 295.1ZM139.621 322.556C141.905 321.915 144.077 321.182 145.491 320.141C146.213 319.61 146.765 318.98 147.021 318.22C147.279 317.457 147.218 316.616 146.828 315.697L144.658 316.017C144.937 316.675 144.952 317.201 144.804 317.641C144.654 318.086 144.319 318.497 143.785 318.89C142.687 319.698 140.872 320.343 138.595 320.982L139.621 322.556ZM134.946 314.688L138.023 321.929L140.193 321.608L137.116 314.368L134.946 314.688ZM146.828 315.697C146.444 314.796 145.9 314.044 145.107 313.495C144.289 312.928 143.324 312.658 142.306 312.589C141.319 312.521 140.26 312.638 139.162 312.846C138.056 313.055 136.837 313.371 135.518 313.741L136.544 315.315C137.847 314.949 138.979 314.658 139.97 314.471C140.968 314.282 141.75 314.214 142.363 314.256C142.945 314.296 143.338 314.431 143.651 314.647C143.99 314.882 144.349 315.293 144.658 316.018L146.828 315.697ZM140.126 306.463C140.567 307.505 140.554 308.251 139.971 308.925C139.335 309.658 137.921 310.429 135.066 311.238L136.097 312.81C139.061 311.971 140.961 311.063 141.936 309.938C142.962 308.754 142.855 307.464 142.297 306.145L140.126 306.463ZM140.209 306.611L140.209 306.612L142.215 305.996L142.215 305.996L140.209 306.611ZM133.169 305.887C135.268 305.294 136.884 304.943 138.067 305.011C138.609 305.041 138.975 305.157 139.253 305.333C139.543 305.516 139.865 305.847 140.126 306.463L142.297 306.144C141.943 305.308 141.404 304.617 140.619 304.121C139.823 303.617 138.901 303.394 137.973 303.341C136.217 303.241 134.168 303.741 132.139 304.315L133.169 305.887ZM136.667 311.865L133.739 304.942L131.568 305.26L134.496 312.183L136.667 311.865Z" fill="#0C0C0D"/>
</g>
<path opacity="0.4" d="M129.619 288.655C103.242 306.249 124.119 334.531 124.119 334.531C124.119 334.531 113.391 328.219 112.137 313.324C111.429 304.991 115.71 297.895 119.64 293.235C122.618 291.041 126.014 289.482 129.619 288.655Z" fill="white"/>
<path d="M157.771 298.994C161.482 303.977 163.391 310.072 163.185 316.281C162.979 322.491 160.671 328.446 156.638 333.172C155.31 334.735 153.808 336.141 152.161 337.363C146.409 341.815 139.124 343.799 131.909 342.88C124.694 341.96 118.14 338.212 113.689 332.461C109.237 326.709 107.253 319.424 108.172 312.209C109.091 304.994 112.839 298.44 118.591 293.988C118.858 293.79 119.13 293.587 119.403 293.384C125.235 289.042 132.554 287.194 139.748 288.246C146.943 289.298 153.426 293.164 157.771 298.994V298.994Z" stroke="#0C0C0D" stroke-width="1.52" stroke-linecap="round" stroke-linejoin="round"/>
<path d="M157.771 298.994C161.482 303.977 163.391 310.072 163.185 316.281C162.979 322.491 160.671 328.446 156.638 333.172C156.371 333.37 156.099 333.573 155.826 333.776C150.418 337.782 143.725 339.66 137.022 339.052C130.319 338.444 124.074 335.392 119.475 330.478C114.876 325.564 112.245 319.13 112.082 312.401C111.919 305.673 114.236 299.119 118.591 293.988C118.858 293.79 119.13 293.587 119.403 293.384C125.235 289.042 132.554 287.194 139.749 288.246C146.943 289.298 153.426 293.164 157.771 298.994V298.994Z" stroke="#0C0C0D" stroke-width="1.52" stroke-linecap="round" stroke-linejoin="round"/>
<path d="M138.625 342.653L143.112 338.981" stroke="#0C0C0D" stroke-width="1.52" stroke-linecap="round" stroke-linejoin="round"/>
<path d="M135.24 342.773L139.034 339.41" stroke="#0C0C0D" stroke-width="1.52" stroke-linecap="round" stroke-linejoin="round"/>
<path d="M132.209 342.497L136.004 339.134" stroke="#0C0C0D" stroke-width="1.52" stroke-linecap="round" stroke-linejoin="round"/>
<path d="M108.574 311.929L112.045 309.344" stroke="#0C0C0D" stroke-width="1.52" stroke-linecap="round" stroke-linejoin="round"/>
<path d="M109.097 309.054L112.438 306.321" stroke="#0C0C0D" stroke-width="1.52" stroke-linecap="round" stroke-linejoin="round"/>
<path d="M110.07 305.834L113.459 302.773" stroke="#0C0C0D" stroke-width="1.52" stroke-linecap="round" stroke-linejoin="round"/>
<path opacity="0.3" d="M156.691 333.104L156.624 333.153C155.296 334.716 153.794 336.123 152.147 337.345C146.384 341.606 139.181 343.441 132.082 342.456C124.982 341.472 118.55 337.747 114.163 332.079C109.776 326.411 107.783 319.25 108.611 312.131C109.439 305.011 113.021 298.499 118.591 293.988C118.791 293.839 119.003 293.681 119.197 293.537C115.095 299.219 109.318 310.236 113.622 321.032C119.756 336.359 138.227 345.19 156.691 333.104Z" fill="black"/>
<path opacity="0.1" d="M157.771 298.994C161.473 303.965 163.381 310.043 163.184 316.238C162.988 322.432 160.699 328.377 156.691 333.104L156.624 333.153C156.143 333.709 155.654 334.253 155.124 334.779L129.605 288.637C134.799 287.439 140.229 287.781 145.231 289.62C150.233 291.46 154.591 294.717 157.771 298.994Z" fill="black"/>
<path d="M495.604 392.734C485.272 405.162 472.955 415.795 459.152 424.202C454.851 426.775 450.403 429.096 445.832 431.151C414.297 445.325 378.355 446.247 344.744 438.099C274.07 420.972 236.574 358.59 231.813 289.337C230.536 270.622 227.672 250.409 235.254 232.605C242.835 214.801 258.164 203.745 275.502 196.064C288.09 190.458 301.687 186.695 314.041 183.621C336.399 178.097 359.982 180.531 380.741 190.503C395.271 197.396 405.616 209.373 417.837 219.463C419.132 220.528 420.435 221.59 421.745 222.648C434.09 232.585 447.067 241.71 460.595 249.965C481.141 262.497 502.175 274.319 515.307 295.364C536.252 328.909 518.581 365.428 495.604 392.734Z" fill="#F2A829"/>
<path opacity="0.4" d="M495.604 392.734C485.272 405.162 472.955 415.795 459.152 424.202C454.851 426.775 450.403 429.096 445.832 431.151C414.297 445.325 378.355 446.247 344.744 438.099C274.07 420.972 236.574 358.59 231.813 289.337C230.536 270.622 227.672 250.409 235.254 232.605C242.835 214.801 258.164 203.745 275.502 196.064C288.09 190.458 301.687 186.695 314.041 183.621C336.399 178.097 359.982 180.531 380.741 190.503C395.271 197.396 405.616 209.373 417.837 219.463C419.132 220.528 420.435 221.59 421.745 222.648C434.09 232.585 447.067 241.71 460.595 249.965C481.141 262.497 502.175 274.319 515.307 295.364C536.252 328.909 518.581 365.428 495.604 392.734Z" fill="white"/>
<path d="M421.7 222.648C420.391 221.597 419.088 220.532 417.793 219.451C405.583 209.339 395.216 197.396 380.697 190.503C359.936 180.536 336.355 178.103 313.997 183.621C284.615 190.913 248.174 202.147 235.187 232.616C227.606 250.376 230.47 270.622 231.757 289.337C236.575 358.59 274.07 420.972 344.744 438.099C383.195 447.423 424.664 444.87 459.152 424.202C472.955 415.795 485.272 405.162 495.604 392.734C518.581 365.428 536.252 328.909 515.329 295.364C502.209 274.274 481.174 262.497 460.617 249.965C447.067 241.712 434.067 232.587 421.7 222.648V222.648Z" stroke="#0C0C0D" stroke-width="1.52" stroke-miterlimit="10"/>
<path d="M314.641 346.136C308.757 347.916 303.047 350.227 297.58 353.04" stroke="#0C0C0D" stroke-width="1.52" stroke-linecap="round" stroke-linejoin="round"/>
<path d="M350.66 339.276C342.065 340.02 333.534 341.374 325.13 343.327" stroke="#0C0C0D" stroke-width="1.52" stroke-linecap="round" stroke-linejoin="round"/>
<path d="M343.168 337.5C343.168 337.5 310.001 318.208 269.974 333.67" stroke="#0C0C0D" stroke-width="1.52" stroke-linecap="round" stroke-linejoin="round"/>
<path opacity="0.1" d="M495.605 392.734C485.272 405.162 472.955 415.795 459.152 424.202C454.851 426.775 450.404 429.096 445.832 431.151C442.223 430.046 438.677 428.745 435.209 427.255C414.497 418.375 397.114 403.356 380.131 388.549C369.886 379.669 359.474 370.567 347.209 364.717C330.622 356.874 311.752 355.32 294.106 360.344C303.233 350.043 315.641 343.215 329.227 341.019C320.458 333.038 308.259 329.686 296.404 329.475C284.549 329.264 278.022 330.718 266.434 333.315C270.308 326.189 280.586 319.74 288.701 319.929C280.987 319.826 273.286 319.282 265.635 318.297C255.167 316.61 250.483 304.289 248.918 293.81C244.589 264.95 248.974 234.214 264.725 209.683C267.843 204.791 271.45 200.227 275.492 196.064C288.079 190.458 301.676 186.695 314.031 183.621C336.388 178.097 359.972 180.531 380.731 190.503C395.261 197.396 405.606 209.373 417.827 219.463C419.122 220.528 420.424 221.59 421.734 222.648C434.079 232.585 447.057 241.71 460.584 249.965C481.13 262.497 502.165 274.319 515.296 295.364C536.253 328.909 518.582 365.428 495.605 392.734Z" fill="black"/>
<path d="M507.17 391.89C513.394 397.064 519.905 401.881 526.673 406.32C539.871 407.208 533.955 423.159 533.955 423.159L522.655 430.429C522.655 430.429 503.308 415.056 492.74 410.072C482.173 405.088 507.17 391.89 507.17 391.89Z" fill="white"/>
<path opacity="0.3" d="M413.387 223.947C413.387 223.947 411.577 206.043 408.691 201.014L364.868 192.09V188.693C364.868 188.693 365.879 182.788 356.111 179.092C346.343 175.396 325.985 180.202 320.735 184.176C315.485 188.149 317.405 194.987 317.405 194.987C317.405 194.987 299.756 203.9 291.83 207.297C285.343 210.29 279.018 213.625 272.883 217.287C272.883 217.287 269.286 258.446 269.997 268.003C270.707 277.56 269.42 286.551 270.241 291.846C271.062 297.14 271.706 300.148 277.256 304.655C282.806 309.162 287.857 315.755 302.409 309.217L300.377 307.608L396.17 275.34L413.387 223.947Z" fill="black"/>
<path d="M413.387 223.947C413.387 223.947 411.577 206.043 408.691 201.014L364.868 192.09V188.693C364.868 188.693 365.879 182.788 356.111 179.092C346.343 175.396 325.985 180.202 320.735 184.176C315.485 188.149 317.405 194.987 317.405 194.987C317.405 194.987 299.756 203.9 291.83 207.297C285.343 210.29 279.018 213.625 272.883 217.287C272.883 217.287 269.286 258.446 269.997 268.003C270.707 277.56 269.42 286.551 270.241 291.846C271.062 297.14 271.706 300.148 277.256 304.655C282.806 309.162 287.857 315.755 302.409 309.217L300.377 307.608L396.17 275.34L413.387 223.947Z" fill="#F2A829"/>
<path opacity="0.05" d="M413.387 223.947C413.387 223.947 411.577 206.043 408.691 201.014L364.868 192.09V188.693C364.868 188.693 365.879 182.788 356.111 179.092C346.343 175.396 325.985 180.202 320.735 184.176C315.485 188.149 317.405 194.987 317.405 194.987C317.405 194.987 299.756 203.9 291.83 207.297C285.343 210.29 279.018 213.625 272.883 217.287C272.883 217.287 269.286 258.446 269.997 268.003C270.707 277.56 269.42 286.551 270.241 291.846C271.062 297.14 271.706 300.148 277.256 304.655C282.806 309.162 287.857 315.755 302.409 309.217L300.377 307.608L396.17 275.34L413.387 223.947Z" fill="black"/>
<path opacity="0.1" d="M409.269 203.19H390.931C389.207 203.193 387.54 203.806 386.225 204.922C384.91 206.038 384.033 207.583 383.75 209.284L374.714 263.674C374.714 263.674 362.271 264.706 353.458 271.133C344.644 277.56 322.966 231.706 288.712 231.684C288.712 231.684 298.568 254.217 300.755 272.199C300.755 272.199 279.343 269.868 275.791 278.248C272.239 286.629 277.401 302.335 286.458 296.252C295.516 290.17 304.041 280.024 310.09 286.44C316.14 292.856 343.168 296.308 343.168 296.308L384.76 275.34L400.888 267.759L409.269 203.19Z" fill="black"/>
<path opacity="0.4" d="M351.049 176.228C351.049 176.228 361.461 179.114 363.148 182.611C364.835 186.107 364.658 194.954 364.658 194.954C362.131 200.867 358.303 206.133 353.458 210.361L345.688 194.954L346.387 212.425C346.387 212.425 331.646 209.972 325.386 205.266L319.137 200.548C319.137 200.548 316.439 191.668 316.828 188.66C317.216 185.652 328.461 179.547 328.461 179.547L351.049 176.228Z" fill="white"/>
<path d="M515.318 423.203L536.142 435.924C536.142 435.924 550.783 426.533 557.765 420.051C564.747 413.568 580.431 399.76 580.431 399.76L590.421 386.318C590.421 386.318 583.494 377.748 571.95 384.63C557.032 393.51 538.839 406.409 526.707 406.287C526.707 406.287 529.093 421.194 515.396 423.203" fill="#F2A829"/>
<path d="M347.519 122.415C347.519 122.415 356.966 136.712 358.686 141.341C360.407 145.969 361.794 152.818 361.45 156.115C361.106 159.412 357.643 177.072 355.9 177.582L354.224 179.48L355.334 186.962C355.334 186.962 347.941 199.738 326.207 190.369C326.207 190.369 325.364 175.451 322.722 170.767C320.08 166.083 316.129 171.655 312.166 158.124C308.203 144.593 320.824 130.374 320.824 130.374L347.519 122.415Z" fill="white"/>
<path opacity="0.5" d="M581.352 382.144C581.352 382.144 570.64 384.009 567.166 390.347C563.692 396.685 557.021 408.462 554.745 414.157C552.47 419.851 533.655 433.604 533.655 433.604L536.153 435.924C536.153 435.924 551.471 426.455 560.717 417.453C569.963 408.451 590.354 385.807 590.354 385.807C590.354 385.807 588.889 384.353 581.352 382.144Z" fill="white"/>
<path d="M326.241 282.366C326.241 282.366 312.521 280.302 306.116 291.524C299.712 302.746 300.367 307.608 300.367 307.608C300.367 307.608 309.435 315.844 321.901 315.378C334.366 314.911 352.514 300.637 358.431 295.986C364.347 291.335 379.265 278.026 389.444 280.779L390.554 271.155C390.554 271.155 389.555 266.837 380.853 268.003C372.15 269.168 368.732 274.13 365.923 274.13C363.115 274.13 360.462 271.433 354.823 281.068C354.812 281.068 335.021 284.575 326.241 282.366Z" fill="white"/>
<path d="M344.067 142.972C344.359 144.771 344.774 146.548 345.31 148.289C345.511 149.14 345.889 149.938 346.42 150.631C347.464 151.741 349.151 152.03 350.694 152.263C350.949 152.281 351.19 152.383 351.382 152.552C351.506 152.751 351.565 152.984 351.548 153.218C351.539 154.966 351.014 156.673 350.039 158.124" stroke="#0C0C0D" stroke-width="1.52" stroke-linecap="round" stroke-linejoin="round"/>
<path opacity="0.1" d="M483.372 396.33L474.17 407.796C474.17 407.796 484.271 417.131 494.727 420.595C505.183 424.058 523.487 430.585 526.551 435.613L525.374 429.63C525.374 429.63 496.747 412.07 490.176 407.874C488.233 406.6 486.609 404.896 485.43 402.894C484.25 400.893 483.546 398.647 483.372 396.33Z" fill="black"/>
<path opacity="0.1" d="M515.318 423.203L533.644 433.604C533.644 433.604 542.691 427.41 547.131 422.848C551.571 418.286 557.043 413.224 560.451 403.001C565.102 388.871 578.422 382.144 578.422 382.144C578.422 382.144 559.896 390.869 550.25 397.684C540.604 404.5 531.202 407.386 525.741 406.919C525.686 406.953 530.07 420.828 515.318 423.203Z" fill="black"/>
<path d="M337.607 160.644C337.607 160.644 344.811 166.294 352.292 164.173C352.292 164.173 345.233 178.159 337.607 160.644Z" fill="white" stroke="#0C0C0D" stroke-width="1.52" stroke-linecap="round" stroke-linejoin="round"/>
<path d="M337.341 148.434C337.551 149.988 337.074 151.331 336.297 151.442C335.52 151.553 334.71 150.332 334.499 148.811C334.288 147.29 334.754 145.914 335.542 145.803C336.33 145.692 337.174 146.88 337.341 148.434Z" fill="#0C0C0D"/>
<path d="M353.025 145.603C353.225 147.168 352.758 148.511 351.981 148.611C351.204 148.711 350.383 147.501 350.183 145.992C349.983 144.482 350.439 143.083 351.227 142.984C352.015 142.884 352.814 144.049 353.025 145.603Z" fill="#0C0C0D"/>
<path d="M336.231 141.84C336.231 141.84 332.035 139.676 329.049 144.316" stroke="#0C0C0D" stroke-width="1.52" stroke-linecap="round" stroke-linejoin="round"/>
<path d="M346.986 138.954C346.986 138.954 351.426 135.147 353.99 138.954" stroke="#0C0C0D" stroke-width="1.52" stroke-linecap="round" stroke-linejoin="round"/>
<path d="M321.978 156.126C321.978 156.126 319.281 152.141 316.428 152.263C313.575 152.385 312.443 156.381 313.464 160.244C314.485 164.107 318.737 169.501 321.956 168.991C323.772 168.757 325.428 167.835 326.584 166.416" stroke="#0C0C0D" stroke-width="1.52" stroke-linecap="round" stroke-linejoin="round"/>
<path d="M347.841 125.634C350.871 128.154 354.079 130.896 355.611 134.603C356.965 137.755 357.265 141.263 358.508 144.449C359.829 147.856 361.272 151.42 361.383 155.138C361.324 158.578 360.874 162.001 360.04 165.339C359.579 168.233 358.892 171.087 357.986 173.875C356.488 177.86 353.724 180.313 350.017 182.2C347.319 183.576 342.824 185.53 339.905 183.687C338.206 182.577 335.653 179.403 333.533 176.483" stroke="#0C0C0D" stroke-width="1.52" stroke-linecap="round" stroke-linejoin="round"/>
<path d="M321.978 168.991C321.978 168.991 326.751 180.69 325.597 188.915" stroke="#0C0C0D" stroke-width="1.52" stroke-linecap="round" stroke-linejoin="round"/>
<path d="M320.757 154.161C321.393 153.691 321.896 153.065 322.219 152.344C322.542 151.623 322.673 150.83 322.6 150.043C322.422 148.245 321.179 146.58 321.423 144.782C321.628 143.921 321.949 143.092 322.378 142.318C323.024 140.824 323.309 139.199 323.209 137.575C323.108 135.951 322.626 134.374 321.801 132.971C321.801 132.971 336.963 133.682 344.067 129.164C351.171 124.646 356.588 113.091 352.292 107.575C347.997 102.058 339.627 109.584 333.422 110.416C327.218 111.249 305.151 114.767 301.632 123.27C298.113 131.773 303.475 134.825 303.641 142.939C303.808 151.053 303.808 166.427 315.94 165.017C315.94 165.017 311.4 159.145 314.552 153.096C316.695 150.554 320.757 154.161 320.757 154.161Z" fill="#0C0C0D"/>
<path d="M350.494 117.165C352.552 118.769 354.259 120.779 355.508 123.07C356.757 125.362 357.521 127.886 357.753 130.485C358.43 136.568 369.219 148.389 361.438 155.127C361.438 155.127 359.629 147.967 358.563 144.438C357.498 140.908 356.132 134.448 354.345 132.228C352.558 130.008 343.079 122.238 343.079 122.238L350.494 117.165Z" fill="#0C0C0D"/>
<path d="M323.377 188.66C323.377 188.66 330.858 193.588 344.755 193.788L346.387 212.425C346.387 212.425 330.758 211.237 319.136 200.548C319.136 200.548 315.995 192.234 316.828 188.66C317.66 185.086 325.13 181.545 325.13 181.545" stroke="#0C0C0D" stroke-width="1.52" stroke-linecap="round" stroke-linejoin="round"/>
<path d="M354.812 180.324L355.256 186.984C352.326 190.035 348.733 192.371 344.755 193.81L353.457 210.383C353.457 210.383 363.836 202.302 364.868 193.81C364.868 193.81 364.957 185.119 363.148 182.633C361.338 180.146 354.745 178.981 354.745 178.981" stroke="#0C0C0D" stroke-width="1.52" stroke-linecap="round" stroke-linejoin="round"/>
<path opacity="0.8" d="M312.698 128.82C313.808 126.034 316.85 124.38 319.813 123.936C322.777 123.492 325.819 123.803 328.816 123.725C332.965 123.692 337.03 122.541 340.582 120.395C342.346 119.32 343.882 117.908 345.101 116.24C346.32 114.572 347.198 112.679 347.686 110.671" stroke="white" stroke-width="1.52" stroke-linecap="round" stroke-linejoin="round"/>
<path opacity="0.8" d="M305.539 128.276C307.415 122.582 313.497 119.063 319.48 118.564C322.444 118.308 325.441 118.652 328.36 118.308C331.28 117.964 334.388 116.743 335.931 114.201" stroke="white" stroke-width="1.52" stroke-linecap="round" stroke-linejoin="round"/>
<path d="M302.386 309.217C287.956 316.699 282.828 308.995 274.792 302.624C266.755 296.252 272.028 284.864 270.352 266.604C268.676 248.345 272.849 217.287 272.849 217.287C272.849 217.287 276.446 216.466 286.425 210.361C296.404 204.256 317.405 194.954 317.405 194.954" stroke="#0C0C0D" stroke-width="1.52" stroke-linecap="round" stroke-linejoin="round"/>
<path d="M316.683 281.578C316.683 281.578 314.397 274.33 307.937 274.141C301.476 273.953 291.287 276.861 284.027 290.591" stroke="#0C0C0D" stroke-width="1.52" stroke-linecap="round" stroke-linejoin="round"/>
<path d="M306.46 273.708C306.059 273.682 305.665 273.588 305.294 273.431C299.969 271.514 294.189 271.251 288.711 272.676" stroke="#0C0C0D" stroke-width="1.52" stroke-linecap="round" stroke-linejoin="round"/>
<path d="M284.993 227.199C296.748 240.186 302.475 257.369 307.903 274.019" stroke="#0C0C0D" stroke-width="1.52" stroke-linecap="round" stroke-linejoin="round"/>
<path d="M364.868 192.09C364.868 192.09 386.18 197.174 396.592 198.384C407.004 199.594 408.691 201.048 408.691 201.048L410.634 208.307" stroke="#0C0C0D" stroke-width="1.52" stroke-linecap="round" stroke-linejoin="round"/>
<path d="M464.18 204.722L391.597 207.508L385.67 282.155H398.102L461.128 268.047L469.053 206.509L464.18 204.722Z" fill="white"/>
<path d="M389.444 284.364L468.831 208.274L461.127 268.047L389.444 284.364Z" fill="#F2A829"/>
<path opacity="0.7" d="M389.444 284.364L468.831 208.274L461.127 268.047L389.444 284.364Z" fill="white"/>
<path d="M389.444 282.366L395.793 210.36L469.053 206.509L461.127 268.047L389.444 282.366Z" stroke="#0C0C0D" stroke-width="1.52" stroke-linecap="round" stroke-linejoin="round"/>
<path d="M443.797 243.055C442.749 252.423 437.723 259.537 432.578 258.968C427.433 258.399 424.146 250.312 425.194 240.945C426.242 231.577 431.292 224.463 436.437 225.032C441.582 225.601 444.869 233.688 443.797 243.055Z" fill="#0C0C0D"/>
<path d="M461.127 268.047C461.127 268.047 494.672 267.093 505.161 274.019C515.651 280.945 521.811 315.677 520.357 334.126C518.903 352.574 506.249 394.909 506.249 394.909L482.006 367.47C482.006 367.47 470.063 324.047 476.579 307.042C476.579 307.042 444.389 308.851 431.712 304.877C431.712 304.877 420.357 286.285 400.888 280.135L461.127 268.047Z" fill="#0C0C0D"/>
<path d="M511.366 395.631C502.756 387.593 495.024 378.663 488.3 368.991C476.568 350.864 460.35 333.471 443.667 319.895C430.225 308.995 427.184 291.235 410.6 282.322C383.128 267.592 359.374 296.863 350.494 302.79C341.614 308.718 326.24 315.433 326.24 315.433C326.24 315.433 331.857 336.523 348.351 339.021C364.846 341.518 381.529 330.141 389.421 335.635C397.314 341.13 403.152 365.661 429.215 380.035C450.516 391.779 479.542 403.234 494.516 410.96C497.846 412.691 500.333 414.512 502.22 415.544C507.392 418.363 512.92 421.682 518.137 424.968L536.108 435.913C536.108 435.913 554.145 425.245 561.072 415.411C561.993 414.09 563.913 410.571 565.712 407.175C569.63 399.749 574.592 393.089 581.463 389.415C586.213 386.851 590.442 386.085 590.343 385.818C589.887 384.975 581.274 380.568 575.424 382.977C563.037 388.094 538.272 407.752 526.584 406.287C521.148 403.285 516.046 399.713 511.366 395.631V395.631Z" stroke="#0C0C0D" stroke-width="1.52" stroke-miterlimit="10"/>
<path d="M511.366 395.631C500.566 399.993 496.215 406.731 494.55 410.971C479.576 403.201 450.549 391.79 429.248 380.046C403.185 365.616 397.391 341.13 389.455 335.646C381.518 330.163 364.824 341.574 348.385 339.032C331.946 336.49 326.24 315.422 326.24 315.422C326.24 315.422 341.625 308.762 350.505 302.835C359.385 296.907 379.864 267.625 410.6 282.366C427.572 290.502 430.225 309.006 443.667 319.94C460.317 333.471 476.568 350.909 488.3 369.035C495.007 378.706 502.741 387.623 511.366 395.631Z" fill="#0C0C0D"/>
<path d="M430.203 301.525C430.203 301.525 421.889 284.631 408.558 281.356" stroke="white" stroke-width="1.52" stroke-linecap="round" stroke-linejoin="round"/>
<path d="M386.624 267.892C377.456 265.894 367.388 276.028 363.148 274.13C359.996 272.72 354.812 281.068 354.812 281.068C346.279 282.3 337.651 282.734 329.038 282.366C316.683 281.578 310.834 283.987 306.46 290.591L300.355 306.764C300.355 306.764 316.461 321.194 333.655 312.791C350.849 304.389 373.693 279.036 389.433 279.125" stroke="#0C0C0D" stroke-width="1.52" stroke-linecap="round" stroke-linejoin="round"/>
<path d="M585.548 394.909C584.438 397.129 570.64 408.873 558.752 419.14C558.752 418.985 562.082 412.714 563.459 410.038C566.622 404.133 574.792 387.938 590.343 385.807C592.552 387.139 585.548 394.909 585.548 394.909Z" fill="#0C0C0D"/>
<path d="M579.631 382.266C563.903 385.396 560.328 405.576 554.745 414.157C549.162 422.737 533.655 434.403 533.655 434.403" stroke="#0C0C0D" stroke-width="1.52" stroke-miterlimit="10"/>
<path d="M525.174 429.253C527.739 433.937 526.529 439.376 525.174 442.783C524.511 444.476 523.686 446.1 522.71 447.634C500.444 443.971 478.177 432.005 478.177 432.005L472.438 414.245L471.517 411.404L480.164 399.76" stroke="#0C0C0D" stroke-width="1.52" stroke-miterlimit="10"/>
<path d="M385.67 279.558L391.597 207.508L464.18 204.722L469.053 206.509" stroke="#0C0C0D" stroke-width="1.52" stroke-linecap="round" stroke-linejoin="round"/>
<path d="M526.04 414.156C526.04 414.156 535.964 415.932 543.589 409.716C551.215 403.5 563.503 389.437 563.503 389.437" stroke="#0C0C0D" stroke-width="1.52" stroke-miterlimit="10"/>
<path d="M551.571 396.896C551.571 396.896 549.561 402.923 551.571 408.24" stroke="#0C0C0D" stroke-width="1.52" stroke-linecap="round" stroke-linejoin="round"/>
<path d="M482.129 398.261L474.17 407.841C474.17 407.841 482.184 416.599 493.495 420.239C504.806 423.88 525.008 430.063 526.684 436.645" stroke="#0C0C0D" stroke-width="1.52" stroke-miterlimit="10"/>
<path d="M431.96 232.15L434.887 232.705L434.079 236.963L431.152 236.408L431.96 232.15Z" fill="white"/>
<path fill-rule="evenodd" clip-rule="evenodd" d="M434.079 236.963L433.334 240.893L435.94 241.387C437.299 241.645 438.094 243.467 437.717 245.456L437.685 245.62C437.291 247.7 435.802 249.164 434.382 248.895C432.962 248.625 432.112 246.718 432.507 244.638L433.221 240.871L430.407 240.337L429.693 244.104C428.886 248.354 430.585 252.246 433.487 252.796L433.785 252.853C436.687 253.404 439.694 250.404 440.5 246.154L440.531 245.99C441.32 241.83 439.657 238.021 436.817 237.482L434.079 236.963Z" fill="white"/>
<defs>
<filter id="filter0_b_2_1330" x="221.47" y="140.47" width="34.059" height="39.059" filterUnits="userSpaceOnUse" color-interpolation-filters="sRGB">
<feFlood flood-opacity="0" result="BackgroundImageFix"/>
<feGaussianBlur in="BackgroundImageFix" stdDeviation="2.76476"/>
<feComposite in2="SourceAlpha" operator="in" result="effect1_backgroundBlur_2_1330"/>
<feBlend mode="normal" in="SourceGraphic" in2="effect1_backgroundBlur_2_1330" result="shape"/>
</filter>
<filter id="filter1_b_2_1330" x="422.128" y="106.353" width="50.6955" height="71.2091" filterUnits="userSpaceOnUse" color-interpolation-filters="sRGB">
<feFlood flood-opacity="0" result="BackgroundImageFix"/>
<feGaussianBlur in="BackgroundImageFix" stdDeviation="2.76476"/>
<feComposite in2="SourceAlpha" operator="in" result="effect1_backgroundBlur_2_1330"/>
<feBlend mode="normal" in="SourceGraphic" in2="effect1_backgroundBlur_2_1330" result="shape"/>
</filter>
<filter id="filter2_b_2_1330" x="114.915" y="288.283" width="43.8998" height="50.1216" filterUnits="userSpaceOnUse" color-interpolation-filters="sRGB">
<feFlood flood-opacity="0" result="BackgroundImageFix"/>
<feGaussianBlur in="BackgroundImageFix" stdDeviation="2.76476"/>
<feComposite in2="SourceAlpha" operator="in" result="effect1_backgroundBlur_2_1330"/>
<feBlend mode="normal" in="SourceGraphic" in2="effect1_backgroundBlur_2_1330" result="shape"/>
</filter>
</defs>
</svg>
