<svg width="121" height="120" viewBox="0 0 121 120" fill="none" xmlns="http://www.w3.org/2000/svg">
<g clip-path="url(#clip0_1_733)">
<g filter="url(#filter0_b_1_733)">
<path d="M36.877 1.31054C36.928 1.3304 36.9506 1.34563 36.953 1.34702L37.0009 1.38879L37.0553 1.42017L93.6021 34.0675C95.5845 35.212 97.2082 38.0244 97.2082 40.3134V105.608C97.2082 105.782 97.1107 106.069 96.8384 106.441C96.5785 106.795 96.1973 107.177 95.7222 107.569C94.7732 108.353 93.4782 109.153 92.1085 109.836C90.7389 110.519 89.3049 111.08 88.0813 111.39C87.4688 111.546 86.917 111.636 86.4576 111.651C85.9833 111.666 85.669 111.595 85.5049 111.503L30.5044 78.007L30.5044 78.0069L30.4925 78C28.5102 76.8555 26.8865 74.0431 26.8865 71.7541V71.7433L26.8861 71.7323L24.4414 4.97274L30.7668 2.21405L30.7702 2.21301L30.8158 2.19948C30.8559 2.18763 30.915 2.17031 30.9908 2.14857C31.1423 2.10507 31.3602 2.04387 31.6251 1.97326C32.1552 1.83194 32.8718 1.65338 33.62 1.50358C34.3702 1.35337 35.1434 1.23391 35.7889 1.20768C36.1126 1.19453 36.3926 1.20542 36.6147 1.24289C36.7257 1.26161 36.8126 1.28543 36.877 1.31054Z" fill="#7C7A86" stroke="#0C0C0D"/>
<g filter="url(#filter1_bii_1_733)">
<path d="M84.7109 37.124L28.1641 4.47665C25.9426 3.19408 24.125 4.24346 24.125 6.80861V72.1033C24.125 74.6685 25.9426 77.8166 28.1641 79.0992L84.7109 111.747C86.9324 113.029 88.75 111.98 88.75 109.415V44.1199C88.75 41.5547 86.9324 38.4066 84.7109 37.124Z" fill="#F7F7F8"/>
<path d="M28.1641 4.97665L84.7109 37.624C86.6933 38.7685 88.317 41.5809 88.317 43.8699V109.165C88.317 111.454 86.6933 112.391 84.7109 111.247L28.1641 78.5992C26.1817 77.4547 24.558 74.6423 24.558 72.3533V7.05861C24.558 4.7696 26.1817 3.83215 28.1641 4.97665Z" stroke="#0C0C0D"/>
</g>
<path d="M22.8663 76.5417C21.8082 73.8135 21.8088 71.2056 22.8678 69.7003C23.1241 69.3359 23.6298 68.9181 24.3024 68.5164C24.9692 68.1182 25.7796 67.7476 26.6257 67.467C27.4728 67.186 28.3472 66.998 29.1414 66.959C29.9519 66.9192 30.6205 67.0388 31.0743 67.3009C34.3469 69.1913 36.9993 73.7868 36.9984 77.5653C36.9983 78.4529 36.669 79.3711 36.0753 80.2221C35.4866 81.066 34.6606 81.8114 33.7219 82.3735C32.7832 82.9357 31.7426 83.3083 30.7315 83.4184C29.7116 83.5294 28.7627 83.3689 27.9973 82.9268C25.8803 81.7039 23.9243 79.2699 22.8663 76.5417Z" fill="#F2A829" stroke="#0C0C0D"/>
<path d="M22.3839 76.3771C21.3258 73.6489 21.3264 71.0409 22.3854 69.5356C23.4443 68.0303 25.4008 67.8563 27.5178 69.0791C30.7905 70.9695 33.4428 75.5651 33.442 79.3435C33.4412 83.122 30.7875 84.6525 27.5149 82.7621C25.3979 81.5392 23.4419 79.1053 22.3839 76.3771Z" fill="white" stroke="#0C0C0D"/>
</g>
<path d="M79.2716 64.7999C79.2716 70.9744 75.9311 76.2306 71.1707 79.1494C66.4091 82.0688 60.3381 82.582 55 79.5C44.228 73.2808 35.4955 58.1557 35.4955 45.7172C35.4955 39.5428 38.836 34.2865 43.5964 31.3678C48.358 28.4483 54.4289 27.9352 59.7671 31.0171C70.5391 37.2364 79.2716 52.3614 79.2716 64.7999Z" fill="#7C7A86" stroke="#0C0C0D"/>
<circle cx="23.0218" cy="23.0218" r="22.5218" transform="matrix(0.866025 0.5 0 1 35.1675 22.6898)" fill="#F2A829" stroke="#0C0C0D"/>
<path d="M84.1694 115.917C82.5198 117.215 79.9731 117.328 77.4955 115.928C75.098 114.573 73.71 112.094 71.9414 108.759L57.6956 79.4085C57.5892 79.1841 57.4818 78.9592 57.3745 78.7343C56.6829 77.2859 55.9933 75.8416 55.5961 74.5722C55.3703 73.8506 55.254 73.2289 55.2773 72.7225C55.3002 72.2262 55.4582 71.8084 55.831 71.5135C56.6013 70.904 58.1129 70.9642 59.7524 71.553C61.39 72.1411 63.009 73.2038 63.9857 74.4099L83.2381 99.8202C85.3146 102.654 86.6994 106.065 87.0367 109.185C87.1997 110.693 86.9136 112.042 86.3615 113.19C85.8104 114.335 85.0057 115.257 84.1694 115.917Z" fill="#F2A829" stroke="#0C0C0D"/>
<path d="M81.438 116.124C79.8016 117.412 77.4339 117.338 74.9376 115.928C72.4455 114.519 70.0596 111.911 68.3849 108.759L54.1392 79.4086C52.7061 76.3818 52.6517 73.2679 54.2329 72.0168C55.8083 70.7703 58.3849 71.8795 60.4291 74.4097L79.6817 99.8202C81.7581 102.654 83.143 106.065 83.4803 109.185C83.8179 112.308 83.073 114.835 81.438 116.124Z" fill="white" stroke="#0C0C0D"/>
<path d="M54.9023 52.7604C53.4286 51.91 52.067 52.0321 51.3305 53.0808C50.5939 54.1295 50.5943 55.9454 51.3315 57.8446C52.0687 59.7437 53.4306 61.4375 54.9044 62.2879C57.1825 63.6025 59.0289 62.5355 59.0283 59.9045C59.0278 57.2736 57.1805 54.0751 54.9023 52.7604Z" fill="white" stroke="#0C0C0D" stroke-width="0.5"/>
</g>
<defs>
<filter id="filter0_b_1_733" x="15.1577" y="-5.35669" width="88.4835" height="123.651" filterUnits="userSpaceOnUse" color-interpolation-filters="sRGB">
<feFlood flood-opacity="0" result="BackgroundImageFix"/>
<feGaussianBlur in="BackgroundImageFix" stdDeviation="3"/>
<feComposite in2="SourceAlpha" operator="in" result="effect1_backgroundBlur_1_733"/>
<feBlend mode="normal" in="SourceGraphic" in2="effect1_backgroundBlur_1_733" result="shape"/>
</filter>
<filter id="filter1_bii_1_733" x="18.125" y="-2.07074" width="76.625" height="120.365" filterUnits="userSpaceOnUse" color-interpolation-filters="sRGB">
<feFlood flood-opacity="0" result="BackgroundImageFix"/>
<feGaussianBlur in="BackgroundImageFix" stdDeviation="3"/>
<feComposite in2="SourceAlpha" operator="in" result="effect1_backgroundBlur_1_733"/>
<feBlend mode="normal" in="SourceGraphic" in2="effect1_backgroundBlur_1_733" result="shape"/>
<feColorMatrix in="SourceAlpha" type="matrix" values="0 0 0 0 0 0 0 0 0 0 0 0 0 0 0 0 0 0 127 0" result="hardAlpha"/>
<feOffset dx="1" dy="-1"/>
<feGaussianBlur stdDeviation="1"/>
<feComposite in2="hardAlpha" operator="arithmetic" k2="-1" k3="1"/>
<feColorMatrix type="matrix" values="0 0 0 0 0.0666667 0 0 0 0 0.0666667 0 0 0 0 0.0666667 0 0 0 0.1 0"/>
<feBlend mode="plus-darker" in2="shape" result="effect2_innerShadow_1_733"/>
<feColorMatrix in="SourceAlpha" type="matrix" values="0 0 0 0 0 0 0 0 0 0 0 0 0 0 0 0 0 0 127 0" result="hardAlpha"/>
<feOffset dx="1" dy="1"/>
<feGaussianBlur stdDeviation="0.5"/>
<feComposite in2="hardAlpha" operator="arithmetic" k2="-1" k3="1"/>
<feColorMatrix type="matrix" values="0 0 0 0 1 0 0 0 0 1 0 0 0 0 1 0 0 0 0.67 0"/>
<feBlend mode="overlay" in2="effect2_innerShadow_1_733" result="effect3_innerShadow_1_733"/>
</filter>
<clipPath id="clip0_1_733">
<rect width="120" height="120" fill="white" transform="translate(0.5)"/>
</clipPath>
</defs>
</svg>
