<svg width="121" height="120" viewBox="0 0 121 120" fill="none" xmlns="http://www.w3.org/2000/svg">
<g clip-path="url(#clip0_1_749)">
<path d="M64.4261 104.461C64.4152 104.455 64.4059 104.451 64.3982 104.447C64.3906 104.442 64.3814 104.436 64.3705 104.428C64.3293 104.4 64.2647 104.355 64.1765 104.29C64 104.162 63.7289 103.957 63.3603 103.659C62.6231 103.064 61.4963 102.097 59.9583 100.622C56.8821 97.6717 52.1619 92.6925 45.6265 84.6024C39.1598 76.5971 35.0404 67.9555 32.5353 61.2983C31.2835 57.9717 30.4376 55.1476 29.9051 53.1575C29.6389 52.1626 29.4512 51.3769 29.3305 50.8418C29.2701 50.5743 29.2265 50.3695 29.1981 50.2326C29.1839 50.1641 29.1736 50.1127 29.1669 50.0788L29.1595 50.0414L29.1583 50.0351L29.1579 50.0327L21.4694 6.40068L28.7427 0.47354C28.9311 0.662747 29.2036 0.916298 29.5853 1.23092C30.4179 1.9173 31.7786 2.90117 33.9352 4.14624C36.1357 5.4167 39.1756 6.95355 43.3562 8.75657L43.357 8.75689C49.6138 11.4428 54.951 11.3994 58.7156 10.6924C60.5997 10.3386 62.0949 9.81763 63.1202 9.3845C63.633 9.16789 64.0286 8.97311 64.2969 8.83192C64.3331 8.81289 64.3669 8.79482 64.3984 8.77781C64.4301 8.83137 64.4641 8.8887 64.5004 8.9497C64.7691 9.4009 65.1653 10.0528 65.6787 10.8619C66.7053 12.4796 68.202 14.7279 70.0871 17.2578C73.8536 22.3127 79.1905 28.5187 85.4385 33.0525C89.6051 36.0889 92.6619 38.0522 94.8611 39.3219C97.0177 40.5669 98.3784 41.1543 99.211 41.4294C99.4194 41.4982 99.5953 41.5477 99.7427 41.583L99.6264 90.772C99.623 90.785 99.6189 90.8006 99.6141 90.8187C99.6095 90.8361 99.6042 90.8558 99.5982 90.8778C99.5699 90.9818 99.5262 91.136 99.4659 91.3336C99.3451 91.7288 99.1575 92.2971 98.8913 92.9838C98.3588 94.3575 97.5128 96.2029 96.261 98.0829C93.756 101.845 89.6365 105.73 83.1696 106.278C76.6428 106.827 71.9227 106.355 68.8445 105.752C67.3055 105.45 66.177 105.116 65.4386 104.859C65.0693 104.731 64.7975 104.622 64.6207 104.547C64.5322 104.509 64.4675 104.48 64.4261 104.461Z" fill="#7C7A86" stroke="#0C0C0D"/>
<g filter="url(#filter0_bii_1_749)">
<path d="M87.3613 42.6552C85.1841 41.3983 82.1463 39.4479 77.9945 36.4224C65.6743 27.4826 56.8983 11.9072 56.8983 11.9072C56.8983 11.9072 48.1391 17.3586 35.802 12.0625C31.6334 10.2646 28.6124 8.73655 26.4352 7.47958C22.1654 5.01436 21.119 3.62455 21.119 3.62455L21.2371 53.7409C21.2371 53.7409 24.7982 72.5123 37.9116 88.7456C51.0251 104.979 56.8983 108.782 56.8983 108.782C56.8983 108.782 62.7883 111.77 75.8849 110.669C88.9983 109.559 92.5594 94.9188 92.5594 94.9188L92.6775 44.9389C92.6775 44.9389 91.6311 45.1204 87.3613 42.6552Z" fill="#F7F7F8"/>
<path d="M56.9262 108.294C56.9153 108.289 56.906 108.284 56.8983 108.281C56.8907 108.276 56.8814 108.269 56.8706 108.262C56.8294 108.233 56.7648 108.188 56.6766 108.124C56.5001 107.995 56.229 107.791 55.8604 107.493C55.1232 106.897 53.9964 105.93 52.4584 104.455C49.3822 101.505 44.662 96.5258 38.1266 88.4357C31.6599 80.4304 27.5405 71.7889 25.0354 65.1317C23.7836 61.805 22.9377 58.9809 22.4052 56.9908C22.139 55.996 21.9513 55.2103 21.8306 54.6752C21.7702 54.4077 21.7266 54.2028 21.6982 54.0659C21.686 54.007 21.6766 53.9607 21.67 53.9273L21.5537 4.60405C21.7011 4.73889 21.8769 4.89247 22.0853 5.06426C22.918 5.75064 24.2787 6.73451 26.4352 7.97958C28.6357 9.25004 31.6757 10.7869 35.8563 12.5899L35.8571 12.5902C42.1139 15.2762 47.4511 15.2328 51.2157 14.5258C53.0998 14.1719 54.595 13.651 55.6203 13.2178C56.1331 13.0012 56.5287 12.8064 56.797 12.6653C56.8331 12.6462 56.867 12.6282 56.8985 12.6112C56.9302 12.6647 56.9642 12.722 57.0005 12.783C57.2692 13.2342 57.6654 13.8861 58.1788 14.6952C59.2054 16.3129 60.7021 18.5612 62.5872 21.0912C66.3537 26.146 71.6906 32.352 77.9386 36.8859C82.1052 39.9223 85.1621 41.8855 87.3613 43.1552C89.5178 44.4003 90.8785 44.9876 91.7112 45.2627C91.9196 45.3316 92.0954 45.3811 92.2428 45.4164L92.1265 94.6054C92.1252 94.6104 92.1238 94.6159 92.1222 94.6218C92.116 94.6454 92.1081 94.6753 92.0983 94.7111C92.07 94.8152 92.0264 94.9694 91.966 95.167C91.8453 95.5621 91.6576 96.1304 91.3914 96.8171C90.8589 98.1909 90.0129 100.036 88.7611 101.916C86.2561 105.678 82.1367 109.563 75.6697 110.111C69.1429 110.66 64.4228 110.189 61.3446 109.585C59.8055 109.284 58.6771 108.949 57.9386 108.693C57.5694 108.564 57.2976 108.456 57.1207 108.38C57.0323 108.343 56.9676 108.313 56.9262 108.294Z" stroke="#0C0C0D"/>
</g>
<g opacity="0.5" filter="url(#filter1_f_1_749)">
<path d="M56.9407 62.6938L46.4044 56.6107C45.7161 56.2133 45.1579 55.2436 45.1579 54.4454C45.1579 53.6473 45.7161 53.3222 46.4044 53.7196L56.9461 59.8059C57.6344 60.2033 58.1927 61.1729 58.1927 61.9711C58.1873 62.7661 57.629 63.0912 56.9407 62.6938ZM60.1493 73.257L46.4044 65.3214C45.7161 64.924 45.1579 63.9544 45.1579 63.1562C45.1579 62.358 45.7161 62.033 46.4044 62.4304L60.1493 70.366C60.8376 70.7634 61.3958 71.733 61.3958 72.5312C61.3958 73.3294 60.8376 73.6544 60.1493 73.257ZM57.3092 80.328L46.4044 74.0321C45.7161 73.6347 45.1579 72.6651 45.1579 71.8669C45.1579 71.0688 45.7161 70.7437 46.4044 71.1411L57.3092 77.437C57.9976 77.8344 58.5558 78.8041 58.5558 79.6022C58.5558 80.4004 57.9976 80.7254 57.3092 80.328Z" fill="url(#paint0_linear_1_749)" fill-opacity="0.63"/>
<path d="M33.4321 45.605C30.6136 43.9778 28.3287 45.2969 28.3287 48.5515C28.3287 51.806 30.6136 55.7635 33.4321 57.3907C36.2506 59.018 38.5355 57.6989 38.5355 54.4443V49.1408C38.5355 48.8153 38.307 48.4196 38.0251 48.2568L33.4321 45.605Z" fill="url(#paint1_linear_1_749)" fill-opacity="0.63"/>
<path d="M30.37 56.5068C27.5515 54.8795 25.2666 56.1987 25.2666 59.4532V59.8491C25.2666 60.7695 25.9128 61.8888 26.71 62.3491L40.154 70.111C40.9511 70.5712 41.5974 70.1981 41.5974 69.2776V68.8818C41.5974 65.6273 39.3125 61.6698 36.494 60.0425L30.37 56.5068Z" fill="url(#paint2_linear_1_749)" fill-opacity="0.63"/>
<path d="M30.273 75.6562L65.9966 96.2812C67.1923 96.9715 68.1617 96.4119 68.1617 95.0312V72.5312L70.868 74.0937V102.219L30.273 78.7812V75.6562Z" fill="url(#paint3_linear_1_749)" fill-opacity="0.63"/>
</g>
<path d="M19.2285 64.353L14.7667 30.4552C14.7836 30.4472 14.8016 30.4387 14.8208 30.4297C14.9661 30.3614 15.175 30.2642 15.4288 30.1494C15.9365 29.9196 16.6225 29.6192 17.3376 29.3364C18.0541 29.0529 18.7935 28.7895 19.4096 28.6312C19.7184 28.5519 19.9879 28.5012 20.2031 28.4857C20.3108 28.478 20.3972 28.4797 20.4628 28.4881C20.5144 28.4947 20.5383 28.5037 20.5407 28.5043L61.7237 52.2813C62.4411 52.6955 63.0227 53.7028 63.0227 54.5313V89.7067C63.0214 89.7121 63.0165 89.7318 63.0009 89.7651C62.9763 89.8175 62.9351 89.883 62.8733 89.96C62.7498 90.1136 62.565 90.2873 62.3294 90.472C61.8599 90.84 61.2177 91.2293 60.5407 91.5698C59.8639 91.9102 59.1618 92.1972 58.575 92.3645C58.3647 92.4245 58.1731 92.4679 58.0058 92.4934L41.2194 78.6417L41.1744 78.6047L41.1285 78.5781L20.5333 66.6875C19.8159 66.2733 19.2343 65.2659 19.2343 64.4375V64.3967L19.2285 64.353Z" fill="#F2A829" stroke="#0C0C0D"/>
<mask id="path-6-inside-1_1_749" fill="white">
<path d="M13.8013 31C13.8013 29.8954 14.5767 29.4477 15.5333 30L56.7237 53.7812C57.6802 54.3335 58.4557 55.6767 58.4557 56.7812V91.9688C58.4557 93.0733 57.6802 93.521 56.7237 92.9688L15.5333 69.1875C14.5767 68.6352 13.8013 67.2921 13.8013 66.1875V31Z"/>
</mask>
<path d="M13.8013 31C13.8013 29.8954 14.5767 29.4477 15.5333 30L56.7237 53.7812C57.6802 54.3335 58.4557 55.6767 58.4557 56.7812V91.9688C58.4557 93.0733 57.6802 93.521 56.7237 92.9688L15.5333 69.1875C14.5767 68.6352 13.8013 67.2921 13.8013 66.1875V31Z" fill="white"/>
<path d="M15.5333 31L56.7237 54.7812V52.7812L15.5333 29V31ZM57.5897 56.2812V91.4688L59.3217 92.4688V57.2812L57.5897 56.2812ZM56.7237 91.9688L15.5333 68.1875V70.1875L56.7237 93.9688V91.9688ZM14.6673 66.6875V31.5L12.9352 30.5V65.6875L14.6673 66.6875ZM15.5333 68.1875C15.055 67.9114 14.6673 67.2398 14.6673 66.6875L12.9352 65.6875C12.9352 67.3444 14.0984 69.3591 15.5333 70.1875V68.1875ZM57.5897 91.4688C57.5897 92.021 57.2019 92.2449 56.7237 91.9688V93.9688C58.1585 94.7972 59.3217 94.1256 59.3217 92.4688L57.5897 91.4688ZM56.7237 54.7812C57.2019 55.0574 57.5897 55.729 57.5897 56.2812L59.3217 57.2812C59.3217 55.6244 58.1585 53.6097 56.7237 52.7812V54.7812ZM15.5333 29C14.0984 28.1716 12.9352 28.8431 12.9352 30.5L14.6673 31.5C14.6673 30.9477 15.055 30.7239 15.5333 31V29Z" fill="#0C0C0D" mask="url(#path-6-inside-1_1_749)"/>
<path d="M49.7991 63.5692L39.2628 57.4861C38.9658 57.3146 38.6826 57.0095 38.4731 56.6456C38.2636 56.2817 38.1413 55.8825 38.1413 55.5374C38.1413 55.1906 38.2607 55.013 38.3822 54.9422C38.5032 54.8718 38.7146 54.8559 39.0128 55.0281L49.5545 61.1144C49.8515 61.2858 50.1347 61.591 50.3443 61.9549C50.5536 62.3186 50.6759 62.7175 50.6761 63.0624C50.6735 63.4069 50.5535 63.5842 50.4309 63.6552C50.3089 63.7258 50.0971 63.7413 49.7991 63.5692ZM53.0077 74.1324L39.2628 66.1969C38.9658 66.0254 38.6826 65.7203 38.4731 65.3563C38.2636 64.9924 38.1413 64.5932 38.1413 64.2481C38.1413 63.9013 38.2607 63.7237 38.3822 63.653C38.5032 63.5825 38.7146 63.5667 39.0128 63.7389L52.7577 71.6744C53.0547 71.8459 53.3379 72.151 53.5474 72.515C53.7569 72.8789 53.8792 73.2781 53.8792 73.6231C53.8792 73.97 53.7598 74.1476 53.6383 74.2183C53.5173 74.2888 53.3059 74.3046 53.0077 74.1324ZM50.1676 81.2035L39.2628 74.9076C38.9658 74.7361 38.6826 74.431 38.4731 74.067C38.2636 73.7032 38.1413 73.304 38.1413 72.9589C38.1413 72.612 38.2607 72.4344 38.3822 72.3637C38.5032 72.2933 38.7146 72.2774 39.0128 72.4496L49.9176 78.7455C50.2147 78.917 50.4979 79.2221 50.7074 79.586C50.9169 79.9499 51.0392 80.3491 51.0392 80.6942C51.0392 81.041 50.9198 81.2187 50.7983 81.2894C50.6773 81.3598 50.4659 81.3757 50.1676 81.2035ZM21.3121 49.6434C21.3121 48.0688 21.863 47.0288 22.6819 46.556C23.5008 46.0832 24.6768 46.1262 26.0405 46.9135L30.6335 49.5653C30.7275 49.6195 30.8267 49.7227 30.9029 49.8547C30.9791 49.9868 31.0189 50.1242 31.0189 50.2327V55.5363C31.0189 57.111 30.468 58.1509 29.6491 58.6237C28.8302 59.0965 27.6542 59.0535 26.2905 58.2662C24.9282 57.4797 23.6808 56.12 22.7734 54.5483C21.866 52.9766 21.3121 51.2165 21.3121 49.6434ZM18.25 60.5452C18.25 58.9705 18.8008 57.9306 19.6197 57.4578C20.4387 56.985 21.6147 57.0279 22.9784 57.8153L29.1024 61.351C30.4647 62.1375 31.7121 63.4972 32.6195 65.0689C33.5269 66.6406 34.0808 68.4007 34.0808 69.9738V70.3696C34.0808 70.7772 33.9396 70.9971 33.783 71.0875C33.6264 71.1779 33.3654 71.1902 33.0124 70.9864L19.5684 63.2245C19.2167 63.0215 18.8843 62.6631 18.6393 62.2386C18.3942 61.8141 18.25 61.3471 18.25 60.941V60.5452Z" fill="#F2A829" stroke="#0C0C0D" stroke-width="0.5"/>
</g>
<defs>
<filter id="filter0_bii_1_749" x="15.119" y="-2.37544" width="83.5585" height="119.288" filterUnits="userSpaceOnUse" color-interpolation-filters="sRGB">
<feFlood flood-opacity="0" result="BackgroundImageFix"/>
<feGaussianBlur in="BackgroundImageFix" stdDeviation="3"/>
<feComposite in2="SourceAlpha" operator="in" result="effect1_backgroundBlur_1_749"/>
<feBlend mode="normal" in="SourceGraphic" in2="effect1_backgroundBlur_1_749" result="shape"/>
<feColorMatrix in="SourceAlpha" type="matrix" values="0 0 0 0 0 0 0 0 0 0 0 0 0 0 0 0 0 0 127 0" result="hardAlpha"/>
<feOffset dx="1" dy="-1"/>
<feGaussianBlur stdDeviation="1"/>
<feComposite in2="hardAlpha" operator="arithmetic" k2="-1" k3="1"/>
<feColorMatrix type="matrix" values="0 0 0 0 0.0666667 0 0 0 0 0.0666667 0 0 0 0 0.0666667 0 0 0 0.1 0"/>
<feBlend mode="plus-darker" in2="shape" result="effect2_innerShadow_1_749"/>
<feColorMatrix in="SourceAlpha" type="matrix" values="0 0 0 0 0 0 0 0 0 0 0 0 0 0 0 0 0 0 127 0" result="hardAlpha"/>
<feOffset dx="1" dy="1"/>
<feGaussianBlur stdDeviation="0.5"/>
<feComposite in2="hardAlpha" operator="arithmetic" k2="-1" k3="1"/>
<feColorMatrix type="matrix" values="0 0 0 0 1 0 0 0 0 1 0 0 0 0 1 0 0 0 0.67 0"/>
<feBlend mode="overlay" in2="effect2_innerShadow_1_749" result="effect3_innerShadow_1_749"/>
</filter>
<filter id="filter1_f_1_749" x="15.2666" y="34.908" width="65.6014" height="77.3107" filterUnits="userSpaceOnUse" color-interpolation-filters="sRGB">
<feFlood flood-opacity="0" result="BackgroundImageFix"/>
<feBlend mode="normal" in="SourceGraphic" in2="BackgroundImageFix" result="shape"/>
<feGaussianBlur stdDeviation="5" result="effect1_foregroundBlur_1_749"/>
</filter>
<linearGradient id="paint0_linear_1_749" x1="45.041" y1="53.9258" x2="34.924" y2="80.6107" gradientUnits="userSpaceOnUse">
<stop stop-color="#757575"/>
<stop offset="0.556961" stop-color="#757575"/>
<stop offset="0.646228" stop-color="#5C5C5C"/>
<stop offset="1" stop-color="#5C5C5C"/>
</linearGradient>
<linearGradient id="paint1_linear_1_749" x1="45.041" y1="53.9258" x2="34.924" y2="80.6107" gradientUnits="userSpaceOnUse">
<stop stop-color="#757575"/>
<stop offset="0.556961" stop-color="#757575"/>
<stop offset="0.646228" stop-color="#5C5C5C"/>
<stop offset="1" stop-color="#5C5C5C"/>
</linearGradient>
<linearGradient id="paint2_linear_1_749" x1="45.041" y1="53.9258" x2="34.924" y2="80.6107" gradientUnits="userSpaceOnUse">
<stop stop-color="#757575"/>
<stop offset="0.556961" stop-color="#757575"/>
<stop offset="0.646228" stop-color="#5C5C5C"/>
<stop offset="1" stop-color="#5C5C5C"/>
</linearGradient>
<linearGradient id="paint3_linear_1_749" x1="45.041" y1="53.9258" x2="34.924" y2="80.6107" gradientUnits="userSpaceOnUse">
<stop stop-color="#757575"/>
<stop offset="0.556961" stop-color="#757575"/>
<stop offset="0.646228" stop-color="#5C5C5C"/>
<stop offset="1" stop-color="#5C5C5C"/>
</linearGradient>
<clipPath id="clip0_1_749">
<rect width="120" height="120" fill="white" transform="translate(0.5)"/>
</clipPath>
</defs>
</svg>
