<svg width="121" height="120" viewBox="0 0 121 120" fill="none" xmlns="http://www.w3.org/2000/svg">
<g clip-path="url(#clip0_1_766)">
<path d="M60.1099 114.088C35.4049 113.989 15.413 105.119 15.4565 94.2776C15.5001 83.4358 35.5628 74.7271 60.2677 74.8261C84.9727 74.9252 104.965 83.7945 104.921 94.6362C104.878 105.478 84.8148 114.187 60.1099 114.088Z" fill="url(#paint0_radial_1_766)"/>
<path d="M104.408 91.1836C102.639 94.8606 98.5484 98.2716 92.3359 101.066L92.333 101.067C83.6036 104.927 72.1283 106.864 60.6361 106.884C49.1437 106.903 37.5819 105.004 28.6786 101.145C22.0818 98.29 17.7713 94.7152 15.9432 90.8762V94.4379C15.9432 99.2234 20.1604 104.223 29.0759 108.082L29.0761 108.082C37.8191 111.871 49.2337 113.776 60.6308 113.767C72.0284 113.757 83.3561 111.833 91.927 108.008L91.9276 108.008C100.38 104.249 104.387 99.4147 104.408 94.8082V91.1836Z" fill="#7C7A86" stroke="#0C0C0D"/>
<g filter="url(#filter0_bii_1_766)">
<path d="M60.1099 106.441C35.4049 106.342 15.413 97.4725 15.4565 86.6308C15.5001 75.789 35.5628 67.0803 60.2677 67.1793C84.9727 67.2783 104.965 76.1476 104.921 86.9894C104.878 97.8311 84.8148 106.54 60.1099 106.441Z" fill="#F7F7F8"/>
<path d="M15.9565 86.6328C15.9463 89.1783 17.1099 91.6471 19.3025 93.9405C21.4975 96.2363 24.7027 98.3315 28.7053 100.107C36.7091 103.658 47.8119 105.892 60.1119 105.941C72.4119 105.99 83.5324 103.846 91.5644 100.359C95.5812 98.6157 98.8031 96.5462 101.016 94.268C103.227 91.9923 104.411 89.5329 104.421 86.9874C104.431 84.4418 103.268 81.973 101.075 79.6796C98.8801 77.3838 95.6749 75.2886 91.6723 73.5129C83.6686 69.9621 72.5657 67.7286 60.2657 67.6793C47.9657 67.63 36.8453 69.7744 28.8132 73.2609C24.7965 75.0045 21.5745 77.074 19.3611 79.3521C17.1501 81.6278 15.9668 84.0872 15.9565 86.6328Z" stroke="#0C0C0D"/>
</g>
<path d="M37.7835 32.843L45.1553 38.0539V41.2509V41.7602V41.7793L45.6043 42.0098L50.609 44.7927L50.0794 52.9421L50.0783 52.9594V52.9775C50.0783 60.7442 55.6132 70.2278 62.3316 74.1067C64.0061 75.0734 65.2791 75.4349 66.2434 75.3016C67.2127 75.1676 67.8301 74.539 68.2338 73.6362C68.6341 72.7412 68.8282 71.5685 68.9534 70.3252C69.0162 69.7015 69.0623 69.0518 69.107 68.4034C69.1106 68.3509 69.1142 68.2985 69.1178 68.2461C69.1589 67.648 69.1999 67.0524 69.2529 66.4692L69.2589 66.4033L69.2482 66.3284L68.7821 63.0657L68.7749 63.0154L68.7604 62.9632L68.3559 62.9081C68.7604 62.9632 68.7603 62.9629 68.7602 62.9626L68.76 62.9617L68.7594 62.9594L68.7574 62.9525L68.7508 62.9295C68.7492 62.9239 68.7473 62.9175 68.7453 62.9105C68.7403 62.8936 68.7342 62.8728 68.7267 62.8482C68.7057 62.7785 68.6746 62.6784 68.6325 62.5504C68.5485 62.2945 68.4208 61.9269 68.2428 61.4687C67.8871 60.5529 67.3294 59.2721 66.5168 57.7975C64.8884 54.8423 62.2415 51.1182 58.171 48.0055L58.1326 47.9761L58.0937 47.9545L51.5412 44.3109L51.5572 44.0649L51.0659 43.8127L46.0213 41.2224V38.1068V37.6598V27.8599L51.1687 26.4081L63.5225 33.5406C76.2496 40.8886 86.567 58.7588 86.567 73.4549V74.0442C86.567 81.4992 82.5409 86.9332 77.1623 89.8239C71.7847 92.7141 65.1677 93.0016 60.1201 90.3737L54.7306 87.2298C48.7119 82.9898 42.8558 77.0042 38.6607 68.4845C34.4779 59.9898 31.8917 48.8654 32.5292 34.2789L37.7835 32.843ZM45.4462 26.7755L32.5401 19.2205V5.02332L37.8108 3.37315L50.5922 10.7525V25.3242L45.4462 26.7755Z" fill="#7C7A86" stroke="#0C0C0D"/>
<path d="M45.1451 26.5974L32.649 19.3828V5.05998L45.1451 12.2746V26.5974ZM32.649 34.5269L44.6311 41.4447V54.4995C44.6311 62.2662 50.1661 71.7499 56.8844 75.6287C63.6028 79.5076 69.1377 76.4151 69.1377 68.6484V68.0591C69.1377 60.6223 63.9168 51.5793 57.4763 47.8609L46.0111 41.2415V28.0974L58.0753 35.0626C70.8025 42.4107 81.1199 60.2809 81.1199 74.9769V75.5663C81.1199 90.5878 70.574 96.6765 57.5649 89.1657L56.2039 88.3799C43.1949 80.8692 32.649 62.6031 32.649 47.5816V34.5269Z" fill="#F2A829" stroke="#0C0C0D"/>
<g opacity="0.8">
<g filter="url(#filter1_bii_1_766)">
<ellipse cx="90.1577" cy="43.9737" rx="11.3947" ry="12.8997" transform="rotate(-100.192 90.1577 43.9737)" fill="white"/>
<path d="M88.1856 33.0049C95.0912 31.7633 101.524 35.7052 102.608 41.7353C103.692 47.7654 99.0353 53.701 92.1298 54.9425C85.2242 56.1841 78.7917 52.2422 77.7076 46.2121C76.6234 40.182 81.28 34.2464 88.1856 33.0049Z" stroke="#0C0C0D" stroke-width="0.5"/>
</g>
<g filter="url(#filter2_bii_1_766)">
<ellipse cx="89.888" cy="41.9693" rx="11.8901" ry="12.7261" transform="rotate(-100.192 89.888 41.9693)" fill="white"/>
<path d="M87.8283 30.5128C94.626 29.2907 101.033 33.4499 102.167 39.7616C103.302 46.0733 98.7454 52.2036 91.9478 53.4257C85.1501 54.6478 78.7436 50.4887 77.6088 44.1769C76.474 37.8652 81.0307 31.735 87.8283 30.5128Z" stroke="#0C0C0D" stroke-width="0.5"/>
</g>
</g>
<mask id="path-11-inside-1_1_766" fill="white">
<path fill-rule="evenodd" clip-rule="evenodd" d="M85.8395 33.8407L98.572 36.9489L97.8216 40.0228L92.9923 38.8439L92.4961 40.8766C96.2228 41.9543 98.891 43.3908 98.6737 44.2811C98.4564 45.1714 95.4261 45.2169 91.622 44.456L90.0393 50.9393L86.9657 50.189L88.549 43.7032C84.8523 42.6275 82.2125 41.2011 82.4288 40.3154C82.645 39.4297 85.6451 39.3802 89.4216 40.1287L89.9184 38.0935L85.0891 36.9145L85.8395 33.8407ZM89.3794 40.3014C86.103 39.6496 83.5397 39.622 83.3749 40.2969C83.1845 41.0769 86.269 42.4999 90.264 43.4751C94.259 44.4504 97.6521 44.6087 97.8425 43.8287C98.0082 43.1497 95.6921 41.9834 92.4539 41.0493L91.8893 43.3619L88.8155 42.6115L89.3794 40.3014Z"/>
</mask>
<path fill-rule="evenodd" clip-rule="evenodd" d="M85.8395 33.8407L98.572 36.9489L97.8216 40.0228L92.9923 38.8439L92.4961 40.8766C96.2228 41.9543 98.891 43.3908 98.6737 44.2811C98.4564 45.1714 95.4261 45.2169 91.622 44.456L90.0393 50.9393L86.9657 50.189L88.549 43.7032C84.8523 42.6275 82.2125 41.2011 82.4288 40.3154C82.645 39.4297 85.6451 39.3802 89.4216 40.1287L89.9184 38.0935L85.0891 36.9145L85.8395 33.8407ZM89.3794 40.3014C86.103 39.6496 83.5397 39.622 83.3749 40.2969C83.1845 41.0769 86.269 42.4999 90.264 43.4751C94.259 44.4504 97.6521 44.6087 97.8425 43.8287C98.0082 43.1497 95.6921 41.9834 92.4539 41.0493L91.8893 43.3619L88.8155 42.6115L89.3794 40.3014Z" fill="#F2A829"/>
<path d="M98.572 36.9489L99.0578 37.0675L99.1763 36.5818L98.6906 36.4632L98.572 36.9489ZM85.8395 33.8407L85.958 33.3549L85.4723 33.2363L85.3537 33.7221L85.8395 33.8407ZM97.8216 40.0228L97.703 40.5085L98.1888 40.6271L98.3074 40.1414L97.8216 40.0228ZM92.9923 38.8439L93.1109 38.3581L92.6251 38.2396L92.5065 38.7253L92.9923 38.8439ZM92.4961 40.8766L92.0103 40.758L91.8966 41.2238L92.3572 41.3569L92.4961 40.8766ZM91.622 44.456L91.7201 43.9658L91.25 43.8717L91.1363 44.3375L91.622 44.456ZM90.0393 50.9393L89.9208 51.425L90.4065 51.5436L90.5251 51.0579L90.0393 50.9393ZM86.9657 50.189L86.48 50.0704L86.3614 50.5561L86.8471 50.6747L86.9657 50.189ZM88.549 43.7032L89.0348 43.8217L89.1483 43.3568L88.6887 43.2231L88.549 43.7032ZM89.4216 40.1287L89.3243 40.6192L89.7938 40.7122L89.9073 40.2473L89.4216 40.1287ZM89.9184 38.0935L90.4041 38.2121L90.5227 37.7263L90.037 37.6077L89.9184 38.0935ZM85.0891 36.9145L84.6033 36.796L84.4847 37.2817L84.9705 37.4003L85.0891 36.9145ZM89.3794 40.3014L89.8651 40.42L89.9889 39.9129L89.477 39.811L89.3794 40.3014ZM92.4539 41.0493L92.5925 40.5689L92.0917 40.4245L91.9682 40.9308L92.4539 41.0493ZM91.8893 43.3619L91.7708 43.8477L92.2565 43.9662L92.3751 43.4805L91.8893 43.3619ZM88.8155 42.6115L88.3297 42.4929L88.2111 42.9787L88.6969 43.0973L88.8155 42.6115ZM98.6906 36.4632L85.958 33.3549L85.7209 34.3264L98.4534 37.4346L98.6906 36.4632ZM98.3074 40.1414L99.0578 37.0675L98.0863 36.8303L97.3359 39.9042L98.3074 40.1414ZM92.8737 39.3296L97.703 40.5085L97.9402 39.5371L93.1109 38.3581L92.8737 39.3296ZM92.9818 40.9952L93.478 38.9624L92.5065 38.7253L92.0103 40.758L92.9818 40.9952ZM99.1594 44.3997C99.2807 43.9029 98.9767 43.4693 98.6771 43.1708C98.351 42.8461 97.8747 42.5229 97.3039 42.2105C96.1555 41.582 94.5196 40.9413 92.635 40.3963L92.3572 41.3569C94.1993 41.8896 95.7608 42.506 96.8239 43.0877C97.3589 43.3805 97.7418 43.6507 97.9714 43.8794C98.2273 44.1343 98.1754 44.2142 98.188 44.1625L99.1594 44.3997ZM91.524 44.9463C93.4477 45.3311 95.1949 45.5162 96.5038 45.4876C97.1543 45.4734 97.726 45.406 98.1651 45.268C98.5686 45.1412 99.0382 44.8965 99.1594 44.3997L98.188 44.1625C98.2006 44.1109 98.2099 44.2057 97.8652 44.314C97.5561 44.4112 97.0917 44.4745 96.482 44.4879C95.2704 44.5143 93.6005 44.3418 91.7201 43.9658L91.524 44.9463ZM90.5251 51.0579L92.1078 44.5746L91.1363 44.3375L89.5536 50.8207L90.5251 51.0579ZM86.8471 50.6747L89.9208 51.425L90.1579 50.4536L87.0843 49.7032L86.8471 50.6747ZM88.0633 43.5846L86.48 50.0704L87.4514 50.3076L89.0348 43.8217L88.0633 43.5846ZM81.943 40.1968C81.8223 40.6912 82.123 41.123 82.4203 41.4205C82.7433 41.7439 83.2153 42.0655 83.7807 42.3762C84.9185 43.0015 86.5398 43.6393 88.4093 44.1832L88.6887 43.2231C86.8615 42.6914 85.3146 42.0781 84.2623 41.4998C83.7327 41.2088 83.3543 40.9406 83.1277 40.7137C82.8753 40.4611 82.9271 40.3824 82.9145 40.434L81.943 40.1968ZM89.5188 39.6383C87.609 39.2597 85.8761 39.0787 84.5783 39.1094C83.9333 39.1246 83.3662 39.1926 82.9305 39.3307C82.5295 39.4578 82.0637 39.7024 81.943 40.1968L82.9145 40.434C82.9019 40.4856 82.8922 40.3919 83.2326 40.2839C83.5383 40.1871 83.9978 40.1234 84.6019 40.1091C85.8023 40.0807 87.4577 40.2492 89.3243 40.6192L89.5188 39.6383ZM89.4327 37.9749L88.9358 40.0101L89.9073 40.2473L90.4041 38.2121L89.4327 37.9749ZM84.9705 37.4003L89.7998 38.5792L90.037 37.6077L85.2076 36.4288L84.9705 37.4003ZM85.3537 33.7221L84.6033 36.796L85.5748 37.0331L86.3252 33.9592L85.3537 33.7221ZM83.8607 40.4155C83.8432 40.487 83.8019 40.507 83.8265 40.4904C83.8542 40.4716 83.9209 40.4382 84.0482 40.405C84.3018 40.3388 84.6904 40.2997 85.2084 40.3016C86.2362 40.3055 87.662 40.4696 89.2818 40.7918L89.477 39.811C87.8205 39.4815 86.3264 39.3058 85.2122 39.3016C84.6592 39.2996 84.1713 39.3394 83.7956 39.4374C83.6082 39.4863 83.422 39.5564 83.2652 39.6628C83.1052 39.7713 82.9478 39.938 82.8892 40.1783L83.8607 40.4155ZM90.3826 42.9894C88.4066 42.507 86.669 41.9168 85.4594 41.3588C84.8508 41.078 84.3996 40.8162 84.1204 40.5941C83.9796 40.4821 83.9059 40.3984 83.8735 40.3478C83.8413 40.2976 83.8811 40.3319 83.8607 40.4155L82.8892 40.1783C82.8212 40.4569 82.9157 40.7063 83.0313 40.887C83.1468 41.0674 83.314 41.2304 83.498 41.3768C83.8684 41.6714 84.4024 41.9724 85.0405 42.2668C86.3243 42.8591 88.1265 43.468 90.1454 43.9608L90.3826 42.9894ZM97.3568 43.7101C97.3772 43.6266 97.4282 43.6144 97.3765 43.6442C97.3245 43.6741 97.2205 43.7144 97.0439 43.749C96.6938 43.8174 96.1728 43.8419 95.5033 43.8107C94.1726 43.7486 92.3586 43.4718 90.3826 42.9894L90.1454 43.9608C92.1644 44.4537 94.0444 44.7437 95.4567 44.8096C96.1586 44.8423 96.7712 44.8212 97.2357 44.7304C97.4664 44.6853 97.69 44.6176 97.8756 44.5108C98.0614 44.4037 98.2602 44.2258 98.3282 43.9473L97.3568 43.7101ZM92.3153 41.5298C93.9164 41.9916 95.2721 42.5062 96.1968 42.9797C96.6628 43.2184 96.9942 43.434 97.1918 43.6114C97.291 43.7004 97.3359 43.7617 97.3523 43.7919C97.367 43.8189 97.3392 43.7821 97.3568 43.7101L98.3282 43.9473C98.3872 43.7055 98.3233 43.4838 98.2304 43.3134C98.1393 43.1462 98.0051 42.9977 97.8598 42.8673C97.5686 42.6058 97.1496 42.3442 96.6526 42.0896C95.6511 41.5768 94.2296 41.0411 92.5925 40.5689L92.3153 41.5298ZM92.3751 43.4805L92.9396 41.1679L91.9682 40.9308L91.4036 43.2433L92.3751 43.4805ZM88.6969 43.0973L91.7708 43.8477L92.0079 42.8762L88.934 42.1258L88.6969 43.0973ZM88.8937 40.1828L88.3297 42.4929L89.3012 42.7301L89.8651 40.42L88.8937 40.1828Z" fill="#0C0C0D" mask="url(#path-11-inside-1_1_766)"/>
<g filter="url(#filter3_b_1_766)">
<g filter="url(#filter4_bii_1_766)">
<ellipse cx="19.7498" cy="71.6342" rx="13.1446" ry="13.6725" transform="rotate(-124.245 19.7498 71.6342)" fill="#F7F7F8"/>
<path d="M12.4935 60.975C18.6292 56.7982 26.843 58.2016 30.8453 64.0808C34.8477 69.9601 33.1417 78.1164 27.006 82.2933C20.8703 86.4702 12.6565 85.0668 8.6542 79.1875C4.65186 73.3082 6.35787 65.1519 12.4935 60.975Z" stroke="#0C0C0D" stroke-width="0.5"/>
</g>
<g filter="url(#filter5_bii_1_766)">
<ellipse cx="19.4067" cy="71.0006" rx="12.5178" ry="13.4885" transform="rotate(-124.245 19.4067 71.0006)" fill="white"/>
<path d="M12.5032 60.8596C18.5619 56.7351 26.5472 57.9644 30.3502 63.5508C34.1531 69.1373 32.3689 77.0171 26.3102 81.1416C20.2515 85.2661 12.2662 84.0369 8.46323 78.4504C4.66024 72.864 6.44447 64.9841 12.5032 60.8596Z" stroke="#0C0C0D" stroke-width="0.5"/>
</g>
<mask id="path-17-inside-2_1_766" fill="white">
<path fill-rule="evenodd" clip-rule="evenodd" d="M18.29 62.9008L16.9293 63.2525L17.8739 65.7047L16.8713 65.965L15.9268 63.5128L14.5562 63.8673L15.4897 66.2901L12.8626 67.0129L13.4825 68.6222L14.6479 68.3204C14.7892 68.2838 14.9485 68.3106 15.0908 68.3949C15.2331 68.4792 15.3467 68.6141 15.4066 68.7698L17.9144 75.2796C18.0256 75.5682 17.9035 75.8571 17.6417 75.925L16.6858 76.1723L17.0757 77.9493L19.7373 77.261L20.6648 79.6694L22.0157 79.32L21.0882 76.9116L22.0913 76.6522L23.0188 79.0605L24.3794 78.7087L23.4559 76.3109C25.7848 75.697 27.0616 74.3072 26.1548 71.9534C25.3578 69.884 24.2342 69.7876 23.4693 69.722C23.3804 69.7144 23.2964 69.7072 23.2182 69.6973C23.7436 69.0198 23.9526 68.4427 23.5018 67.2733C22.6585 65.0843 20.4704 65.045 19.239 65.3635L18.29 62.9008ZM23.5667 72.5406C24.1341 73.9873 22.567 74.6152 20.4827 75.137L19.1795 71.8141C21.5757 71.2141 22.981 71.0489 23.5667 72.5406ZM19.0073 70.6729C21.6675 69.9997 22.056 69.2341 21.6335 68.1506L21.6334 68.1504C21.1127 66.8182 19.6552 67.0193 17.7678 67.4961L19.0073 70.6729Z"/>
</mask>
<path fill-rule="evenodd" clip-rule="evenodd" d="M18.29 62.9008L16.9293 63.2525L17.8739 65.7047L16.8713 65.965L15.9268 63.5128L14.5562 63.8673L15.4897 66.2901L12.8626 67.0129L13.4825 68.6222L14.6479 68.3204C14.7892 68.2838 14.9485 68.3106 15.0908 68.3949C15.2331 68.4792 15.3467 68.6141 15.4066 68.7698L17.9144 75.2796C18.0256 75.5682 17.9035 75.8571 17.6417 75.925L16.6858 76.1723L17.0757 77.9493L19.7373 77.261L20.6648 79.6694L22.0157 79.32L21.0882 76.9116L22.0913 76.6522L23.0188 79.0605L24.3794 78.7087L23.4559 76.3109C25.7848 75.697 27.0616 74.3072 26.1548 71.9534C25.3578 69.884 24.2342 69.7876 23.4693 69.722C23.3804 69.7144 23.2964 69.7072 23.2182 69.6973C23.7436 69.0198 23.9526 68.4427 23.5018 67.2733C22.6585 65.0843 20.4704 65.045 19.239 65.3635L18.29 62.9008ZM23.5667 72.5406C24.1341 73.9873 22.567 74.6152 20.4827 75.137L19.1795 71.8141C21.5757 71.2141 22.981 71.0489 23.5667 72.5406ZM19.0073 70.6729C21.6675 69.9997 22.056 69.2341 21.6335 68.1506L21.6334 68.1504C21.1127 66.8182 19.6552 67.0193 17.7678 67.4961L19.0073 70.6729Z" fill="#F2A829"/>
<path d="M16.9293 63.2525L16.6795 62.8531L16.2488 62.9644L16.384 63.3152L16.9293 63.2525ZM18.29 62.9008L18.8353 62.838L18.6453 62.345L18.0402 62.5014L18.29 62.9008ZM17.8739 65.7047L18.1244 66.1039L18.5542 65.9923L18.4192 65.642L17.8739 65.7047ZM16.8713 65.965L16.326 66.0278L16.5162 66.5215L17.1219 66.3642L16.8713 65.965ZM15.9268 63.5128L16.4721 63.45L16.2822 62.9568L15.6768 63.1134L15.9268 63.5128ZM14.5562 63.8673L14.3062 63.468L13.8757 63.5793L14.0109 63.9301L14.5562 63.8673ZM15.4897 66.2901L15.7488 66.6871L16.1678 66.5718L16.0351 66.2273L15.4897 66.2901ZM12.8626 67.0129L12.6035 66.616L12.1846 66.7313L12.3172 67.0757L12.8626 67.0129ZM13.4825 68.6222L12.9371 68.6849L13.1272 69.1783L13.7326 69.0215L13.4825 68.6222ZM14.6479 68.3204L14.3979 67.921L14.3978 67.921L14.6479 68.3204ZM15.4066 68.7698L14.8612 68.8324L14.8613 68.8326L15.4066 68.7698ZM17.9144 75.2796L18.4598 75.2169L18.4598 75.2168L17.9144 75.2796ZM17.6417 75.925L17.8917 76.3243L17.892 76.3243L17.6417 75.925ZM16.6858 76.1723L16.4358 75.7729L16.0564 75.8711L16.125 76.1836L16.6858 76.1723ZM17.0757 77.9493L16.5148 77.9607L16.6389 78.5262L17.3256 78.3487L17.0757 77.9493ZM19.7373 77.261L20.2826 77.1983L20.0927 76.7051L19.4874 76.8617L19.7373 77.261ZM20.6648 79.6694L20.1195 79.7322L20.3094 80.2254L20.9148 80.0688L20.6648 79.6694ZM22.0157 79.32L22.2657 79.7193L22.6962 79.608L22.5611 79.2572L22.0157 79.32ZM21.0882 76.9116L20.8382 76.5122L20.4077 76.6236L20.5428 76.9743L21.0882 76.9116ZM22.0913 76.6522L22.6366 76.5894L22.4467 76.0962L21.8414 76.2528L22.0913 76.6522ZM23.0188 79.0605L22.4735 79.1233L22.6634 79.6165L23.2688 79.4599L23.0188 79.0605ZM24.3794 78.7087L24.6293 79.108L25.0598 78.9967L24.9247 78.6459L24.3794 78.7087ZM23.4559 76.3109L23.2031 75.9123L22.7761 76.0248L22.9105 76.3737L23.4559 76.3109ZM26.1548 71.9534L25.6095 72.0162L25.6095 72.0162L26.1548 71.9534ZM23.4693 69.722L23.4581 69.3042L23.458 69.3042L23.4693 69.722ZM23.2182 69.6973L22.7155 69.4524L22.2926 69.9977L23.1983 70.1118L23.2182 69.6973ZM23.5018 67.2733L22.9564 67.336L22.9565 67.3361L23.5018 67.2733ZM19.239 65.3635L18.6936 65.4262L18.8837 65.9193L19.4889 65.7628L19.239 65.3635ZM20.4827 75.137L19.9382 75.2019L20.1287 75.6876L20.728 75.5376L20.4827 75.137ZM23.5667 72.5406L24.1112 72.4757L24.1112 72.4756L23.5667 72.5406ZM19.1795 71.8141L18.9342 71.4136L18.4955 71.5234L18.635 71.879L19.1795 71.8141ZM21.6335 68.1506L22.1783 68.0865L22.1631 68.0473L22.1385 68.01L21.6335 68.1506ZM19.0073 70.6729L18.4626 70.7372L18.653 71.2252L19.2541 71.0731L19.0073 70.6729ZM21.6334 68.1504L21.0887 68.2149L21.1039 68.2539L21.1284 68.2911L21.6334 68.1504ZM17.7678 67.4961L17.5213 67.0959L17.0849 67.2061L17.2231 67.5604L17.7678 67.4961ZM17.1791 63.6519L18.5398 63.3002L18.0402 62.5014L16.6795 62.8531L17.1791 63.6519ZM18.4192 65.642L17.4747 63.1897L16.384 63.3152L17.3285 65.7675L18.4192 65.642ZM17.1219 66.3642L18.1244 66.1039L17.6234 65.3055L16.6208 65.5658L17.1219 66.3642ZM15.3814 63.5755L16.326 66.0278L17.4167 65.9023L16.4721 63.45L15.3814 63.5755ZM14.8062 64.2667L16.1767 63.9121L15.6768 63.1134L14.3062 63.468L14.8062 64.2667ZM16.0351 66.2273L15.1015 63.8045L14.0109 63.9301L14.9444 66.3529L16.0351 66.2273ZM13.1217 67.4098L15.7488 66.6871L15.2307 65.8932L12.6035 66.616L13.1217 67.4098ZM14.0278 68.5594L13.4079 66.9502L12.3172 67.0757L12.9371 68.6849L14.0278 68.5594ZM14.3978 67.921L13.2324 68.2228L13.7326 69.0215L14.8981 68.7197L14.3978 67.921ZM15.4076 68.0806C15.1151 67.9074 14.7404 67.8324 14.3979 67.921L14.898 68.7197C14.8759 68.7254 14.8465 68.727 14.8165 68.722C14.7879 68.7172 14.7736 68.7089 14.7741 68.7092L15.4076 68.0806ZM15.9521 68.7072C15.8641 68.4785 15.6849 68.2449 15.4076 68.0806L14.7741 68.7092C14.7813 68.7134 14.8294 68.7497 14.8612 68.8324L15.9521 68.7072ZM18.4598 75.2168L15.952 68.707L14.8613 68.8326L17.3691 75.3424L18.4598 75.2168ZM17.892 76.3243C18.2081 76.2424 18.3838 76.0454 18.4628 75.8585C18.544 75.6664 18.5457 75.4399 18.4598 75.2169L17.3691 75.3423C17.3944 75.408 17.3906 75.4702 17.3731 75.5117C17.3534 75.5583 17.3372 75.5398 17.3915 75.5257L17.892 76.3243ZM16.9358 76.5716L17.8917 76.3243L17.3917 75.5256L16.4358 75.7729L16.9358 76.5716ZM17.6365 77.9379L17.2467 76.1609L16.125 76.1836L16.5148 77.9607L17.6365 77.9379ZM19.4874 76.8617L16.8258 77.5499L17.3256 78.3487L19.9872 77.6604L19.4874 76.8617ZM21.2102 79.6067L20.2826 77.1983L19.1919 77.3238L20.1195 79.7322L21.2102 79.6067ZM21.7658 78.9206L20.4149 79.2701L20.9148 80.0688L22.2657 79.7193L21.7658 78.9206ZM20.5428 76.9743L21.4704 79.3827L22.5611 79.2572L21.6335 76.8489L20.5428 76.9743ZM21.8414 76.2528L20.8382 76.5122L21.3381 77.311L22.3412 77.0515L21.8414 76.2528ZM23.5642 78.9978L22.6366 76.5894L21.5459 76.7149L22.4735 79.1233L23.5642 78.9978ZM24.1294 78.3093L22.7689 78.6612L23.2688 79.4599L24.6293 79.108L24.1294 78.3093ZM22.9105 76.3737L23.834 78.7714L24.9247 78.6459L24.0012 76.2482L22.9105 76.3737ZM25.6095 72.0162C26.0317 73.1122 25.9309 73.939 25.5052 74.5545C25.0766 75.174 24.2858 75.6269 23.2031 75.9123L23.7086 76.7096C24.9549 76.381 25.9669 75.832 26.5323 75.0147C27.1005 74.1934 27.1847 73.1484 26.7002 71.8907L25.6095 72.0162ZM23.4806 70.1398C23.8632 70.1726 24.1639 70.2054 24.4751 70.3956C24.7983 70.5932 25.2273 71.0238 25.6095 72.0162L26.7002 71.8907C26.2854 70.8136 25.754 70.1614 25.1249 69.777C24.4839 69.3852 23.8404 69.337 23.4581 69.3042L23.4806 70.1398ZM23.1983 70.1118C23.295 70.124 23.3953 70.1325 23.4806 70.1398L23.458 69.3042C23.3655 69.2963 23.2977 69.2903 23.2381 69.2828L23.1983 70.1118ZM22.9565 67.3361C23.1675 67.8836 23.2116 68.2599 23.1616 68.5641C23.1117 68.8681 22.963 69.1332 22.7155 69.4524L23.7209 69.9422C23.9988 69.5839 24.2173 69.2217 24.2905 68.7754C24.3637 68.3293 24.2868 67.8323 24.0471 67.2104L22.9565 67.3361ZM19.4889 65.7628C20.0324 65.6223 20.7396 65.5758 21.3651 65.7648C21.9433 65.9394 22.578 66.3538 22.9564 67.336L24.0471 67.2105C23.5823 66.0038 22.7014 65.304 21.6668 64.9914C20.6796 64.6931 19.677 64.7862 18.9891 64.9641L19.4889 65.7628ZM17.7447 62.9636L18.6936 65.4262L19.7843 65.3007L18.8353 62.838L17.7447 62.9636ZM20.728 75.5376C21.772 75.2762 22.7746 74.9693 23.4366 74.5103C23.7754 74.2755 24.039 73.9918 24.1673 73.6435C24.2965 73.2931 24.279 72.9036 24.1112 72.4757L23.0222 72.6055C23.1381 72.901 23.1375 73.1324 23.0673 73.323C22.9963 73.5156 22.8442 73.6928 22.6016 73.861C22.1009 74.2081 21.2777 74.476 20.2374 74.7365L20.728 75.5376ZM18.635 71.879L19.9382 75.2019L21.0272 75.0722L19.724 71.7492L18.635 71.879ZM24.1112 72.4756C23.9473 72.0582 23.7058 71.7023 23.3431 71.4356C22.9677 71.1597 22.5203 71.0216 22.0494 70.9759C21.5943 70.9318 21.106 70.9724 20.6032 71.0529C20.0962 71.1342 19.5372 71.2626 18.9342 71.4136L19.4248 72.2147C20.02 72.0656 20.5352 71.9484 20.9839 71.8765C21.4368 71.8039 21.7857 71.7839 22.0547 71.8099C22.3079 71.8345 22.4713 71.8972 22.599 71.9911C22.7394 72.0943 22.8932 72.2771 23.0222 72.6056L24.1112 72.4756ZM21.0887 68.2148C21.2728 68.6868 21.255 69.0122 20.9924 69.2986C20.7031 69.6141 20.0634 69.943 18.7605 70.2728L19.2541 71.0731C20.6114 70.7296 21.4961 70.3391 21.9605 69.8327C22.4515 69.2971 22.4168 68.698 22.1783 68.0865L21.0887 68.2148ZM21.1284 68.2911L21.1286 68.2913L22.1385 68.01L22.1383 68.0097L21.1284 68.2911ZM18.0144 67.8964C18.9755 67.6535 19.7024 67.5183 20.2249 67.5627C20.4612 67.5829 20.6132 67.6371 20.7253 67.7125C20.8433 67.7919 20.9803 67.9374 21.0887 68.2149L22.1781 68.0859C22.0261 67.6973 21.7857 67.3684 21.4249 67.1257C21.0583 66.8791 20.6304 66.7636 20.2013 66.7271C19.393 66.6583 18.4475 66.8619 17.5213 67.0959L18.0144 67.8964ZM19.5521 70.6087L18.3126 67.4319L17.2231 67.5604L18.4626 70.7372L19.5521 70.6087Z" fill="#0C0C0D" mask="url(#path-17-inside-2_1_766)"/>
</g>
</g>
<defs>
<filter id="filter0_bii_1_766" x="9.45646" y="61.1785" width="101.465" height="51.2632" filterUnits="userSpaceOnUse" color-interpolation-filters="sRGB">
<feFlood flood-opacity="0" result="BackgroundImageFix"/>
<feGaussianBlur in="BackgroundImageFix" stdDeviation="3"/>
<feComposite in2="SourceAlpha" operator="in" result="effect1_backgroundBlur_1_766"/>
<feBlend mode="normal" in="SourceGraphic" in2="effect1_backgroundBlur_1_766" result="shape"/>
<feColorMatrix in="SourceAlpha" type="matrix" values="0 0 0 0 0 0 0 0 0 0 0 0 0 0 0 0 0 0 127 0" result="hardAlpha"/>
<feOffset dx="1" dy="-1"/>
<feGaussianBlur stdDeviation="1"/>
<feComposite in2="hardAlpha" operator="arithmetic" k2="-1" k3="1"/>
<feColorMatrix type="matrix" values="0 0 0 0 0.0666667 0 0 0 0 0.0666667 0 0 0 0 0.0666667 0 0 0 0.1 0"/>
<feBlend mode="plus-darker" in2="shape" result="effect2_innerShadow_1_766"/>
<feColorMatrix in="SourceAlpha" type="matrix" values="0 0 0 0 0 0 0 0 0 0 0 0 0 0 0 0 0 0 127 0" result="hardAlpha"/>
<feOffset dx="1" dy="1"/>
<feGaussianBlur stdDeviation="0.5"/>
<feComposite in2="hardAlpha" operator="arithmetic" k2="-1" k3="1"/>
<feColorMatrix type="matrix" values="0 0 0 0 1 0 0 0 0 1 0 0 0 0 1 0 0 0 0.67 0"/>
<feBlend mode="overlay" in2="effect2_innerShadow_1_766" result="effect3_innerShadow_1_766"/>
</filter>
<filter id="filter1_bii_1_766" x="71.3005" y="26.5266" width="37.7143" height="34.8941" filterUnits="userSpaceOnUse" color-interpolation-filters="sRGB">
<feFlood flood-opacity="0" result="BackgroundImageFix"/>
<feGaussianBlur in="BackgroundImageFix" stdDeviation="3"/>
<feComposite in2="SourceAlpha" operator="in" result="effect1_backgroundBlur_1_766"/>
<feBlend mode="normal" in="SourceGraphic" in2="effect1_backgroundBlur_1_766" result="shape"/>
<feColorMatrix in="SourceAlpha" type="matrix" values="0 0 0 0 0 0 0 0 0 0 0 0 0 0 0 0 0 0 127 0" result="hardAlpha"/>
<feOffset dx="1" dy="-1"/>
<feGaussianBlur stdDeviation="1"/>
<feComposite in2="hardAlpha" operator="arithmetic" k2="-1" k3="1"/>
<feColorMatrix type="matrix" values="0 0 0 0 0.0666667 0 0 0 0 0.0666667 0 0 0 0 0.0666667 0 0 0 0.1 0"/>
<feBlend mode="plus-darker" in2="shape" result="effect2_innerShadow_1_766"/>
<feColorMatrix in="SourceAlpha" type="matrix" values="0 0 0 0 0 0 0 0 0 0 0 0 0 0 0 0 0 0 127 0" result="hardAlpha"/>
<feOffset dx="1" dy="1"/>
<feGaussianBlur stdDeviation="0.5"/>
<feComposite in2="hardAlpha" operator="arithmetic" k2="-1" k3="1"/>
<feColorMatrix type="matrix" values="0 0 0 0 1 0 0 0 0 1 0 0 0 0 1 0 0 0 0.67 0"/>
<feBlend mode="overlay" in2="effect2_innerShadow_1_766" result="effect3_innerShadow_1_766"/>
</filter>
<filter id="filter2_bii_1_766" x="71.1853" y="24.0499" width="37.4056" height="35.8388" filterUnits="userSpaceOnUse" color-interpolation-filters="sRGB">
<feFlood flood-opacity="0" result="BackgroundImageFix"/>
<feGaussianBlur in="BackgroundImageFix" stdDeviation="3"/>
<feComposite in2="SourceAlpha" operator="in" result="effect1_backgroundBlur_1_766"/>
<feBlend mode="normal" in="SourceGraphic" in2="effect1_backgroundBlur_1_766" result="shape"/>
<feColorMatrix in="SourceAlpha" type="matrix" values="0 0 0 0 0 0 0 0 0 0 0 0 0 0 0 0 0 0 127 0" result="hardAlpha"/>
<feOffset dx="1" dy="-1"/>
<feGaussianBlur stdDeviation="1"/>
<feComposite in2="hardAlpha" operator="arithmetic" k2="-1" k3="1"/>
<feColorMatrix type="matrix" values="0 0 0 0 0.0666667 0 0 0 0 0.0666667 0 0 0 0 0.0666667 0 0 0 0.1 0"/>
<feBlend mode="plus-darker" in2="shape" result="effect2_innerShadow_1_766"/>
<feColorMatrix in="SourceAlpha" type="matrix" values="0 0 0 0 0 0 0 0 0 0 0 0 0 0 0 0 0 0 127 0" result="hardAlpha"/>
<feOffset dx="1" dy="1"/>
<feGaussianBlur stdDeviation="0.5"/>
<feComposite in2="hardAlpha" operator="arithmetic" k2="-1" k3="1"/>
<feColorMatrix type="matrix" values="0 0 0 0 1 0 0 0 0 1 0 0 0 0 1 0 0 0 0.67 0"/>
<feBlend mode="overlay" in2="effect2_innerShadow_1_766" result="effect3_innerShadow_1_766"/>
</filter>
<filter id="filter3_b_1_766" x="-1.37844" y="50.5721" width="42.2319" height="41.9718" filterUnits="userSpaceOnUse" color-interpolation-filters="sRGB">
<feFlood flood-opacity="0" result="BackgroundImageFix"/>
<feGaussianBlur in="BackgroundImageFix" stdDeviation="3.79729"/>
<feComposite in2="SourceAlpha" operator="in" result="effect1_backgroundBlur_1_766"/>
<feBlend mode="normal" in="SourceGraphic" in2="effect1_backgroundBlur_1_766" result="shape"/>
</filter>
<filter id="filter4_bii_1_766" x="0.240646" y="52.3191" width="39.0182" height="38.6302" filterUnits="userSpaceOnUse" color-interpolation-filters="sRGB">
<feFlood flood-opacity="0" result="BackgroundImageFix"/>
<feGaussianBlur in="BackgroundImageFix" stdDeviation="3"/>
<feComposite in2="SourceAlpha" operator="in" result="effect1_backgroundBlur_1_766"/>
<feBlend mode="normal" in="SourceGraphic" in2="effect1_backgroundBlur_1_766" result="shape"/>
<feColorMatrix in="SourceAlpha" type="matrix" values="0 0 0 0 0 0 0 0 0 0 0 0 0 0 0 0 0 0 127 0" result="hardAlpha"/>
<feOffset dx="1" dy="-1"/>
<feGaussianBlur stdDeviation="1"/>
<feComposite in2="hardAlpha" operator="arithmetic" k2="-1" k3="1"/>
<feColorMatrix type="matrix" values="0 0 0 0 0.0666667 0 0 0 0 0.0666667 0 0 0 0 0.0666667 0 0 0 0.1 0"/>
<feBlend mode="plus-darker" in2="shape" result="effect2_innerShadow_1_766"/>
<feColorMatrix in="SourceAlpha" type="matrix" values="0 0 0 0 0 0 0 0 0 0 0 0 0 0 0 0 0 0 127 0" result="hardAlpha"/>
<feOffset dx="1" dy="1"/>
<feGaussianBlur stdDeviation="0.5"/>
<feComposite in2="hardAlpha" operator="arithmetic" k2="-1" k3="1"/>
<feColorMatrix type="matrix" values="0 0 0 0 1 0 0 0 0 1 0 0 0 0 1 0 0 0 0.67 0"/>
<feBlend mode="overlay" in2="effect2_innerShadow_1_766" result="effect3_innerShadow_1_766"/>
</filter>
<filter id="filter5_bii_1_766" x="0.216133" y="52.1666" width="38.3811" height="37.668" filterUnits="userSpaceOnUse" color-interpolation-filters="sRGB">
<feFlood flood-opacity="0" result="BackgroundImageFix"/>
<feGaussianBlur in="BackgroundImageFix" stdDeviation="3"/>
<feComposite in2="SourceAlpha" operator="in" result="effect1_backgroundBlur_1_766"/>
<feBlend mode="normal" in="SourceGraphic" in2="effect1_backgroundBlur_1_766" result="shape"/>
<feColorMatrix in="SourceAlpha" type="matrix" values="0 0 0 0 0 0 0 0 0 0 0 0 0 0 0 0 0 0 127 0" result="hardAlpha"/>
<feOffset dx="1" dy="-1"/>
<feGaussianBlur stdDeviation="1"/>
<feComposite in2="hardAlpha" operator="arithmetic" k2="-1" k3="1"/>
<feColorMatrix type="matrix" values="0 0 0 0 0.0666667 0 0 0 0 0.0666667 0 0 0 0 0.0666667 0 0 0 0.1 0"/>
<feBlend mode="plus-darker" in2="shape" result="effect2_innerShadow_1_766"/>
<feColorMatrix in="SourceAlpha" type="matrix" values="0 0 0 0 0 0 0 0 0 0 0 0 0 0 0 0 0 0 127 0" result="hardAlpha"/>
<feOffset dx="1" dy="1"/>
<feGaussianBlur stdDeviation="0.5"/>
<feComposite in2="hardAlpha" operator="arithmetic" k2="-1" k3="1"/>
<feColorMatrix type="matrix" values="0 0 0 0 1 0 0 0 0 1 0 0 0 0 1 0 0 0 0.67 0"/>
<feBlend mode="overlay" in2="effect2_innerShadow_1_766" result="effect3_innerShadow_1_766"/>
</filter>
<radialGradient id="paint0_radial_1_766" cx="0" cy="0" r="1" gradientUnits="userSpaceOnUse" gradientTransform="translate(92.6086 59.9134) rotate(159.545) scale(82.3156 187.107)">
<stop stop-color="#0034B8"/>
<stop offset="0.453125" stop-color="#1699F5"/>
<stop offset="1" stop-color="#DAE4FF"/>
</radialGradient>
<clipPath id="clip0_1_766">
<rect width="120" height="120" fill="white" transform="translate(0.5)"/>
</clipPath>
</defs>
</svg>
